<svg width="59" height="58" viewBox="0 0 59 58" fill="none" xmlns="http://www.w3.org/2000/svg">
<path fill-rule="evenodd" clip-rule="evenodd" d="M26.1901 16.6268C28.7803 19.1978 28.7803 23.3637 26.1901 25.9315C23.5999 28.5026 19.4029 28.5026 16.816 25.9315C14.2257 23.3605 14.2257 19.1946 16.816 16.6268C19.4062 14.0557 23.6031 14.0557 26.1901 16.6268Z" fill="#009EE3"/>
<path fill-rule="evenodd" clip-rule="evenodd" d="M41.5563 31.8758C44.1465 34.4469 44.1465 38.6127 41.5563 41.1805C38.9661 43.7516 34.7691 43.7516 32.1822 41.1805C29.5919 38.6095 29.5919 34.4436 32.1822 31.8758C34.7691 29.308 38.9661 29.308 41.5563 31.8758Z" fill="#009EE3"/>
<path fill-rule="evenodd" clip-rule="evenodd" d="M41.3161 16.6944C43.9063 19.2655 43.9063 23.4313 41.3161 25.9992C38.7259 28.5702 34.5289 28.5702 31.9419 25.9992C29.3517 23.4281 29.3517 19.2622 31.9419 16.6944C34.5289 14.1266 38.7259 14.1266 41.3161 16.6944Z" fill="#009EE3"/>
<path fill-rule="evenodd" clip-rule="evenodd" d="M25.9533 31.9434C28.5435 34.5145 28.5435 38.6804 25.9533 41.2482C23.3631 43.816 19.1661 43.8193 16.5791 41.2482C13.9889 38.6772 13.9889 34.5113 16.5791 31.9434C19.1661 29.3756 23.3631 29.3756 25.9533 31.9434Z" fill="#009EE3"/>
<path fill-rule="evenodd" clip-rule="evenodd" d="M9.83735 16.6814C12.0121 16.9489 13.463 19.6391 13.0832 22.687C12.7002 25.7349 10.6293 27.987 8.45459 27.7196C6.27984 27.4522 4.82893 24.7619 5.2087 21.714C5.59171 18.6661 7.6626 16.4108 9.83735 16.6814Z" fill="#009EE3"/>
<path fill-rule="evenodd" clip-rule="evenodd" d="M16.7284 48.2462C16.9978 46.0875 19.7081 44.6473 22.7787 45.0243C25.8493 45.4045 28.1182 47.46 27.8488 49.6187C27.5794 51.7773 24.8691 53.2175 21.7985 52.8405C18.7279 52.4636 16.459 50.4048 16.7284 48.2462Z" fill="#009EE3"/>
<path fill-rule="evenodd" clip-rule="evenodd" d="M8.10737 30.3005C10.2691 29.9364 12.4374 32.0983 12.9567 35.1269C13.4728 38.1554 12.142 40.9037 9.98025 41.2677C7.81848 41.6318 5.65023 39.4699 5.13088 36.4414C4.61479 33.416 5.9456 30.6646 8.10737 30.3005Z" fill="#009EE3"/>
<path fill-rule="evenodd" clip-rule="evenodd" d="M30.5527 49.8634C30.186 47.7177 32.364 45.5655 35.4151 45.05C38.4662 44.5377 41.235 45.8587 41.6018 48.0044C41.9686 50.1502 39.7906 52.3024 36.7394 52.8179C33.6915 53.3302 30.9195 52.0092 30.5527 49.8634Z" fill="#009EE3"/>
<path fill-rule="evenodd" clip-rule="evenodd" d="M2.61528 20.5446C3.64423 20.7541 4.18954 22.4939 3.83249 24.4302C3.47544 26.3666 2.35561 27.7681 1.32666 27.5587C0.297709 27.3492 -0.247601 25.6094 0.109447 23.6731C0.466496 21.7367 1.58633 20.3352 2.61528 20.5446Z" fill="#009EE3"/>
<path fill-rule="evenodd" clip-rule="evenodd" d="M20.656 55.3825C20.867 54.3612 22.6198 53.8199 24.5706 54.1743C26.5213 54.5287 27.9333 55.6403 27.7223 56.6616C27.5113 57.6829 25.7586 58.2242 23.8078 57.8698C21.857 57.5154 20.445 56.4038 20.656 55.3825Z" fill="#009EE3"/>
<path fill-rule="evenodd" clip-rule="evenodd" d="M1.34942 30.5163C2.38486 30.3423 3.52417 31.7696 3.89745 33.7027C4.27072 35.6359 3.7319 37.3434 2.69646 37.5174C1.66102 37.6914 0.521716 36.2641 0.148438 34.331C-0.22484 32.3979 0.313978 30.6903 1.34942 30.5163Z" fill="#009EE3"/>
<path fill-rule="evenodd" clip-rule="evenodd" d="M30.6534 56.6874C30.4781 55.6597 31.916 54.5288 33.8636 54.1583C35.8111 53.7878 37.5314 54.3226 37.7067 55.3504C37.882 56.3781 36.4441 57.509 34.4965 57.8795C32.549 58.25 30.8287 57.7152 30.6534 56.6874Z" fill="#009EE3"/>
<path fill-rule="evenodd" clip-rule="evenodd" d="M7.62699 44.731C8.49689 43.816 10.6554 44.4797 12.4536 46.2099C14.2519 47.9432 15.0049 50.0858 14.1383 51.0008C13.2684 51.9158 11.1098 51.2521 9.31161 49.522C7.51339 47.7918 6.76034 45.646 7.62699 44.731Z" fill="#009EE3"/>
<path fill-rule="evenodd" clip-rule="evenodd" d="M44.3607 51.1008C43.4388 50.2374 44.1075 48.0948 45.8505 46.3099C47.5968 44.525 49.7554 43.7775 50.6772 44.6378C51.5991 45.5012 50.9304 47.6438 49.1873 49.4287C47.4443 51.2136 45.2825 51.961 44.3607 51.1008Z" fill="#009EE3"/>
<path fill-rule="evenodd" clip-rule="evenodd" d="M48.5771 41.2515C46.4023 40.9873 44.9449 38.3003 45.3215 35.2524C45.698 32.2045 47.7656 29.946 49.9404 30.2102C52.1151 30.4744 53.5726 33.1614 53.196 36.2093C52.8195 39.2572 50.7519 41.5157 48.5771 41.2515Z" fill="#009EE3"/>
<path fill-rule="evenodd" clip-rule="evenodd" d="M41.5726 9.74801C41.3064 11.9067 38.5993 13.3533 35.5287 12.9795C32.4581 12.6058 30.1827 10.5535 30.4489 8.39483C30.7151 6.23618 33.4221 4.78956 36.4928 5.1633C39.5634 5.53704 41.8387 7.58936 41.5726 9.74801Z" fill="#009EE3"/>
<path fill-rule="evenodd" clip-rule="evenodd" d="M50.2034 27.7035C48.0449 28.0708 45.8701 25.9154 45.3475 22.8868C44.8249 19.8583 46.1525 17.1068 48.311 16.7395C50.4696 16.3722 52.6443 18.5276 53.1669 21.5562C53.6895 24.5815 52.3652 27.3362 50.2034 27.7035Z" fill="#009EE3"/>
<path fill-rule="evenodd" clip-rule="evenodd" d="M27.8456 8.05661C28.2157 10.1991 26.0442 12.3578 22.993 12.8765C19.9419 13.3952 17.1699 12.0775 16.7999 9.93495C16.4298 7.79242 18.6013 5.63377 21.6525 5.11505C24.7036 4.59633 27.4756 5.91085 27.8456 8.05661Z" fill="#009EE3"/>
<path fill-rule="evenodd" clip-rule="evenodd" d="M55.6629 37.5012C54.6339 37.295 54.0854 35.5552 54.4359 33.6189C54.7865 31.6825 55.9063 30.2778 56.9353 30.4872C57.9642 30.6934 58.5128 32.4332 58.1622 34.3696C57.8117 36.3059 56.6918 37.7107 55.6629 37.5012Z" fill="#009EE3"/>
<path fill-rule="evenodd" clip-rule="evenodd" d="M37.6677 2.5859C37.46 3.60723 35.7072 4.15172 33.7564 3.80376C31.8056 3.4558 30.3904 2.34426 30.6014 1.32293C30.8091 0.301595 32.5619 -0.242901 34.5127 0.105061C36.4635 0.453022 37.8755 1.56457 37.6677 2.5859Z" fill="#009EE3"/>
<path fill-rule="evenodd" clip-rule="evenodd" d="M56.9808 27.4554C55.9454 27.6294 54.8028 26.2054 54.4263 24.2722C54.0497 22.3391 54.5853 20.6315 55.6208 20.4543C56.6562 20.2803 57.7988 21.7044 58.1753 23.6375C58.5486 25.5739 58.0163 27.2815 56.9808 27.4554Z" fill="#009EE3"/>
<path fill-rule="evenodd" clip-rule="evenodd" d="M27.6152 1.34887C27.7905 2.37665 26.3558 3.51074 24.4082 3.88448C22.4607 4.25822 20.7404 3.72661 20.5619 2.69883C20.3866 1.67106 21.8213 0.536961 23.7688 0.163225C25.7196 -0.20729 27.4399 0.321096 27.6152 1.34887Z" fill="#009EE3"/>
<path fill-rule="evenodd" clip-rule="evenodd" d="M44.958 7.67974C45.8279 6.76473 47.9864 7.42844 49.7846 9.15858C51.5829 10.8919 52.3359 13.0345 51.4693 13.9495C50.5994 14.8645 48.4408 14.2008 46.6426 12.4707C44.8444 10.7373 44.0881 8.59475 44.958 7.67974Z" fill="#009EE3"/>
<path fill-rule="evenodd" clip-rule="evenodd" d="M7.03291 14.0461C6.11107 13.1827 6.77973 11.0401 8.52277 9.25522C10.2691 7.4703 12.4276 6.72283 13.3494 7.58307C14.2713 8.44653 13.6026 10.5891 11.8596 12.374C10.1133 14.1589 7.9515 14.9096 7.03291 14.0461Z" fill="#009EE3"/>
</svg>
