<svg width="24" height="40" viewBox="0 0 24 40"  xmlns="http://www.w3.org/2000/svg">
<path d="M23.3333 13.3333V11.78C23.3311 9.54048 22.4405 7.39332 20.8569 5.80974C19.2733 4.22616 17.1262 3.33554 14.8867 3.33333H13.3333V0H10V3.33333H8.44667C6.4422 3.33547 4.50382 4.05039 2.97799 5.3503C1.45216 6.6502 0.438349 8.45037 0.117755 10.429C-0.202839 12.4077 0.190685 14.4359 1.22799 16.1511C2.26529 17.8663 3.87876 19.1567 5.78 19.7917L10 21.2V33.3333H8.44667C7.09093 33.332 5.79111 32.7929 4.83246 31.8342C3.87381 30.8756 3.33466 29.5757 3.33333 28.22V26.6667H0V28.22C0.00220621 30.4595 0.892829 32.6067 2.47641 34.1903C4.05999 35.7738 6.20715 36.6645 8.44667 36.6667H10V40H13.3333V36.6667H14.8867C16.8911 36.6645 18.8295 35.9496 20.3553 34.6497C21.8812 33.3498 22.895 31.5496 23.2156 29.571C23.5362 27.5923 23.1427 25.5641 22.1054 23.8489C21.068 22.1337 19.4546 20.8433 17.5533 20.2083L13.3333 18.8V6.66667H14.8867C16.2424 6.66799 17.5422 7.20714 18.5009 8.16579C19.4595 9.12444 19.9987 10.4243 20 11.78V13.3333H23.3333ZM16.5 23.3683C17.6521 23.7518 18.6302 24.5327 19.2591 25.5714C19.8881 26.61 20.1269 27.8386 19.9328 29.0372C19.7388 30.2358 19.1245 31.3263 18.1999 32.1134C17.2754 32.9006 16.1009 33.333 14.8867 33.3333H13.3333V22.3117L16.5 23.3683ZM10 17.6883L6.83333 16.6317C5.68123 16.2482 4.70319 15.4673 4.07422 14.4286C3.44527 13.39 3.20644 12.1614 3.4005 10.9628C3.59456 9.76416 4.20883 8.6737 5.13339 7.88657C6.05794 7.09944 7.23243 6.66701 8.44667 6.66667H10V17.6883Z" />
</svg>
