<svg width="34" height="40" viewBox="0 0 34 40"  xmlns="http://www.w3.org/2000/svg">
<path d="M16.7484 39.9979L15.5866 39.002C13.9849 37.6609 0 25.583 0 16.7484C0 7.49852 7.49852 0 16.7484 0C25.9982 0 33.4967 7.49852 33.4967 16.7484C33.4967 25.5831 19.5118 37.661 17.9168 39.0087L16.7484 39.9979ZM16.7484 3.62148C9.50203 3.62969 3.62977 9.50196 3.62156 16.7483C3.62156 22.2984 12.2256 31.1647 16.7484 35.2227C21.2712 31.1631 29.8752 22.2917 29.8752 16.7483C29.867 9.50196 23.9948 3.62977 16.7484 3.62148Z" />
<path d="M16.7483 23.3872C13.0817 23.3872 10.1094 20.4149 10.1094 16.7483C10.1094 13.0818 13.0817 10.1094 16.7483 10.1094C20.4148 10.1094 23.3872 13.0818 23.3872 16.7483C23.3872 20.4149 20.4149 23.3872 16.7483 23.3872ZM16.7483 13.4288C14.915 13.4288 13.4288 14.915 13.4288 16.7483C13.4288 18.5815 14.915 20.0677 16.7483 20.0677C18.5816 20.0677 20.0677 18.5815 20.0677 16.7483C20.0677 14.915 18.5816 13.4288 16.7483 13.4288Z"/>
</svg>
