<svg width="30" height="30" viewBox="0 0 30 30" fill="none" xmlns="http://www.w3.org/2000/svg">
<path opacity="0.4" d="M16.4645 1.67042L19.8042 8.38183C20.0502 8.86808 20.5198 9.20575 21.0614 9.28079L28.563 10.3733C29.0011 10.4349 29.3987 10.666 29.6673 11.0187C29.9328 11.3669 30.0469 11.8081 29.9824 12.2418C29.9298 12.602 29.7603 12.9351 29.5008 13.1903L24.0651 18.4595C23.6675 18.8271 23.4875 19.3719 23.5835 19.9047L24.9218 27.3125C25.0643 28.2069 24.4717 29.0503 23.5835 29.2199C23.2174 29.2785 22.8423 29.2169 22.5123 29.0488L15.8208 25.5626C15.3242 25.3119 14.7376 25.3119 14.241 25.5626L7.54954 29.0488C6.72736 29.4856 5.70864 29.1884 5.25105 28.378C5.08151 28.0553 5.0215 27.6877 5.07701 27.329L6.4153 19.9197C6.51132 19.3884 6.32978 18.8407 5.93369 18.473L0.498025 13.2068C-0.148614 12.5825 -0.168118 11.5544 0.454516 10.9076C0.468019 10.8941 0.483022 10.8791 0.498025 10.8641C0.756081 10.6015 1.09515 10.4349 1.46123 10.3914L8.96284 9.2973C9.50296 9.22076 9.97256 8.88609 10.2201 8.39684L13.4398 1.67042C13.7264 1.09413 14.3205 0.735446 14.9656 0.750453H15.1667C15.7263 0.817988 16.2139 1.16466 16.4645 1.67042" fill="#FFA800"/>
<path d="M14.988 25.3757C14.6975 25.3847 14.4144 25.4627 14.1598 25.6024L7.50108 29.0807C6.68634 29.4695 5.71135 29.1678 5.25455 28.3886C5.08531 28.0704 5.02391 27.7056 5.08082 27.3483L6.41076 19.9547C6.50063 19.4173 6.3209 18.8708 5.93001 18.4925L0.491906 13.2277C-0.153597 12.5957 -0.165579 11.5583 0.466445 10.9113C0.475431 10.9023 0.48292 10.8948 0.491906 10.8873C0.749508 10.6321 1.08199 10.4639 1.43994 10.4114L8.94785 9.3065C9.49151 9.23744 9.96328 8.89816 10.2029 8.40576L13.4664 1.59468C13.7764 1.04523 14.371 0.717958 15 0.752487C14.988 1.19835 14.988 25.0724 14.988 25.3757" fill="#FFA800"/>
</svg>
