<svg width="40" height="40" viewBox="0 0 40 40"  xmlns="http://www.w3.org/2000/svg">
<path d="M37.4999 6.62671H32.3565C32.027 6.62678 31.7048 6.72457 31.4308 6.90771C31.1568 7.09085 30.9432 7.35112 30.8171 7.65562C30.691 7.96012 30.6579 8.29517 30.7222 8.61843C30.7865 8.94168 30.9452 9.23862 31.1782 9.47171L32.9882 11.2817L27.0115 17.2567C26.694 17.5602 26.2716 17.7296 25.8324 17.7296C25.3931 17.7296 24.9708 17.5602 24.6532 17.2567L24.3699 16.9717C23.4176 16.0618 22.1511 15.5541 20.834 15.5541C19.5169 15.5541 18.2505 16.0618 17.2982 16.9717L8.7982 25.4717C8.48502 25.7858 8.30944 26.2114 8.31006 26.6549C8.31069 27.0984 8.48747 27.5235 8.80153 27.8367C9.1156 28.1499 9.5412 28.3255 9.98473 28.3249C10.4282 28.3242 10.8534 28.1474 11.1665 27.8334L19.6665 19.3334C19.9839 19.0295 20.4063 18.8599 20.8457 18.8599C21.2851 18.8599 21.7075 19.0295 22.0249 19.3334L22.3082 19.6184C23.2609 20.5275 24.5272 21.0347 25.844 21.0347C27.1609 21.0347 28.4272 20.5275 29.3799 19.6184L35.3565 13.6417L37.1665 15.4517C37.4004 15.681 37.6966 15.8362 38.0182 15.8981C38.3398 15.96 38.6725 15.9258 38.9748 15.7997C39.277 15.6737 39.5354 15.4614 39.7178 15.1893C39.9001 14.9173 39.9982 14.5975 39.9999 14.27V9.12671C39.9999 8.46367 39.7365 7.82778 39.2676 7.35894C38.7988 6.8901 38.1629 6.62671 37.4999 6.62671Z" />
<path d="M38.3333 36.6267H8.33333C7.00725 36.6267 5.73548 36.0999 4.7978 35.1622C3.86012 34.2245 3.33333 32.9527 3.33333 31.6267V1.66667C3.33333 1.22464 3.15774 0.800716 2.84518 0.488155C2.53262 0.175595 2.10869 0 1.66667 0C1.22464 0 0.800716 0.175595 0.488155 0.488155C0.175595 0.800716 0 1.22464 0 1.66667L0 31.6267C0.00264643 33.836 0.88147 35.9541 2.4437 37.5163C4.00593 39.0785 6.12401 39.9574 8.33333 39.96H38.3333C38.7754 39.96 39.1993 39.7844 39.5118 39.4718C39.8244 39.1593 40 38.7354 40 38.2933C40 37.8513 39.8244 37.4274 39.5118 37.1148C39.1993 36.8023 38.7754 36.6267 38.3333 36.6267Z" />
</svg>
