<svg width="30" height="30" viewBox="0 0 30 30" fill="none" xmlns="http://www.w3.org/2000/svg">
<path opacity="0.4" d="M0.000244141 13.6177C0.0752441 17.1247 0.285244 23.1232 0.315244 23.7847C0.421744 25.1992 0.963244 26.6287 1.80624 27.6367C2.97924 29.0512 4.42374 29.6827 6.43824 29.6827C9.22224 29.6977 12.2912 29.6977 15.2717 29.6977C18.2642 29.6977 21.1682 29.6977 23.6207 29.6827C25.6067 29.6827 27.0962 29.0347 28.2542 27.6367C29.0972 26.6287 29.6387 25.1842 29.7152 23.7847C29.7452 23.2282 29.8952 16.7167 29.9852 13.6177H0.000244141Z" fill="#FFA800"/>
<path d="M13.8682 20.0762V22.0172C13.8682 22.6382 14.3722 23.1422 14.9932 23.1422C15.6142 23.1422 16.1182 22.6382 16.1182 22.0172V20.0762C16.1182 19.4552 15.6142 18.9512 14.9932 18.9512C14.3722 18.9512 13.8682 19.4552 13.8682 20.0762Z" fill="#FFA800"/>
<path fill-rule="evenodd" clip-rule="evenodd" d="M12.317 18.8345C12.167 19.379 11.6435 19.727 11.0765 19.652C7.24999 19.118 3.59299 17.7605 0.505988 15.722C0.189488 15.515 0.000488281 15.161 0.000488281 14.783V9.58399C0.000488281 6.43399 2.56849 3.87199 5.72599 3.87199H8.67649C8.95849 1.69399 10.8035 0.000488281 13.0565 0.000488281H16.9295C19.181 0.000488281 21.0275 1.69399 21.3095 3.87199H24.275C27.4235 3.87199 29.9855 6.43399 29.9855 9.58399V14.783C29.9855 15.161 29.795 15.5135 29.4815 15.722C26.3885 17.7695 22.7165 19.133 18.8645 19.6655C18.812 19.673 18.761 19.676 18.71 19.676C18.2015 19.676 17.747 19.3325 17.6195 18.8285C17.3165 17.6345 16.232 16.799 14.9855 16.799C13.7225 16.799 12.65 17.6165 12.317 18.8345ZM16.9295 2.25049H13.0565C12.047 2.25049 11.204 2.94049 10.952 3.87199H19.0325C18.7805 2.94049 17.9375 2.25049 16.9295 2.25049Z" fill="#FFA800"/>
</svg>
