<svg width="41" height="39" viewBox="0 0 41 39" fill="none" xmlns="http://www.w3.org/2000/svg">
<path d="M7.50245 11.9564C6.73607 11.9586 5.97688 11.8087 5.26882 11.5155C4.56076 11.2222 3.9179 10.7915 3.37745 10.2481L0.83578 7.98977C0.34071 7.54774 0.0415103 6.92715 0.00400299 6.26452C-0.0145687 5.93642 0.0316656 5.60787 0.140066 5.29764C0.248467 4.98741 0.416911 4.70157 0.63578 4.45643C0.85465 4.2113 1.11966 4.01167 1.41568 3.86896C1.7117 3.72624 2.03293 3.64323 2.36103 3.62466C3.02365 3.58715 3.67404 3.81441 4.16911 4.25643L6.80911 6.6131C6.89507 6.71468 7.00095 6.79756 7.1202 6.85662C7.23945 6.91567 7.36955 6.94964 7.50245 6.95643C7.72303 6.95639 7.93461 6.86888 8.09078 6.7131L14.1124 0.979766C14.5959 0.54226 15.2312 0.310971 15.8828 0.335228C16.5345 0.359485 17.1508 0.637367 17.6004 1.10961C18.0501 1.58185 18.2974 2.21108 18.2897 2.86309C18.282 3.5151 18.0198 4.1383 17.5591 4.59977L11.5824 10.2898C11.0455 10.8223 10.4086 11.2437 9.70852 11.5296C9.0084 11.8156 8.25872 11.9607 7.50245 11.9564ZM40.0024 6.1231C40.0024 5.46006 39.7391 4.82417 39.2702 4.35533C38.8014 3.88649 38.1655 3.6231 37.5024 3.6231H24.1691C23.5061 3.6231 22.8702 3.88649 22.4013 4.35533C21.9325 4.82417 21.6691 5.46006 21.6691 6.1231C21.6691 6.78614 21.9325 7.42203 22.4013 7.89087C22.8702 8.35971 23.5061 8.6231 24.1691 8.6231H37.5024C38.1655 8.6231 38.8014 8.35971 39.2702 7.89087C39.7391 7.42203 40.0024 6.78614 40.0024 6.1231ZM11.5824 23.6231L17.5591 17.9331C18.0198 17.4716 18.282 16.8484 18.2897 16.1964C18.2974 15.5444 18.0501 14.9152 17.6004 14.4429C17.1508 13.9707 16.5345 13.6928 15.8828 13.6686C15.2312 13.6443 14.5959 13.8756 14.1124 14.3131L8.09078 20.0464C7.93451 20.2027 7.72258 20.2904 7.50161 20.2904C7.28064 20.2904 7.06872 20.2027 6.91245 20.0464L4.27078 17.4031C3.80179 16.9341 3.1657 16.6706 2.50245 16.6706C1.83919 16.6706 1.2031 16.9341 0.734114 17.4031C0.265123 17.8721 0.00164597 18.5082 0.00164597 19.1714C0.00164597 19.8347 0.265123 20.4708 0.734114 20.9398L3.37745 23.5814C4.46405 24.6674 5.93517 25.2809 7.47138 25.2887C9.0076 25.2965 10.4849 24.698 11.5824 23.6231ZM40.0024 19.4564C40.0024 18.7934 39.7391 18.1575 39.2702 17.6887C38.8014 17.2198 38.1655 16.9564 37.5024 16.9564H24.1691C23.5061 16.9564 22.8702 17.2198 22.4013 17.6887C21.9325 18.1575 21.6691 18.7934 21.6691 19.4564C21.6691 20.1195 21.9325 20.7554 22.4013 21.2242C22.8702 21.693 23.5061 21.9564 24.1691 21.9564H37.5024C38.1655 21.9564 38.8014 21.693 39.2702 21.2242C39.7391 20.7554 40.0024 20.1195 40.0024 19.4564ZM11.5824 36.9564L17.5591 31.2664C18.0198 30.805 18.282 30.1818 18.2897 29.5298C18.2974 28.8777 18.0501 28.2485 17.6004 27.7763C17.1508 27.304 16.5345 27.0262 15.8828 27.0019C15.2312 26.9776 14.5959 27.2089 14.1124 27.6464L8.09078 33.3798C7.93461 33.5355 7.72303 33.6231 7.50245 33.6231C7.36955 33.6163 7.23945 33.5823 7.1202 33.5233C7.00095 33.4642 6.89507 33.3814 6.80911 33.2798L4.16911 30.9231C3.67404 30.4811 3.02365 30.2538 2.36103 30.2913C1.6984 30.3288 1.07781 30.628 0.63578 31.1231C0.193753 31.6182 -0.0335043 32.2686 0.00400299 32.9312C0.0415103 33.5938 0.34071 34.2144 0.83578 34.6564L3.37411 36.9148C4.46086 38.0017 5.93269 38.6159 7.46971 38.6237C9.00673 38.6315 10.4847 38.0323 11.5824 36.9564ZM40.0024 32.7898C40.0024 32.1267 39.7391 31.4908 39.2702 31.022C38.8014 30.5532 38.1655 30.2898 37.5024 30.2898H24.1691C23.5061 30.2898 22.8702 30.5532 22.4013 31.022C21.9325 31.4908 21.6691 32.1267 21.6691 32.7898C21.6691 33.4528 21.9325 34.0887 22.4013 34.5575C22.8702 35.0264 23.5061 35.2898 24.1691 35.2898H37.5024C38.1655 35.2898 38.8014 35.0264 39.2702 34.5575C39.7391 34.0887 40.0024 33.4528 40.0024 32.7898Z" />
</svg>
