<svg width="30" height="40" viewBox="0 0 30 40" fill="none" xmlns="http://www.w3.org/2000/svg">
<path d="M15 20C16.9778 20 18.9112 19.4135 20.5557 18.3147C22.2002 17.2159 23.4819 15.6541 24.2388 13.8268C24.9957 11.9996 25.1937 9.98891 24.8079 8.0491C24.422 6.10929 23.4696 4.32746 22.0711 2.92894C20.6725 1.53041 18.8907 0.578004 16.9509 0.192152C15.0111 -0.193701 13.0004 0.00433286 11.1732 0.761209C9.3459 1.51809 7.78412 2.79981 6.6853 4.4443C5.58649 6.08879 5 8.02219 5 10C5.00265 12.6514 6.05707 15.1934 7.93186 17.0681C9.80665 18.9429 12.3486 19.9974 15 20ZM15 3.33334C16.3185 3.33334 17.6075 3.72433 18.7038 4.45687C19.8001 5.18942 20.6546 6.23061 21.1592 7.44878C21.6638 8.66696 21.7958 10.0074 21.5386 11.3006C21.2813 12.5938 20.6464 13.7817 19.714 14.7141C18.7817 15.6464 17.5938 16.2813 16.3006 16.5386C15.0074 16.7958 13.667 16.6638 12.4488 16.1592C11.2306 15.6546 10.1894 14.8001 9.45687 13.7038C8.72433 12.6075 8.33333 11.3185 8.33333 10C8.33333 8.23189 9.03571 6.5362 10.286 5.28596C11.5362 4.03572 13.2319 3.33334 15 3.33334Z" />
<path d="M15 23C11.0231 23.0044 7.21036 24.5862 4.39827 27.3983C1.58618 30.2104 0.00441142 34.0231 0 38C0 38.442 0.175595 38.866 0.488155 39.1785C0.800716 39.4911 1.22464 39.6667 1.66667 39.6667C2.10869 39.6667 2.53262 39.4911 2.84518 39.1785C3.15774 38.866 3.33333 38.442 3.33333 38C3.33333 34.9058 4.5625 31.9383 6.75042 29.7504C8.93834 27.5625 11.9058 26.3333 15 26.3333C18.0942 26.3333 21.0617 27.5625 23.2496 29.7504C25.4375 31.9383 26.6667 34.9058 26.6667 38C26.6667 38.442 26.8423 38.866 27.1548 39.1785C27.4674 39.4911 27.8913 39.6667 28.3333 39.6667C28.7754 39.6667 29.1993 39.4911 29.5118 39.1785C29.8244 38.866 30 38.442 30 38C29.9956 34.0231 28.4138 30.2104 25.6017 27.3983C22.7896 24.5862 18.9769 23.0044 15 23Z" />
</svg>
