<svg width="40" height="34" viewBox="0 0 40 34" fill="none" xmlns="http://www.w3.org/2000/svg">
<path d="M8.30843 33.3333C9.19248 33.3333 10.0403 32.9821 10.6655 32.357C11.2906 31.7319 11.6418 30.8841 11.6418 30V20C11.6418 19.1159 11.2906 18.2681 10.6655 17.643C10.0403 17.0179 9.19248 16.6667 8.30843 16.6667V15C8.30843 11.9058 9.53759 8.93834 11.7255 6.75042C13.9134 4.5625 16.8809 3.33333 19.9751 3.33333C23.0693 3.33333 26.0368 4.5625 28.2247 6.75042C30.4126 8.93834 31.6418 11.9058 31.6418 15V16.6667C30.7577 16.6667 29.9099 17.0179 29.2847 17.643C28.6596 18.2681 28.3084 19.1159 28.3084 20V30H23.3084C22.8664 30 22.4425 30.1756 22.1299 30.4882C21.8174 30.8007 21.6418 31.2246 21.6418 31.6667C21.6418 32.1087 21.8174 32.5326 22.1299 32.8452C22.4425 33.1577 22.8664 33.3333 23.3084 33.3333H31.6418C33.5518 33.3276 35.4019 32.666 36.8823 31.4591C38.3627 30.2522 39.3837 28.5734 39.7742 26.7037C40.1647 24.8341 39.901 22.887 39.0274 21.1884C38.1538 19.4899 36.7232 18.1431 34.9751 17.3733V15C34.9751 11.0218 33.3947 7.20644 30.5817 4.3934C27.7687 1.58035 23.9533 0 19.9751 0C15.9968 0 12.1815 1.58035 9.36849 4.3934C6.55545 7.20644 4.9751 11.0218 4.9751 15V17.3733C3.22703 18.1431 1.79643 19.4899 0.922799 21.1884C0.0491678 22.887 -0.214468 24.8341 0.176026 26.7037C0.56652 28.5734 1.58744 30.2522 3.06788 31.4591C4.54832 32.666 6.39841 33.3276 8.30843 33.3333Z" />
</svg>
