<svg width="471" height="363" viewBox="0 0 471 363" fill="none" xmlns="http://www.w3.org/2000/svg">
<g opacity="0.1">
<path fill-rule="evenodd" clip-rule="evenodd" d="M211.606 134.339C232.534 155.112 232.534 188.771 211.606 209.518C190.678 230.292 156.768 230.292 135.866 209.518C114.937 188.745 114.937 155.086 135.866 134.339C156.794 113.566 190.704 113.566 211.606 134.339Z" fill="white"/>
<path fill-rule="evenodd" clip-rule="evenodd" d="M335.759 257.546C356.688 278.32 356.688 311.978 335.759 332.726C314.831 353.499 280.921 353.499 260.019 332.726C239.091 311.952 239.091 278.294 260.019 257.546C280.921 236.799 314.831 236.799 335.759 257.546Z" fill="white"/>
<path fill-rule="evenodd" clip-rule="evenodd" d="M333.823 134.886C354.751 155.659 354.751 189.318 333.823 210.065C312.895 230.838 278.985 230.838 258.083 210.065C237.155 189.292 237.155 155.633 258.083 134.886C278.985 114.138 312.895 114.138 333.823 134.886Z" fill="white"/>
<path fill-rule="evenodd" clip-rule="evenodd" d="M209.692 258.093C230.62 278.866 230.62 312.525 209.692 333.272C188.764 354.02 154.854 354.046 133.952 333.272C113.024 312.499 113.024 278.84 133.952 258.093C154.854 237.346 188.764 237.346 209.692 258.093Z" fill="white"/>
<path fill-rule="evenodd" clip-rule="evenodd" d="M79.4835 134.781C97.0548 136.941 108.778 158.678 105.709 183.304C102.615 207.93 85.8826 226.126 68.3113 223.965C50.7401 221.805 39.0171 200.068 42.0855 175.442C45.1802 150.816 61.9122 132.594 79.4835 134.781Z" fill="white"/>
<path fill-rule="evenodd" clip-rule="evenodd" d="M135.159 389.814C137.336 372.372 159.234 360.736 184.044 363.782C208.853 366.854 227.185 383.462 225.008 400.903C222.832 418.344 200.933 429.98 176.124 426.935C151.314 423.889 132.982 407.255 135.159 389.814Z" fill="white"/>
<path fill-rule="evenodd" clip-rule="evenodd" d="M65.5029 244.818C82.9693 241.877 100.488 259.344 104.684 283.814C108.854 308.283 98.1016 330.488 80.6352 333.43C63.1688 336.372 45.65 318.904 41.4539 294.435C37.284 269.991 48.0365 247.76 65.5029 244.818Z" fill="white"/>
<path fill-rule="evenodd" clip-rule="evenodd" d="M246.854 402.881C243.891 385.544 261.488 368.155 286.141 363.989C310.793 359.85 333.163 370.523 336.127 387.86C339.091 405.198 321.493 422.587 296.841 426.752C272.215 430.891 249.818 420.218 246.854 402.881Z" fill="white"/>
<path fill-rule="evenodd" clip-rule="evenodd" d="M21.1306 165.994C29.4442 167.686 33.8501 181.744 30.9653 197.389C28.0805 213.034 19.0326 224.357 10.719 222.665C2.4054 220.973 -2.00054 206.916 0.8843 191.271C3.76914 175.626 12.817 164.302 21.1306 165.994Z" fill="white"/>
<path fill-rule="evenodd" clip-rule="evenodd" d="M10.901 246.562C19.267 245.156 28.4722 256.688 31.4882 272.307C34.5042 287.926 30.1507 301.723 21.7847 303.129C13.4186 304.535 4.21339 293.002 1.19743 277.384C-1.81854 261.765 2.53494 247.968 10.901 246.562Z" fill="white"/>
<path fill-rule="evenodd" clip-rule="evenodd" d="M61.6217 361.412C68.6503 354.019 86.0904 359.382 100.619 373.361C115.149 387.366 121.233 404.677 114.231 412.07C107.202 419.463 89.762 414.101 75.2329 400.121C60.7038 386.142 54.6195 368.805 61.6217 361.412Z" fill="white"/>
<path fill-rule="evenodd" clip-rule="evenodd" d="M358.419 412.878C350.971 405.902 356.374 388.591 370.457 374.169C384.567 359.748 402.007 353.708 409.455 360.659C416.903 367.635 411.501 384.946 397.417 399.368C383.334 413.789 365.868 419.829 358.419 412.878Z" fill="white"/>
<path fill-rule="evenodd" clip-rule="evenodd" d="M392.487 333.299C374.916 331.165 363.141 309.454 366.183 284.828C369.225 260.202 385.931 241.954 403.502 244.089C421.074 246.224 432.849 267.934 429.807 292.56C426.765 317.186 410.059 335.434 392.487 333.299Z" fill="white"/>
<path fill-rule="evenodd" clip-rule="evenodd" d="M335.893 78.7608C333.742 96.202 311.87 107.89 287.061 104.871C262.251 101.851 243.867 85.2687 246.017 67.8275C248.168 50.3864 270.04 38.6982 294.85 41.7178C319.659 44.7375 338.043 61.3196 335.893 78.7608Z" fill="white"/>
<path fill-rule="evenodd" clip-rule="evenodd" d="M405.629 223.835C388.188 226.803 370.617 209.388 366.395 184.918C362.172 160.448 372.899 138.217 390.339 135.25C407.779 132.282 425.35 149.697 429.573 174.167C433.795 198.611 423.095 220.868 405.629 223.835Z" fill="white"/>
<path fill-rule="evenodd" clip-rule="evenodd" d="M224.984 65.0947C227.974 82.4057 210.429 99.8469 185.776 104.038C161.124 108.229 138.727 97.5822 135.738 80.2711C132.748 62.9601 150.293 45.5189 174.945 41.3278C199.597 37.1367 221.994 47.7576 224.984 65.0947Z" fill="white"/>
<path fill-rule="evenodd" clip-rule="evenodd" d="M449.738 302.998C441.425 301.332 436.993 287.275 439.825 271.63C442.657 255.985 451.705 244.635 460.019 246.327C468.333 247.993 472.765 262.05 469.932 277.695C467.1 293.34 458.052 304.69 449.738 302.998Z" fill="white"/>
<path fill-rule="evenodd" clip-rule="evenodd" d="M304.343 20.8932C302.664 29.1453 288.503 33.5446 272.741 30.7332C256.979 27.9218 245.545 18.9409 247.249 10.6888C248.928 2.43679 263.09 -1.96256 278.851 0.848857C294.613 3.66027 306.021 12.6412 304.343 20.8932Z" fill="white"/>
<path fill-rule="evenodd" clip-rule="evenodd" d="M460.386 221.831C452.02 223.237 442.788 211.731 439.746 196.112C436.704 180.493 441.031 166.696 449.397 165.264C457.763 163.859 466.995 175.365 470.037 190.984C473.053 206.629 468.752 220.425 460.386 221.831Z" fill="white"/>
<path fill-rule="evenodd" clip-rule="evenodd" d="M223.122 10.8966C224.538 19.2007 212.946 28.3638 197.211 31.3835C181.475 34.4031 167.576 30.1079 166.133 21.8038C164.717 13.4997 176.309 4.3366 192.044 1.31693C207.806 -1.67671 221.706 2.59248 223.122 10.8966Z" fill="white"/>
<path fill-rule="evenodd" clip-rule="evenodd" d="M363.248 62.0498C370.277 54.6568 387.717 60.0193 402.246 73.9984C416.775 88.0034 422.86 105.314 415.857 112.707C408.829 120.1 391.389 114.738 376.86 100.759C362.331 86.7539 356.22 69.4428 363.248 62.0498Z" fill="white"/>
<path fill-rule="evenodd" clip-rule="evenodd" d="M56.8236 113.488C49.3755 106.512 54.778 89.2009 68.8613 74.7793C82.9707 60.3578 100.411 54.3185 107.859 61.2689C115.307 68.2454 109.905 85.5564 95.8214 99.978C81.7119 114.399 64.2455 120.465 56.8236 113.488Z" fill="white"/>
</g>
</svg>
