<svg width="40" height="41" viewBox="0 0 40 41" fill="none" xmlns="http://www.w3.org/2000/svg">
<path d="M11.6667 23.6668C11.6667 24.1089 11.4911 24.5328 11.1785 24.8453C10.8659 25.1579 10.442 25.3335 10 25.3335H8.33333C7.89131 25.3335 7.46738 25.1579 7.15482 24.8453C6.84226 24.5328 6.66667 24.1089 6.66667 23.6668C6.66667 23.2248 6.84226 22.8009 7.15482 22.4883C7.46738 22.1758 7.89131 22.0002 8.33333 22.0002H10C10.442 22.0002 10.8659 22.1758 11.1785 22.4883C11.4911 22.8009 11.6667 23.2248 11.6667 23.6668ZM18.3333 22.0002H16.6667C16.2246 22.0002 15.8007 22.1758 15.4882 22.4883C15.1756 22.8009 15 23.2248 15 23.6668C15 24.1089 15.1756 24.5328 15.4882 24.8453C15.8007 25.1579 16.2246 25.3335 16.6667 25.3335H18.3333C18.7754 25.3335 19.1993 25.1579 19.5118 24.8453C19.8244 24.5328 20 24.1089 20 23.6668C20 23.2248 19.8244 22.8009 19.5118 22.4883C19.1993 22.1758 18.7754 22.0002 18.3333 22.0002ZM10 28.6668H8.33333C7.89131 28.6668 7.46738 28.8424 7.15482 29.155C6.84226 29.4675 6.66667 29.8915 6.66667 30.3335C6.66667 30.7755 6.84226 31.1994 7.15482 31.512C7.46738 31.8246 7.89131 32.0002 8.33333 32.0002H10C10.442 32.0002 10.8659 31.8246 11.1785 31.512C11.4911 31.1994 11.6667 30.7755 11.6667 30.3335C11.6667 29.8915 11.4911 29.4675 11.1785 29.155C10.8659 28.8424 10.442 28.6668 10 28.6668ZM18.3333 28.6668H16.6667C16.2246 28.6668 15.8007 28.8424 15.4882 29.155C15.1756 29.4675 15 29.8915 15 30.3335C15 30.7755 15.1756 31.1994 15.4882 31.512C15.8007 31.8246 16.2246 32.0002 16.6667 32.0002H18.3333C18.7754 32.0002 19.1993 31.8246 19.5118 31.512C19.8244 31.1994 20 30.7755 20 30.3335C20 29.8915 19.8244 29.4675 19.5118 29.155C19.1993 28.8424 18.7754 28.6668 18.3333 28.6668ZM10 8.66683H8.33333C7.89131 8.66683 7.46738 8.84242 7.15482 9.15498C6.84226 9.46755 6.66667 9.89147 6.66667 10.3335C6.66667 10.7755 6.84226 11.1994 7.15482 11.512C7.46738 11.8246 7.89131 12.0002 8.33333 12.0002H10C10.442 12.0002 10.8659 11.8246 11.1785 11.512C11.4911 11.1994 11.6667 10.7755 11.6667 10.3335C11.6667 9.89147 11.4911 9.46755 11.1785 9.15498C10.8659 8.84242 10.442 8.66683 10 8.66683ZM18.3333 8.66683H16.6667C16.2246 8.66683 15.8007 8.84242 15.4882 9.15498C15.1756 9.46755 15 9.89147 15 10.3335C15 10.7755 15.1756 11.1994 15.4882 11.512C15.8007 11.8246 16.2246 12.0002 16.6667 12.0002H18.3333C18.7754 12.0002 19.1993 11.8246 19.5118 11.512C19.8244 11.1994 20 10.7755 20 10.3335C20 9.89147 19.8244 9.46755 19.5118 9.15498C19.1993 8.84242 18.7754 8.66683 18.3333 8.66683ZM10 15.3335H8.33333C7.89131 15.3335 7.46738 15.5091 7.15482 15.8217C6.84226 16.1342 6.66667 16.5581 6.66667 17.0002C6.66667 17.4422 6.84226 17.8661 7.15482 18.1787C7.46738 18.4912 7.89131 18.6668 8.33333 18.6668H10C10.442 18.6668 10.8659 18.4912 11.1785 18.1787C11.4911 17.8661 11.6667 17.4422 11.6667 17.0002C11.6667 16.5581 11.4911 16.1342 11.1785 15.8217C10.8659 15.5091 10.442 15.3335 10 15.3335ZM18.3333 15.3335H16.6667C16.2246 15.3335 15.8007 15.5091 15.4882 15.8217C15.1756 16.1342 15 16.5581 15 17.0002C15 17.4422 15.1756 17.8661 15.4882 18.1787C15.8007 18.4912 16.2246 18.6668 16.6667 18.6668H18.3333C18.7754 18.6668 19.1993 18.4912 19.5118 18.1787C19.8244 17.8661 20 17.4422 20 17.0002C20 16.5581 19.8244 16.1342 19.5118 15.8217C19.1993 15.5091 18.7754 15.3335 18.3333 15.3335ZM40 17.0002V32.0002C39.9974 34.2095 39.1185 36.3276 37.5563 37.8898C35.9941 39.452 33.876 40.3308 31.6667 40.3335H8.33333C6.12401 40.3308 4.00593 39.452 2.4437 37.8898C0.88147 36.3276 0.00264643 34.2095 0 32.0002L0 8.66683C0.00264643 6.4575 0.88147 4.33943 2.4437 2.7772C4.00593 1.21497 6.12401 0.336143 8.33333 0.333496L18.3333 0.333496C20.5427 0.336143 22.6607 1.21497 24.223 2.7772C25.7852 4.33943 26.664 6.4575 26.6667 8.66683H31.6667C33.876 8.66948 35.9941 9.5483 37.5563 11.1105C39.1185 12.6728 39.9974 14.7908 40 17.0002ZM8.33333 37.0002H23.3333V8.66683C23.3333 7.34075 22.8065 6.06898 21.8689 5.1313C20.9312 4.19361 19.6594 3.66683 18.3333 3.66683H8.33333C7.00725 3.66683 5.73548 4.19361 4.7978 5.1313C3.86012 6.06898 3.33333 7.34075 3.33333 8.66683V32.0002C3.33333 33.3262 3.86012 34.598 4.7978 35.5357C5.73548 36.4734 7.00725 37.0002 8.33333 37.0002ZM36.6667 17.0002C36.6667 15.6741 36.1399 14.4023 35.2022 13.4646C34.2645 12.5269 32.9927 12.0002 31.6667 12.0002H26.6667V37.0002H31.6667C32.9927 37.0002 34.2645 36.4734 35.2022 35.5357C36.1399 34.598 36.6667 33.3262 36.6667 32.0002V17.0002ZM31.6667 22.0002C31.337 22.0002 31.0148 22.0979 30.7407 22.281C30.4666 22.4642 30.253 22.7245 30.1269 23.029C30.0007 23.3336 29.9677 23.6687 30.032 23.992C30.0963 24.3153 30.2551 24.6123 30.4882 24.8453C30.7212 25.0784 31.0182 25.2372 31.3415 25.3015C31.6648 25.3658 31.9999 25.3328 32.3045 25.2066C32.609 25.0805 32.8693 24.8669 33.0524 24.5928C33.2356 24.3187 33.3333 23.9965 33.3333 23.6668C33.3333 23.2248 33.1577 22.8009 32.8452 22.4883C32.5326 22.1758 32.1087 22.0002 31.6667 22.0002ZM31.6667 28.6668C31.337 28.6668 31.0148 28.7646 30.7407 28.9477C30.4666 29.1308 30.253 29.3911 30.1269 29.6957C30.0007 30.0002 29.9677 30.3353 30.032 30.6586C30.0963 30.9819 30.2551 31.2789 30.4882 31.512C30.7212 31.7451 31.0182 31.9038 31.3415 31.9681C31.6648 32.0324 31.9999 31.9994 32.3045 31.8733C32.609 31.7471 32.8693 31.5335 33.0524 31.2594C33.2356 30.9854 33.3333 30.6631 33.3333 30.3335C33.3333 29.8915 33.1577 29.4675 32.8452 29.155C32.5326 28.8424 32.1087 28.6668 31.6667 28.6668ZM31.6667 15.3335C31.337 15.3335 31.0148 15.4312 30.7407 15.6144C30.4666 15.7975 30.253 16.0578 30.1269 16.3624C30.0007 16.6669 29.9677 17.002 30.032 17.3253C30.0963 17.6486 30.2551 17.9456 30.4882 18.1787C30.7212 18.4118 31.0182 18.5705 31.3415 18.6348C31.6648 18.6991 31.9999 18.6661 32.3045 18.54C32.609 18.4138 32.8693 18.2002 33.0524 17.9261C33.2356 17.652 33.3333 17.3298 33.3333 17.0002C33.3333 16.5581 33.1577 16.1342 32.8452 15.8217C32.5326 15.5091 32.1087 15.3335 31.6667 15.3335Z" />
</svg>
