<svg width="40" height="42" viewBox="0 0 40 42" fill="none" xmlns="http://www.w3.org/2000/svg">
<path d="M9.77223 4.44012L9.77224 4.44013C9.81966 4.47151 9.90927 4.55009 10.0191 4.65064C10.1335 4.75537 10.2809 4.89445 10.4499 5.05646C10.788 5.38062 11.2147 5.79859 11.6405 6.22161C12.0664 6.64465 12.492 7.07325 12.8279 7.4187C13.1591 7.75933 13.4138 8.02969 13.4877 8.12922M9.77223 4.44012L12.1292 9.48774C12.3574 9.65725 12.5916 9.75226 12.8251 9.74937C13.0618 9.74644 13.2755 9.64311 13.4593 9.45933C13.6431 9.27554 13.7464 9.0619 13.7493 8.82513C13.7522 8.59168 13.6572 8.35745 13.4877 8.12922M9.77223 4.44012C9.49111 4.2541 9.06585 4.24786 8.76386 4.41526M9.77223 4.44012L8.44007 5.7723C8.2918 5.54831 8.26203 5.27146 8.32066 5.02453C8.37927 4.77769 8.5301 4.54478 8.76386 4.41526M13.4877 8.12922L13.3673 8.21865L13.4877 8.12921C13.4877 8.12922 13.4877 8.12922 13.4877 8.12922ZM8.76386 4.41526L8.83656 4.54646L8.76384 4.41527C8.76384 4.41526 8.76385 4.41526 8.76386 4.41526ZM10.8743 14.467C11.3897 14.391 11.7171 14.0376 11.7864 13.6387C11.8561 13.2369 11.6595 12.8102 11.1827 12.611L11.1827 12.611C11.1122 12.5816 11.0212 12.5621 10.9019 12.5476C10.7811 12.5328 10.622 12.5222 10.4102 12.5146C9.98639 12.4994 9.33943 12.496 8.34165 12.4996C7.64756 12.5021 6.99911 12.5087 6.51339 12.5174C6.27062 12.5218 6.06795 12.5267 5.92037 12.5318C5.84669 12.5344 5.78588 12.537 5.74034 12.5398C5.70249 12.5421 5.65777 12.5451 5.63033 12.5521L5.63026 12.5521L5.37492 14.1771L5.29067 14.3012C5.42226 14.3905 5.56803 14.4279 5.93598 14.451C6.30589 14.4742 6.93083 14.4837 8.04522 14.4948C8.72277 14.5016 9.37778 14.502 9.88744 14.4973C10.1422 14.4949 10.3612 14.4912 10.5287 14.4863C10.692 14.4816 10.8163 14.4755 10.8743 14.467ZM10.8743 14.467L10.8524 14.3186L10.8743 14.467C10.8743 14.467 10.8743 14.467 10.8743 14.467ZM16.5296 13.1372L16.5712 13.0939L16.7968 12.8584C16.8665 12.7857 16.9495 12.7166 17.0282 12.6627L16.5296 13.1372ZM16.5296 13.1372L16.5295 13.1973L16.5063 24.8524C16.4981 29.0101 16.4985 31.9456 16.5086 33.8683C16.5136 34.8295 16.5211 35.5382 16.5312 36.0202C16.5362 36.261 16.5419 36.4463 16.5484 36.5785C16.5516 36.6445 16.5551 36.6985 16.5588 36.7402C16.5622 36.7773 16.5667 36.8171 16.5752 36.8462C16.6335 37.0475 16.7677 37.2234 16.9318 37.3484C17.0958 37.4733 17.3002 37.5556 17.5082 37.5559C17.5927 37.556 17.6744 37.5452 17.7856 37.4961C17.8894 37.4502 18.0181 37.3714 18.2024 37.242C18.5722 36.9826 19.198 36.4963 20.3538 35.592C21.2319 34.9051 21.7174 34.5308 21.9945 34.3425C22.1052 34.2673 22.1732 34.2285 22.2143 34.2101C22.2211 34.2216 22.229 34.2351 22.2381 34.2506C22.2683 34.3023 22.3099 34.3746 22.3617 34.4653C22.4651 34.6466 22.6085 34.9004 22.7814 35.2081C23.1273 35.8235 23.5909 36.654 24.0887 37.551C25.023 39.2345 25.5216 40.1239 25.8459 40.5904C26.0075 40.8229 26.1373 40.9678 26.2693 41.0512C26.4107 41.1403 26.5402 41.1499 26.668 41.1499C26.6984 41.1499 26.7284 41.1416 26.7437 41.1372C26.7642 41.1312 26.788 41.1231 26.8139 41.1137C26.8659 41.0947 26.9335 41.0673 27.0138 41.0332C27.175 40.9649 27.3935 40.8666 27.6533 40.7459C28.1733 40.5046 28.8622 40.172 29.5949 39.8064C31.0384 39.0862 31.8088 38.6958 32.2042 38.4142C32.4032 38.2725 32.5294 38.1435 32.5909 37.9947C32.6532 37.844 32.6382 37.6971 32.6171 37.5556C32.6132 37.5295 32.6035 37.5021 32.5962 37.4825C32.5875 37.4593 32.576 37.4319 32.5625 37.4011C32.5353 37.3394 32.4973 37.2588 32.4501 37.1625C32.3555 36.9695 32.2218 36.7085 32.0591 36.3985C31.7335 35.7782 31.29 34.9588 30.8072 34.0898L29.1758 31.1535L31.7215 31.1332L34.5199 31.1108L34.5786 31.1104L34.6214 31.0702L34.8217 30.8819C35.14 30.5827 35.2259 30.0998 35.0209 29.7192L34.8888 29.7903L35.0209 29.7192C35.0101 29.6991 34.9938 29.679 34.9842 29.6673C34.9768 29.6583 34.9683 29.6483 34.9587 29.6372C34.9517 29.6291 34.9441 29.6205 34.9361 29.6114C34.8976 29.5682 34.8442 29.5103 34.7775 29.4393C34.6438 29.297 34.4536 29.099 34.2155 28.8537C33.7391 28.3629 33.0687 27.6809 32.2693 26.8725C30.6705 25.2557 28.5545 23.1322 26.4395 21.0196C24.3244 18.907 22.2101 16.805 20.6145 15.231C19.8167 14.4441 19.1484 13.7889 18.6744 13.3303C18.4374 13.1011 18.2485 12.9205 18.1161 12.7969C18.05 12.7353 17.997 12.6869 17.9587 12.6535C17.9398 12.6371 17.9227 12.6227 17.9086 12.6119C17.9018 12.6067 17.8931 12.6002 17.8838 12.5944C17.8792 12.5916 17.8716 12.5871 17.8621 12.5827L17.8617 12.5826C17.8559 12.58 17.831 12.5687 17.7977 12.5687C17.7375 12.5687 17.6462 12.5571 17.604 12.5457L17.6038 12.5457C17.5548 12.5325 17.4937 12.5294 17.4406 12.5302C17.3845 12.531 17.3226 12.5366 17.2671 12.5473L16.5296 13.1372ZM29.709 12.6986C29.5757 12.6081 29.4288 12.5714 29.0379 12.5494C28.6441 12.5272 27.9709 12.5195 26.7587 12.5111C25.697 12.5037 25.0179 12.5045 24.5795 12.518C24.3604 12.5248 24.1981 12.5348 24.0766 12.5492C23.9571 12.5634 23.8663 12.5828 23.7967 12.6136L23.7967 12.6136C23.3296 12.8208 23.1419 13.2478 23.2156 13.6465C23.2888 14.0425 23.6154 14.3918 24.1254 14.467C24.1834 14.4755 24.3077 14.4816 24.471 14.4863C24.6385 14.4912 24.8575 14.4949 25.1122 14.4973C25.6219 14.502 26.2769 14.5016 26.9545 14.4948C28.0689 14.4837 28.6938 14.4742 29.0637 14.451C29.4317 14.4279 29.5774 14.3905 29.709 14.3012M29.709 12.6986L29.6255 12.8217L29.709 12.6986C29.709 12.6986 29.709 12.6986 29.709 12.6986ZM29.709 12.6986C29.9824 12.8841 30.1121 13.1975 30.1121 13.4999C30.1121 13.8023 29.9824 14.1157 29.709 14.3012M29.709 14.3012L29.6248 14.1771M29.709 14.3012C29.709 14.3012 29.709 14.3012 29.709 14.3012L29.6248 14.1771M29.6248 14.1771C30.0745 13.8719 30.0745 13.128 29.6248 12.8227C29.432 12.6919 29.1857 12.678 26.7577 12.6611C24.6334 12.6463 24.0526 12.6643 23.8575 12.7508C23.0505 13.1087 23.2496 14.1862 24.1473 14.3186C24.3369 14.3465 25.5995 14.3583 26.953 14.3448C29.1854 14.3225 29.4335 14.3069 29.6248 14.1771ZM26.5759 30.4607C26.5851 30.485 26.6079 30.5307 26.6356 30.5845C26.6653 30.6425 26.7063 30.7203 26.7569 30.8154C26.8582 31.0056 26.9992 31.2665 27.1696 31.579C27.5104 32.2042 27.9693 33.0372 28.4641 33.9273C28.9587 34.8169 29.4132 35.6385 29.7471 36.2456C29.9141 36.5492 30.0508 36.7989 30.1472 36.9766C30.1954 37.0656 30.2334 37.1361 30.26 37.1863C30.2618 37.1897 30.2636 37.193 30.2653 37.1961C30.2181 37.2331 30.1389 37.285 30.0174 37.3556C29.7578 37.5067 29.331 37.7289 28.6812 38.0541C28.2048 38.2924 27.7695 38.5063 27.452 38.6587C27.2932 38.735 27.1645 38.7956 27.0753 38.8361C27.0691 38.8389 27.0631 38.8417 27.0573 38.8443C27.0335 38.802 27.0036 38.7484 26.9678 38.6843C26.8712 38.511 26.7328 38.2619 26.5629 37.9553C26.2231 37.3422 25.7575 36.4997 25.2481 35.5759C24.7383 34.6513 24.249 33.7863 23.8714 33.1372C23.6826 32.8128 23.5213 32.5417 23.3991 32.3438C23.3381 32.245 23.2861 32.1634 23.2451 32.1022C23.2081 32.0472 23.1704 31.9937 23.1402 31.9651L23.1402 31.9651C22.8204 31.6628 22.3039 31.6202 21.9436 31.8698C21.8327 31.9466 21.0905 32.5187 20.2981 33.1377C19.5031 33.7587 18.7211 34.3693 18.56 34.4947L18.6522 34.613L18.56 34.4947L18.5092 34.5343V25.2059V15.9326L25.1285 22.5515L31.7532 29.1758L29.6152 29.2093C28.4705 29.2272 27.8391 29.2399 27.4759 29.2653C27.1187 29.2902 26.9796 29.328 26.8633 29.4334C26.7225 29.5609 26.6227 29.7376 26.5712 29.9168C26.5201 30.0948 26.5119 30.2923 26.5759 30.4607ZM26.5759 30.4607L26.7162 30.4075L26.576 30.4608C26.576 30.4608 26.5759 30.4608 26.5759 30.4607ZM17.0865 0.974146L17.087 0.973911L17.087 0.973901L17.1483 1.11083L17.0865 0.974146ZM17.0865 0.974146C16.976 1.02358 16.8588 1.07599 16.7683 1.17852M17.0865 0.974146L16.7683 1.17852M16.7683 1.17852C16.6755 1.28381 16.6243 1.42445 16.5912 1.62137M16.7683 1.17852L16.5912 1.62137M16.5912 1.62137C16.5263 2.008 16.5183 2.70713 16.5049 4.04527M16.5912 1.62137L16.5049 4.04527M16.5049 4.04527C16.4982 4.72283 16.4977 5.37783 16.5025 5.88749M16.5049 4.04527L16.5025 5.88749M16.5025 5.88749C16.5049 6.14226 16.5086 6.36123 16.5134 6.52879M16.5025 5.88749L16.5134 6.52879M16.5134 6.52879C16.5182 6.69204 16.5242 6.81636 16.5328 6.87437M16.5134 6.52879L16.5328 6.87437M16.5328 6.87437C16.6211 7.47364 17.051 7.79724 17.4998 7.79724M16.5328 6.87437L17.4998 7.79724M17.4998 7.79724C17.9486 7.79724 18.3785 7.47364 18.4669 6.87436M17.4998 7.79724L18.4669 6.87436M18.4669 6.87436C18.4755 6.81635 18.4815 6.69204 18.4863 6.52879M18.4669 6.87436C18.4669 6.87436 18.4669 6.87436 18.4669 6.87437L18.4863 6.52879M18.4863 6.52879C18.4911 6.36123 18.4948 6.14226 18.4972 5.88749M18.4863 6.52879L18.4972 5.88749M18.4972 5.88749C18.502 5.37783 18.5015 4.72283 18.4948 4.04527M18.4972 5.88749L18.4948 4.04527M18.4948 4.04527C18.4812 2.69021 18.4722 1.97583 18.3992 1.58188M18.4948 4.04527L18.3992 1.58188M18.3992 1.58188C18.3619 1.38063 18.3039 1.23642 18.1991 1.13214M18.3992 1.58188L18.1991 1.13214M18.1991 1.13214C18.098 1.03143 17.9684 0.985294 17.8449 0.942244L18.1991 1.13214ZM25.0979 4.5433C24.9984 4.61722 24.728 4.87186 24.3874 5.2031M25.0979 4.5433L25.187 4.66322L25.0979 4.54331C25.0979 4.54331 25.0979 4.5433 25.0979 4.5433ZM25.0979 4.5433C25.5876 4.17957 26.1206 4.24576 26.4373 4.56243C26.754 4.87911 26.8202 5.41215 26.4564 5.90183M24.3874 5.2031L22.6582 9.46584C21.9404 9.94092 21.0588 9.05935 21.5339 8.34154C21.7211 8.05873 24.8298 4.92927 25.1873 4.66373C26.0588 4.01638 26.9834 4.94091 26.336 5.8124L26.4564 5.90183M24.3874 5.2031C24.0419 5.53903 23.6133 5.96459 23.1903 6.39045M24.3874 5.2031L23.1903 6.39045M26.4564 5.90183C26.3825 6.00136 26.1279 6.27172 25.7966 6.61235M26.4564 5.90183L25.7966 6.61235M23.1903 6.39045C22.7673 6.81629 22.3493 7.24296 22.0252 7.58111M23.1903 6.39045L22.0252 7.58111M22.0252 7.58111C21.8631 7.75012 21.7241 7.89753 21.6193 8.0119M22.0252 7.58111L21.6193 8.0119M21.6193 8.0119C21.5188 8.12172 21.4402 8.21133 21.4088 8.25875M21.6193 8.0119L21.4088 8.25875M21.4088 8.25875C20.8436 9.11283 21.8869 10.1562 22.741 9.59092M21.4088 8.25875L22.741 9.59092M22.741 9.59092C22.7884 9.55953 22.878 9.48096 22.9878 9.3804M22.741 9.59092L22.9878 9.3804M22.9878 9.3804C23.1022 9.27567 23.2496 9.1366 23.4186 8.97459M22.9878 9.3804L23.4186 8.97459M23.4186 8.97459C23.7568 8.65043 24.1834 8.23246 24.6093 7.80943M23.4186 8.97459L24.6093 7.80943M24.6093 7.80943C25.0352 7.3864 25.4607 6.9578 25.7966 6.61235M24.6093 7.80943L25.7966 6.61235M8.44007 21.2275L8.54725 21.2984L8.44007 21.2275C8.15761 21.6543 8.28735 22.1309 8.57809 22.4217C8.86883 22.7124 9.34545 22.8421 9.77224 22.5597C9.81966 22.5283 9.90927 22.4497 10.0191 22.3492C10.1335 22.2444 10.2809 22.1054 10.4499 21.9433C10.788 21.6192 11.2147 21.2012 11.6405 20.7782C12.0664 20.3552 12.492 19.9266 12.8279 19.5811C13.1591 19.2405 13.4138 18.9701 13.4877 18.8706C13.6572 18.6424 13.7522 18.4081 13.7493 18.1747C13.7464 17.9379 13.6431 17.7243 13.4593 17.5405C13.2755 17.3567 13.0618 17.2534 12.8251 17.2504C12.5916 17.2475 12.3574 17.3426 12.1292 17.5121C12.0296 17.586 11.7593 17.8406 11.4186 18.1719C11.0732 18.5078 10.6446 18.9333 10.2216 19.3592C9.79854 19.7851 9.38057 20.2117 9.05641 20.5499C8.89439 20.7189 8.75532 20.8663 8.65059 20.9807C8.55003 21.0905 8.47146 21.1801 8.44007 21.2275Z" fill="black" stroke="black" stroke-width="0.3"/>
</svg>
