<svg width="40" height="40" viewBox="0 0 40 40" fill="none" xmlns="http://www.w3.org/2000/svg">
<path d="M37.5004 6.62671H32.357C32.0274 6.62678 31.7053 6.72457 31.4313 6.90771C31.1572 7.09085 30.9437 7.35112 30.8176 7.65562C30.6914 7.96012 30.6584 8.29517 30.7227 8.61843C30.787 8.94168 30.9457 9.23862 31.1787 9.47171L32.9887 11.2817L27.012 17.2567C26.6945 17.5602 26.2721 17.7296 25.8329 17.7296C25.3936 17.7296 24.9712 17.5602 24.6537 17.2567L24.3704 16.9717C23.418 16.0618 22.1516 15.5541 20.8345 15.5541C19.5174 15.5541 18.251 16.0618 17.2987 16.9717L8.79869 25.4717C8.48551 25.7858 8.30992 26.2114 8.31055 26.6549C8.31117 27.0984 8.48796 27.5235 8.80202 27.8367C9.11608 28.1499 9.54169 28.3255 9.98521 28.3249C10.4287 28.3242 10.8538 28.1474 11.167 27.8334L19.667 19.3334C19.9844 19.0295 20.4068 18.8599 20.8462 18.8599C21.2856 18.8599 21.708 19.0295 22.0254 19.3334L22.3087 19.6184C23.2614 20.5275 24.5277 21.0347 25.8445 21.0347C27.1614 21.0347 28.4277 20.5275 29.3804 19.6184L35.357 13.6417L37.167 15.4517C37.4009 15.681 37.6971 15.8362 38.0187 15.8981C38.3403 15.96 38.673 15.9258 38.9753 15.7997C39.2775 15.6737 39.5359 15.4614 39.7182 15.1893C39.9006 14.9173 39.9987 14.5975 40.0004 14.27V9.12671C40.0004 8.46367 39.737 7.82778 39.2681 7.35894C38.7993 6.8901 38.1634 6.62671 37.5004 6.62671Z" />
<path d="M38.3333 36.6267H8.33333C7.00725 36.6267 5.73548 36.0999 4.7978 35.1622C3.86012 34.2245 3.33333 32.9527 3.33333 31.6267V1.66667C3.33333 1.22464 3.15774 0.800716 2.84518 0.488155C2.53262 0.175595 2.10869 0 1.66667 0C1.22464 0 0.800716 0.175595 0.488155 0.488155C0.175595 0.800716 0 1.22464 0 1.66667L0 31.6267C0.00264643 33.836 0.88147 35.9541 2.4437 37.5163C4.00593 39.0785 6.12401 39.9574 8.33333 39.96H38.3333C38.7754 39.96 39.1993 39.7844 39.5118 39.4718C39.8244 39.1593 40 38.7354 40 38.2933C40 37.8513 39.8244 37.4274 39.5118 37.1148C39.1993 36.8023 38.7754 36.6267 38.3333 36.6267Z" />
</svg>
