<svg width="40" height="41" viewBox="0 0 40 41" fill="none" xmlns="http://www.w3.org/2000/svg">
<path d="M40 27.0002V40.3335H26.6667C24.3285 40.3311 22.0321 39.7139 20.0078 38.5438C17.9834 37.3736 16.3024 35.6917 15.1333 33.6668C16.3898 33.6578 17.642 33.5193 18.87 33.2535C19.8052 34.4229 20.9917 35.3669 22.3413 36.0154C23.691 36.664 25.1693 37.0006 26.6667 37.0002H36.6667V27.0002C36.6663 25.5022 36.3287 24.0236 35.6789 22.6739C35.0292 21.3242 34.084 20.1381 32.9133 19.2035C33.1814 17.9757 33.3222 16.7235 33.3333 15.4668C35.3582 16.6359 37.0401 18.3169 38.2103 20.3412C39.3804 22.3656 39.9976 24.662 40 27.0002ZM30 15.3335C30 11.3552 28.4196 7.53994 25.6066 4.72689C22.7936 1.91385 18.9782 0.333496 15 0.333496C11.0218 0.333496 7.20644 1.91385 4.3934 4.72689C1.58035 7.53994 0 11.3552 0 15.3335L0 30.3335H15C18.9769 30.3291 22.7896 28.7473 25.6017 25.9352C28.4138 23.1231 29.9956 19.3104 30 15.3335ZM3.33333 15.3335C3.33333 13.026 4.01757 10.7704 5.29952 8.85184C6.58147 6.93327 8.40355 5.43792 10.5354 4.5549C12.6672 3.67188 15.0129 3.44084 17.2761 3.891C19.5392 4.34116 21.618 5.4523 23.2496 7.08392C24.8812 8.71553 25.9923 10.7943 26.4425 13.0574C26.8927 15.3206 26.6616 17.6663 25.7786 19.7981C24.8956 21.9299 23.4002 23.752 21.4817 25.034C19.5631 26.3159 17.3074 27.0002 15 27.0002H3.33333V15.3335Z" />
</svg>
