<svg width="25" height="18" viewBox="0 0 25 18" fill="none" xmlns="http://www.w3.org/2000/svg">
<path fill-rule="evenodd" clip-rule="evenodd" d="M1.88658 0.897077C1.79269 0.951499 1.67386 1.0723 1.62258 1.16553C1.57125 1.25872 1.18519 2.37205 0.764625 3.6395L0 5.94406L0.400172 8.73955C0.726609 11.0202 0.817219 11.5583 0.892172 11.6616C0.97875 11.7808 3.42595 13.6595 4.01962 14.0625L4.2945 14.249H5.75536H7.21622L7.51955 14.5588C7.68638 14.7292 7.89075 14.898 7.97372 14.9338C8.07764 14.9787 8.31956 14.999 8.75138 14.999H9.37819L10.0664 16.0316C10.5286 16.7252 10.8042 17.0944 10.9059 17.1564C11.0433 17.2402 11.1449 17.2487 12.0088 17.2489C13.0064 17.249 13.1116 17.2309 13.2971 17.0258C13.343 16.9752 13.524 16.5036 13.6993 15.9781L14.0181 15.0225L14.4679 14.999C15.0064 14.9709 15.115 14.9095 15.3229 14.5157L15.4635 14.2493L16.6123 14.2492L17.7612 14.249L18.8154 15.3069C19.3953 15.8886 19.9267 16.3949 19.9963 16.4319C20.1462 16.5114 20.3976 16.5188 20.5815 16.449C20.6541 16.4215 21.0879 16.0268 21.5454 15.5719C22.4316 14.6909 22.5594 14.5063 22.5003 14.1925C22.4843 14.1076 22.2182 13.6584 21.9089 13.1944C21.1691 12.0846 21.1704 12.1709 21.8824 11.4436C22.1772 11.1424 22.4409 10.8369 22.4683 10.7648C22.4984 10.6856 22.5182 10.1984 22.5182 9.53614V8.4387L23.2682 6.93509L24.0182 5.43148V3.76236V2.09323L23.9023 1.89551C23.7411 1.62036 23.5356 1.54592 22.9376 1.54592C22.6209 1.54592 22.4116 1.56945 22.294 1.61834C22.1761 1.66733 21.5358 2.2737 20.3143 3.49334L18.5088 5.29592H18.1716H17.8343L17.7879 5.12014C17.7625 5.02348 17.6156 4.44008 17.4616 3.82367C17.3043 3.19386 17.1435 2.65189 17.0945 2.58626C16.9023 2.32883 16.7593 2.29592 15.8316 2.29592H14.9794L14.9636 1.76014C14.946 1.16075 14.8973 1.0445 14.5955 0.882686C14.4404 0.799483 14.1798 0.795968 8.2455 0.796999L2.05725 0.798077L1.88658 0.897077Z" fill="#ABACC7"/>
</svg>
