<svg width="22" height="12" viewBox="0 0 22 12" fill="none" xmlns="http://www.w3.org/2000/svg">
<path fill-rule="evenodd" clip-rule="evenodd" d="M21.4397 6.09944C21.3813 5.95736 21.2985 5.80636 21.2558 5.76384C21.213 5.72137 20.9843 5.58817 20.7477 5.4678L20.3173 5.249L19.7251 5.25087C19.0661 5.25296 18.7677 5.19086 18.5738 5.01114C18.3895 4.84034 18.4182 4.69482 18.6977 4.38159C19.0268 4.0127 19.0242 3.91744 18.6759 3.59111C18.5323 3.45656 18.4148 3.31618 18.4148 3.27914C18.4148 3.18167 18.648 2.99107 19.306 2.55068C19.6257 2.33671 19.8999 2.1411 19.9154 2.11595C19.9477 2.06373 19.7696 1.65359 19.6287 1.45572C19.5505 1.34602 19.513 1.32739 19.4109 1.3478C19.1215 1.40568 18.6531 1.77352 18.2418 2.26591C17.9009 2.67409 17.4921 3.00055 17.0441 3.22231L16.7395 3.37314L15.5171 3.44063C13.7021 3.54085 13.2245 3.61496 13.025 3.82736C12.9657 3.89046 12.8925 4.06936 12.842 4.2748C12.7743 4.55 12.7287 4.64421 12.6096 4.75535C12.4028 4.94834 12.2187 4.99199 11.4994 5.01867L10.8719 5.0419L10.7596 4.9121C10.6979 4.84073 10.1969 4.49234 9.64646 4.1379C9.09599 3.7835 8.58965 3.44281 8.52124 3.3808C8.45284 3.31883 8.21572 2.99394 7.99436 2.65886C7.48975 1.89506 7.25416 1.63157 6.93715 1.47648L6.69064 1.35585L5.34005 1.34832C3.66736 1.33901 2.96824 1.25441 1.91043 0.933263L1.61553 0.84375L1.36649 0.967989C1.03603 1.13292 0.567457 1.6005 0.465719 1.86691C0.357931 2.14911 0.394918 2.56073 0.591 3.26126C0.730553 3.75987 0.878113 4.17184 1.38206 5.46932C1.48337 5.73025 1.56644 6.08055 1.65743 6.63104C1.80643 7.53204 1.87266 7.69732 2.17109 7.91242C3.70901 9.021 4.30717 9.44755 4.59868 9.64333C4.79015 9.77196 5.22373 10.1036 5.56224 10.3803C6.24713 10.9402 6.5795 11.1578 6.80634 11.1946C6.94146 11.2165 6.97096 11.2029 7.0687 11.0731C7.12923 10.9928 7.26143 10.7311 7.36247 10.4918C7.59628 9.93789 7.72221 9.72326 7.91042 9.55803C8.10859 9.38401 8.31167 9.38497 8.79791 9.56212C9.34155 9.76021 9.58841 9.82187 9.72183 9.79298C9.78719 9.77879 9.92392 9.6757 10.0256 9.56382C10.3751 9.1794 10.8216 8.76556 11.0021 8.65885L11.1827 8.55206L11.6548 8.70429C12.2563 8.89828 12.6442 8.98906 12.8755 8.98984C13.073 8.99054 13.3665 8.87161 14.4749 8.34184L15.126 8.03065L15.4975 8.1904C16.0022 8.40737 16.4467 8.55533 16.5937 8.55533C16.6796 8.55533 16.7576 8.50777 16.8581 8.39406C17.2862 7.9095 17.4024 7.80537 17.6487 7.68535C18.1216 7.45493 18.4012 7.40476 19.2198 7.40336L19.9596 7.40215L20.1772 7.5451C20.5974 7.82116 20.9961 7.85955 21.116 7.63548C21.2405 7.40284 21.5478 6.5739 21.5469 6.47311C21.5463 6.40967 21.498 6.24152 21.4397 6.09944Z" fill="#ABACC7"/>
</svg>
