<svg width="20" height="22" viewBox="0 0 20 22" fill="none" xmlns="http://www.w3.org/2000/svg">
<path fill-rule="evenodd" clip-rule="evenodd" d="M11.1465 0.761663C10.9473 0.826257 10.5521 0.977958 10.2684 1.09879C9.98472 1.21962 9.65469 1.33952 9.53508 1.36518C9.41547 1.39085 9.20659 1.48405 9.07088 1.57227C8.53414 1.92125 7.55541 2.90282 7.33276 3.31546C7.26003 3.45027 7.24754 3.55444 7.24754 4.02766C7.24754 4.34619 7.28223 4.82513 7.32914 5.15381C7.40286 5.67053 7.40571 5.78765 7.35863 6.36895C7.21839 8.10042 6.96068 9.13636 6.49081 9.85691C6.39476 10.0042 6.14561 10.4508 5.93712 10.8495C5.35645 11.9598 5.26731 12.0548 3.97593 12.9391C3.24869 13.4371 3.00772 13.676 3.00772 13.8991C3.00772 14.0552 3.14352 14.1595 3.72449 14.4496C4.24762 14.7109 4.52703 14.9487 4.56806 15.1676C4.59214 15.296 4.58063 15.3328 4.49481 15.4023C4.35892 15.5125 4.13142 15.4842 3.38884 15.265C2.40281 14.974 2.30753 14.9778 2.11421 15.3163C1.83135 15.8116 1.84776 16.3221 2.15541 16.6003C2.35372 16.7795 2.50776 16.8138 2.99907 16.7881C3.3017 16.7722 3.45557 16.736 3.83562 16.5911C4.4597 16.3532 4.55251 16.3563 4.8164 16.6244C4.93051 16.7404 5.12056 16.8768 5.23868 16.9277C5.64847 17.104 6.20685 17.0751 6.3778 16.8686C6.41999 16.8177 6.51177 16.7078 6.58178 16.6244C6.65175 16.5411 6.81082 16.4175 6.9352 16.3498C7.2354 16.1863 7.48429 16.1836 7.71635 16.3414C7.92455 16.483 8.13799 16.4898 8.73331 16.3743C9.42536 16.2399 9.5416 16.2987 9.80439 16.9158C10.121 17.6596 10.2019 17.7318 10.6278 17.6514C10.8539 17.6087 10.9677 17.6081 11.1688 17.6486C11.5275 17.7207 12.0095 17.9668 12.1956 18.1729L12.3512 18.3453L12.3262 18.6692C12.2968 19.0501 12.1167 19.9459 11.9931 20.3259C11.9075 20.5888 11.9074 20.595 11.9868 20.731C12.1657 21.0375 12.7495 21.3594 13.1267 21.3594C13.3026 21.3594 13.3362 21.3384 13.6775 21.015C14.0751 20.6385 14.2337 20.4212 14.1966 20.3042C14.1833 20.2624 13.999 20.0982 13.787 19.9393C13.3806 19.6348 13.2348 19.4546 13.2346 19.2567C13.2342 19.0137 13.3728 18.9001 13.8668 18.7383C14.261 18.6093 14.5764 18.2367 14.5472 17.9346L14.5341 17.7992L14.1719 17.813C13.9727 17.8206 13.7569 17.8067 13.6925 17.7821C13.4638 17.6948 13.545 17.6008 14.1932 17.2016C14.6574 16.9158 14.885 16.699 14.9416 16.4888C15.0367 16.1351 14.8904 15.7229 14.4506 15.106C14.1225 14.6456 13.9244 14.1951 13.8078 13.644C13.6936 13.1041 13.838 13.0344 15.06 13.0388C15.8207 13.0416 16.3732 12.9759 16.7285 12.8402C16.8565 12.7914 17.6234 12.2044 17.6234 12.1553C17.6234 12.1363 17.5485 12.0983 17.4569 12.0709C17.3609 12.0421 17.2325 11.955 17.1539 11.8654C17.0357 11.7307 17.0205 11.6872 17.0402 11.5401C17.0719 11.3031 17.268 11.0515 17.5865 10.8391C17.7357 10.7396 17.901 10.6283 17.9539 10.5918C18.0067 10.5553 18.0904 10.446 18.1399 10.3489C18.2498 10.1334 18.3891 9.48035 18.3898 9.17686C18.3905 8.91998 18.2874 8.62736 18.175 8.5672C18.1325 8.54444 17.9136 8.5258 17.6887 8.5258C17.234 8.5258 17.0688 8.47613 16.8911 8.28589C16.7399 8.12408 16.6859 7.97059 16.6859 7.70198C16.6859 7.3145 16.8415 6.99089 17.0279 6.99089C17.0672 6.99089 17.2694 7.07633 17.4774 7.18079C17.6854 7.28525 17.9475 7.39278 18.0599 7.41977C18.3408 7.48718 18.3903 7.43981 18.3907 7.10294C18.3911 6.75464 18.5159 6.25328 18.7316 5.73312C19.0478 4.97078 19.1089 4.79017 19.1812 4.40606C19.2791 3.88559 19.2458 3.57921 19.0485 3.18529C18.8242 2.73731 18.6587 2.5587 18.1682 2.23509C17.6463 1.89072 17.3381 1.5871 17.1876 1.26925C17.0533 0.985377 16.9249 0.918224 16.5662 0.94419C16.3776 0.957833 16.1969 1.01949 15.8098 1.20231C15.1613 1.50853 15.063 1.53283 14.4701 1.53355C14.2006 1.53385 13.8075 1.55321 13.5966 1.57653C13.2561 1.61418 13.1606 1.64594 12.7444 1.85972C12.0539 2.21433 11.9041 2.32284 11.3035 2.90316L10.7575 3.43075L10.6318 4.00634C10.442 4.87582 10.3955 5.28288 10.4688 5.43274C10.5913 5.68298 10.9046 5.79707 11.4693 5.79707C11.6171 5.79707 11.7491 5.81498 11.7626 5.83689C11.7761 5.85881 11.755 6.07084 11.7156 6.30803C11.6278 6.83727 11.6342 6.85433 12.1211 7.38379C12.5062 7.8026 12.5819 7.91666 12.5174 7.98116C12.4937 8.00491 12.2954 8.04158 12.0767 8.06269C11.5872 8.10988 11.2463 8.17601 11.0969 8.25272C11.0345 8.28474 10.8097 8.51067 10.5974 8.75476C10.1416 9.27864 9.98148 9.42117 9.84891 9.42117C9.75389 9.42117 9.7504 9.40714 9.72935 8.94151C9.71192 8.55578 9.68942 8.42846 9.61434 8.2913C9.537 8.15001 9.52417 8.07164 9.53964 7.83432C9.55779 7.55565 9.64387 7.34533 9.75342 7.31194C9.78137 7.30342 9.94112 7.2566 10.1084 7.20783C10.4208 7.11684 10.6777 6.93423 10.6777 6.80321C10.6777 6.76569 10.5579 6.64443 10.4114 6.53374C9.81244 6.08107 9.64383 5.85928 9.54876 5.39906C9.51237 5.22276 9.36519 5.10892 8.99831 4.97325C8.80132 4.90038 8.64826 4.8152 8.61033 4.7573C8.3787 4.40358 8.59278 3.41216 8.98126 3.03947C9.20996 2.82007 10.565 1.93353 10.8124 1.84147C10.9375 1.79491 11.1262 1.74256 11.2317 1.72516C11.7366 1.64194 12.1265 1.2814 12.1265 0.897716C12.1265 0.611668 11.7642 0.561357 11.1465 0.761663ZM1.0344 17.3567C0.998645 17.4125 0.918323 17.6274 0.855855 17.8343C0.752948 18.1751 0.747068 18.2304 0.793259 18.423C0.821297 18.54 0.891691 18.6921 0.949727 18.761C1.10232 18.9425 1.26015 18.9279 1.62852 18.6986C2.03401 18.4461 2.26275 18.3322 2.36438 18.3322C2.41082 18.3322 2.55408 18.4244 2.68277 18.5371C3.11557 18.916 3.66304 19.116 3.99737 19.0174C4.25018 18.9428 4.60223 18.736 4.80515 18.5429C4.95898 18.3964 4.97278 18.3665 4.94483 18.2391C4.92774 18.1613 4.87427 18.0163 4.82599 17.9169C4.75738 17.7756 4.7097 17.7313 4.60799 17.7144C4.39881 17.6796 3.31145 17.678 2.98642 17.712C2.69432 17.7426 2.6768 17.7386 2.14063 17.5216C1.79134 17.3803 1.50372 17.2919 1.34627 17.2777C1.1206 17.2572 1.0938 17.264 1.0344 17.3567Z" fill="#ABACC7"/>
</svg>
