<svg width="20" height="20" viewBox="0 0 20 20" fill="none" xmlns="http://www.w3.org/2000/svg">
<path fill-rule="evenodd" clip-rule="evenodd" d="M7.50644 0.817177C6.93681 0.958552 6.56852 1.09088 5.67831 1.47394C4.57586 1.94836 3.58891 2.42869 3.28033 2.64099C2.99106 2.83997 2.6567 2.94507 1.72441 3.12994C0.682938 3.33647 0.563969 3.37388 0.425547 3.53841C0.265328 3.72877 0.279578 3.9068 0.498625 4.45276C0.719172 5.00251 0.740453 5.30963 0.591297 5.79244C0.519766 6.0241 0.437406 6.16411 0.256047 6.36254L0.015625 6.6256L0.321672 6.91594C1.00713 7.5661 1.12773 8.14515 0.967281 10.0159C0.836172 11.5451 1.04823 12.6294 1.5707 13.1015C1.67453 13.1952 2.10545 13.5032 2.52836 13.7859C3.38064 14.3557 3.87381 14.7766 3.8733 14.934C3.87316 14.9892 3.83111 15.0976 3.77988 15.175C3.63831 15.3887 3.66259 15.5312 3.89434 15.846C4.1087 16.1371 4.43167 16.3703 4.62067 16.3703C4.79983 16.3703 4.98803 16.1133 5.12088 15.6871C5.18809 15.4716 5.27092 15.2722 5.305 15.2439C5.40742 15.1589 5.61841 15.3045 5.96767 15.7012C6.45888 16.2591 6.71725 16.4924 7.20175 16.8155C7.65269 17.1163 8.44136 17.5304 8.75697 17.6322C9.01539 17.7156 9.42105 17.9941 9.94122 18.4453C10.1975 18.6676 10.5139 18.9087 10.6443 18.9811C10.8598 19.1005 10.9242 19.1125 11.3502 19.1125C11.9067 19.1125 12.9097 18.9809 13.3575 18.8491C13.5333 18.7973 13.8459 18.6838 14.0519 18.5969C14.258 18.51 14.485 18.4261 14.5563 18.4104C14.7506 18.3677 15.0884 18.4597 15.6704 18.7135C16.3386 19.005 16.8976 19.1813 17.2616 19.2153C17.516 19.239 17.5606 19.2302 17.653 19.1378C17.8259 18.9649 17.7296 18.6618 17.2939 18.0066L17.0843 17.6912L17.181 17.4726C17.2342 17.3523 17.4398 16.9866 17.638 16.6598C17.8362 16.333 18.0459 15.9582 18.104 15.8269C18.245 15.5082 18.4282 15.3654 18.8777 15.2234C19.3843 15.0633 19.5101 14.9918 19.6458 14.7869C19.7821 14.581 19.9255 14.1818 19.9695 13.8858C19.997 13.7011 19.9781 13.628 19.8184 13.2998C19.607 12.8655 19.0714 12.0418 18.788 11.7151C18.5574 11.4492 18.5527 11.4014 18.6861 10.675C18.8691 9.67913 18.808 9.48563 18.1736 9.05157C17.9562 8.90283 17.7592 8.74693 17.7358 8.70516C17.6755 8.5973 17.7899 8.48686 18.2181 8.23988C18.678 7.97466 18.8701 7.81201 18.9503 7.6201C19.0519 7.37682 19.0278 7.21397 18.807 6.65386C18.6929 6.36451 18.4822 5.65215 18.3383 5.06958C18.0475 3.89208 17.8038 3.08508 17.609 2.65472C17.3164 2.00794 16.7254 1.87346 15.6861 2.2171L15.2408 2.36433L13.8642 2.25943C12.1201 2.12654 11.806 2.16113 10.3658 2.64511C9.73806 2.85605 9.51944 2.87799 9.34324 2.74777C9.27738 2.69916 9.02702 2.36522 8.78688 2.00569C8.37311 1.38633 7.84024 0.755209 7.73992 0.765755C7.71466 0.768427 7.60956 0.791584 7.50644 0.817177Z" fill="#ABACC7"/>
</svg>
