<svg width="20" height="23" viewBox="0 0 20 23" fill="none" xmlns="http://www.w3.org/2000/svg">
<path fill-rule="evenodd" clip-rule="evenodd" d="M8.37725 0.265571C8.2999 0.288915 7.97454 0.364899 7.65415 0.434415L7.07173 0.560837L6.6005 0.919243C6.25058 1.18535 6.09172 1.34154 5.98353 1.52576C5.82115 1.80237 5.68629 1.89846 5.45693 1.90095C5.26058 1.90306 5.09187 1.81446 4.88759 1.60188C4.69859 1.40529 4.65331 1.39746 4.52398 1.53931C4.40333 1.67168 4.34965 1.84887 4.24709 2.45337C4.20228 2.71765 4.15123 2.93384 4.1337 2.93384C4.08814 2.93384 3.6439 2.45782 3.58264 2.34331C3.55442 2.29057 3.50651 2.10499 3.47619 1.93085C3.44281 1.73895 3.39439 1.60399 3.35337 1.58824C3.25114 1.54901 3.0402 1.77874 2.80189 2.18885C2.50423 2.7012 2.47512 2.71549 1.67056 2.74516C1.00986 2.76954 1.00128 2.77123 0.822966 2.91513C0.563982 3.1241 0.555076 3.30227 0.792122 3.53309C1.18948 3.92004 1.25548 4.07904 1.08819 4.24634C1.00948 4.32504 0.931951 4.34009 0.604951 4.34009C0.119185 4.34009 0.0301227 4.39113 0.0714664 4.64581C0.0874508 4.74434 0.195826 4.98902 0.31231 5.18951C0.555779 5.60848 0.616576 5.82607 0.618544 6.2854C0.622107 7.11241 0.855544 7.27165 1.61956 6.96813C2.0622 6.79231 2.14161 6.78598 2.09961 6.92993C1.98317 7.3294 1.96315 7.52491 2.0195 7.71288C2.1477 8.14081 2.76247 8.23076 2.96553 7.85131C2.99304 7.79998 3.08562 7.48746 3.17126 7.15685C3.40086 6.27096 3.38876 6.28845 3.78392 6.27054C4.34759 6.24504 4.5799 6.36931 5.00787 6.92552C5.14339 7.10163 5.26325 7.20856 5.34462 7.2259C5.71761 7.3054 5.74254 7.34506 6.00664 8.27998C6.26792 9.20473 6.55423 9.77341 7.0325 10.3177C7.49173 10.8402 7.98228 11.2733 8.55115 11.6584C8.80372 11.8294 9.1835 12.1535 9.45537 12.4301C9.75551 12.7355 10.0123 12.9514 10.1693 13.0301C10.4766 13.1844 10.9236 13.2916 11.2632 13.2925C11.5779 13.2934 11.9514 13.3976 12.1229 13.5325C12.192 13.5869 12.3175 13.7715 12.4017 13.9428C12.5757 14.2966 12.7282 14.4219 13.1255 14.5374C13.4465 14.6307 13.6945 14.7535 13.7983 14.8703C13.8409 14.9181 13.8981 15.1049 13.9256 15.2854C13.9884 15.6974 14.0516 15.7534 14.5003 15.7952C14.9696 15.8388 15.0904 15.9201 15.2419 16.2941C15.31 16.4622 15.4337 16.6985 15.5167 16.8192C15.5998 16.94 15.7834 17.285 15.9249 17.5859C16.2637 18.3071 16.2635 18.4867 15.9241 18.262C15.6149 18.0572 15.5264 18.2273 15.7175 18.6592C15.8467 18.9512 15.8124 19.1171 15.5411 19.5133C15.282 19.8918 15.2712 20.0171 15.4825 20.1935C15.7565 20.4223 16.1329 20.4101 16.289 20.1674C16.3649 20.0495 16.9788 18.5285 16.9788 18.4585C16.9788 18.3785 17.2444 18.1818 17.5658 18.0236C17.9228 17.8478 17.9578 17.7725 17.852 17.4084C17.7646 17.1078 17.6367 16.9792 17.1663 16.7188C16.6999 16.4606 16.6038 16.3488 16.6038 16.0647C16.6038 15.7781 16.7056 15.436 16.9442 14.9201C17.1329 14.5121 17.1364 14.5082 17.2795 14.5376C17.6415 14.6119 18.5955 14.9592 18.7157 15.0603C18.789 15.122 18.9666 15.3403 19.1103 15.5454C19.2713 15.7751 19.4037 15.9182 19.4554 15.9182C19.6429 15.9182 19.9319 15.4761 19.9319 15.1894C19.9319 14.9035 19.8046 14.7226 19.2593 14.2339C18.4474 13.5061 18.0045 13.1995 17.7655 13.1995C17.5856 13.1995 16.8913 12.9914 16.3494 12.7751C15.8596 12.5795 15.4788 12.318 15.4788 12.1771C15.4788 12.1482 15.5444 12.0499 15.6246 11.9586C15.7486 11.8174 15.7658 11.7683 15.7399 11.6302C15.7232 11.5409 15.6541 11.402 15.5864 11.3216C15.4447 11.1532 15.4089 11.1532 14.7806 11.3222C14.4972 11.3984 14.298 11.423 14.0688 11.4101C13.7799 11.3937 13.7205 11.3715 13.4252 11.1697C13.2462 11.0474 12.9187 10.778 12.6974 10.571C11.9901 9.90916 11.6351 9.33738 11.6351 8.85991C11.6351 8.74381 11.5951 8.5706 11.5462 8.47493C11.4002 8.18904 10.8536 7.68846 10.2027 7.24451C9.31142 6.63659 9.00612 6.3094 8.99595 5.95141C8.99018 5.74816 9.14051 5.58874 9.43925 5.48135C9.72931 5.37706 9.83248 5.27224 9.76648 5.14891C9.74009 5.09965 9.5802 4.93793 9.41117 4.78952C9.16817 4.57615 9.10381 4.49182 9.10381 4.38659C9.10381 4.1142 9.46601 3.82774 10.0831 3.61212C10.554 3.44763 10.9062 3.41782 11.2055 3.5172C11.3375 3.56107 11.467 3.58357 11.4934 3.56731C11.5564 3.52835 11.5549 3.1557 11.4912 3.01577C11.4636 2.95531 11.3491 2.85026 11.2368 2.78238C11.0571 2.67387 11.0285 2.63341 11.0007 2.44765C10.9833 2.33145 10.929 2.2002 10.8802 2.15595C10.7593 2.04659 10.768 1.9894 10.9285 1.83556C11.004 1.76323 11.0915 1.64187 11.123 1.56588C11.2208 1.32968 11.1174 1.27812 10.4749 1.24273C10.0701 1.22041 9.8502 1.18399 9.64526 1.10529C9.29614 0.971274 8.93679 0.645962 8.86198 0.396118C8.81375 0.235196 8.79162 0.215556 8.66281 0.219118C8.58307 0.221321 8.45459 0.242228 8.37725 0.265571ZM3.29806 12.9335C3.19995 13.0517 3.10381 13.3377 3.10381 13.5112C3.10381 13.6655 3.14084 13.7209 3.42795 13.9957C3.8284 14.3791 3.88306 14.5384 3.94118 15.4928C3.98806 16.2626 3.97329 16.3465 3.71112 16.8012C3.46264 17.2322 3.4625 17.3971 3.71037 17.621C3.90064 17.7929 4.14659 17.8725 4.31872 17.8179C4.4675 17.7707 4.68565 17.5709 4.88862 17.2962C4.98908 17.1602 5.14578 16.9922 5.23686 16.9227C5.39886 16.7991 5.40842 16.7977 5.68161 16.8557C5.9269 16.9077 5.97514 16.9055 6.07845 16.8379C6.25273 16.7237 6.26792 16.5738 6.17525 15.8838C6.09364 15.2765 6.09462 14.8402 6.17914 14.1512C6.19554 14.0173 6.19629 13.8571 6.18078 13.7952C6.13925 13.6297 5.81731 13.2452 5.57412 13.0706C5.28875 12.8657 5.10542 12.8683 4.80814 13.0817C4.25679 13.4775 4.05786 13.52 3.86131 13.2844C3.51603 12.8703 3.4069 12.8024 3.29806 12.9335ZM13.3183 19.3818C12.6897 19.7077 12.0201 19.9429 11.4272 20.0461C11.1355 20.0969 11.1292 20.0957 10.7394 19.9108C10.2437 19.6757 9.94461 19.6099 9.68543 19.6793C9.50848 19.7266 9.47989 19.7207 9.32918 19.6057C9.05168 19.3941 8.93347 19.4433 8.72881 19.8557C8.67125 19.9717 8.59184 20.1034 8.55237 20.1483C8.48703 20.2226 8.49547 20.2522 8.6465 20.4798C8.9165 20.8864 9.41333 21.4569 9.61597 21.593C9.7197 21.6626 9.93697 21.7534 10.0987 21.7946C10.2605 21.8359 10.5691 21.9151 10.7845 21.9707C11.0318 22.0345 11.2649 22.1323 11.4173 22.2361C12.1872 22.7609 13.6116 23.1683 13.7474 22.9026C13.7849 22.8291 13.9661 22.2914 14.008 22.129C14.0307 22.0406 13.9612 21.9268 13.6464 21.5368C13.432 21.2713 13.4991 20.6688 13.8415 19.7854C14.0389 19.276 14.0771 19.1026 13.998 19.0743C13.9699 19.0643 13.6641 19.2026 13.3183 19.3818Z" fill="#ABACC7"/>
</svg>
