<svg width="24" height="14" viewBox="0 0 24 14" fill="none" xmlns="http://www.w3.org/2000/svg">
<path fill-rule="evenodd" clip-rule="evenodd" d="M8.07796 0.711605C7.91394 0.778074 7.85015 0.900933 7.8179 1.21242C7.79934 1.39157 7.75462 1.54921 7.7076 1.60115C7.59843 1.72176 7.28563 1.79184 6.8518 1.79278C6.38849 1.79381 5.89813 1.89675 5.64848 2.04539C5.54184 2.10885 5.2753 2.31993 5.05616 2.51442C4.58826 2.92973 4.27415 3.10898 3.77404 3.24618C3.27304 3.38362 3.11418 3.45562 2.76984 3.70134C2.40862 3.9591 2.24109 3.98601 1.63223 3.88396C1.1586 3.8046 0.936226 3.82584 0.713663 3.97167C0.599851 4.04625 0.594226 4.06692 0.626241 4.29276C0.645085 4.42556 0.663366 4.66167 0.666929 4.81748C0.675272 5.18559 0.747882 5.28989 1.20037 5.58389C1.48612 5.76956 1.60152 5.8792 1.7241 6.08146C1.87715 6.33398 1.87907 6.3434 1.79605 6.43514C1.74913 6.48698 1.6408 6.57262 1.55526 6.6255C1.29759 6.78478 1.30668 6.88687 1.62712 7.42865C1.7834 7.69293 1.96663 8.05682 2.03427 8.23729C2.2971 8.93835 2.28477 8.92635 2.89902 9.0771L3.29709 9.17479L3.47905 9.45604C3.58349 9.61748 4.11234 10.1866 4.72044 10.792C5.96868 12.0346 6.50076 12.6138 6.68371 12.9291C6.86873 13.2481 7.11594 13.3701 7.57696 13.3701C7.82694 13.3701 7.98669 13.3421 8.15854 13.2682C8.41232 13.159 8.45413 13.1631 8.94018 13.344C9.20549 13.4428 9.30023 13.4074 9.46452 13.1482C9.67176 12.8215 9.82673 12.2832 9.88326 11.6935C9.95245 10.9724 10.0495 10.7907 10.2776 10.9546C10.332 10.9937 10.4277 11.0625 10.4903 11.1076C10.5611 11.1585 10.694 11.1906 10.8419 11.1922C11.049 11.1946 11.1254 11.2262 11.4351 11.4376C11.9926 11.8181 12.3729 11.9774 12.7985 12.0087C13.1333 12.0333 13.1747 12.0481 13.3301 12.1988L13.4987 12.3623L13.9532 12.3571C14.2032 12.3543 14.6819 12.3359 15.0171 12.3163C15.5078 12.2876 15.6584 12.294 15.7906 12.3494C15.8808 12.3871 16.1867 12.6146 16.4703 12.8547L16.9859 13.2914L17.0263 13.0847C17.1161 12.6257 17.1639 12.5077 17.334 12.3253C17.4971 12.1505 17.5351 12.1332 17.7974 12.1142C18.0353 12.097 18.158 12.1199 18.5307 12.2513L18.9784 12.4092L19.1538 12.3154C19.2704 12.2532 19.3713 12.143 19.4545 11.9873C19.6499 11.6219 19.9317 11.3738 20.4294 11.129C20.9337 10.881 20.8878 10.9754 20.824 10.3172C20.7886 9.9524 20.9184 9.6959 21.1993 9.57553C21.4146 9.48323 21.4877 9.40401 21.829 8.89354C22.1177 8.46173 22.2751 8.38129 22.8452 8.37454C23.3984 8.36793 23.3843 8.37131 23.3843 8.24531C23.3843 8.10342 23.1731 7.78804 22.7978 7.36949C22.6323 7.18485 22.401 6.85809 22.2839 6.64335C22.1669 6.42857 22.0106 6.20198 21.9367 6.13978C21.8506 6.06731 21.5316 5.94656 21.0481 5.80349L20.294 5.58028L20.0227 5.71349C19.8383 5.80401 19.679 5.84667 19.525 5.84667C19.3284 5.84667 19.2804 5.82646 19.1617 5.69357C18.9855 5.49642 18.9894 5.40351 19.189 5.0467C19.3251 4.80332 19.353 4.70592 19.353 4.47524C19.353 4.25451 19.3333 4.17923 19.257 4.11028C19.1639 4.02595 19.1547 4.0259 18.9406 4.10915C18.5064 4.278 18.2561 4.32932 18.0014 4.30171C17.7049 4.26956 17.556 4.19793 17.1549 3.89423C16.7975 3.62367 16.3818 3.41151 16.2833 3.44934C16.133 3.50699 16.2489 3.89615 16.5239 4.25732C16.5846 4.3371 16.6343 4.42237 16.6343 4.44679C16.6343 4.47121 16.5372 4.58526 16.4184 4.7002C16.2997 4.81514 16.1198 5.01979 16.0186 5.15503C15.9175 5.29026 15.7799 5.43689 15.7128 5.48081C15.594 5.55871 15.5881 5.5575 15.4809 5.43281C15.4204 5.3625 15.3174 5.12971 15.2521 4.91554C15.1176 4.47473 15.0366 4.37854 14.6593 4.21167C14.375 4.0859 14.1968 3.90337 14.1968 3.7379C14.1968 3.68076 14.2492 3.56231 14.3132 3.4747C14.5711 3.12196 14.6183 3.027 14.6185 2.86106C14.6188 2.56106 14.3657 2.45892 14.072 2.64046C13.8788 2.75981 13.8147 2.74748 13.2124 2.47481C12.9675 2.3639 12.5245 2.19346 12.228 2.09596C11.5962 1.88821 11.3811 1.75396 11.1032 1.39373C10.8719 1.09387 10.4376 0.76073 10.278 0.76073C10.1842 0.76073 10.1743 0.778964 10.1949 0.913074C10.2135 1.03448 10.1893 1.10015 10.0753 1.23646C9.90459 1.44042 9.52935 1.69823 9.40307 1.69823C9.30721 1.69823 8.68902 1.07137 8.57671 0.860199C8.54071 0.792605 8.48798 0.721777 8.45952 0.702839C8.39226 0.65812 8.19899 0.662527 8.07796 0.711605Z" fill="#ABACC7"/>
</svg>
