<svg width="18" height="24" viewBox="0 0 18 24" fill="none" xmlns="http://www.w3.org/2000/svg">
<path fill-rule="evenodd" clip-rule="evenodd" d="M7.14242 0.701664C6.92328 0.862164 6.48692 1.4743 6.34498 1.82034C6.27622 1.98791 6.13887 2.31993 6.03973 2.55819C5.89494 2.9061 5.85856 3.05371 5.85481 3.30819C5.84806 3.76879 5.79702 4.13062 5.73584 4.15077C5.70655 4.16043 5.54558 3.98282 5.37814 3.75609C5.04626 3.30665 4.85731 3.1123 4.70876 3.06763C4.52211 3.01152 4.0782 3.44999 4.0782 3.69046C4.0782 3.71868 4.26172 3.93262 4.48601 4.16587C5.02653 4.72804 5.25008 5.03038 5.25008 5.19932C5.25008 5.27371 5.17625 5.55524 5.08601 5.82491C4.91506 6.33585 4.88787 6.54407 4.97159 6.70049C4.99887 6.75149 5.17016 6.88869 5.35222 7.00541L5.68325 7.21757L5.65278 7.46038C5.636 7.59388 5.60961 7.98262 5.59414 8.32415C5.54961 9.30599 5.64598 9.51215 6.1408 9.49391C6.34048 9.48655 6.43812 9.50901 6.5743 9.59371L6.75008 9.70298V10.3554V11.0078H6.89309C6.97175 11.0078 7.32926 10.934 7.68758 10.8438C8.51862 10.6345 8.52045 10.6345 8.55275 10.8555C8.67411 11.6857 8.75708 11.8555 9.29534 12.3744C9.69331 12.7581 9.71727 12.7924 9.73794 13.0072C9.75237 13.158 9.71764 13.4104 9.63453 13.7579C9.51748 14.2474 9.51411 14.2907 9.58283 14.4236C9.68661 14.6242 9.67456 14.7046 9.53544 14.7395C9.34067 14.7884 8.96192 14.724 8.41208 14.5485C7.73356 14.3319 7.55487 14.3315 7.36662 14.5459C7.22211 14.7105 7.13464 14.9876 7.19591 15.0868C7.21419 15.1164 7.31647 15.1785 7.4232 15.2248C7.90367 15.4334 7.98289 15.7818 7.7383 16.611C7.51208 17.3781 7.40192 17.5424 6.87744 17.895C6.42237 18.2009 5.90633 18.833 5.90633 19.0844C5.90633 19.2099 6.00411 19.232 6.56356 19.2332C7.0632 19.2343 7.12105 19.244 7.337 19.363C7.99339 19.7245 8.51084 19.9094 9.21101 20.0326C9.38797 20.0638 9.3642 20.0742 8.78914 20.2183C8.07144 20.3982 7.66175 20.5377 7.50083 20.6571C7.43675 20.7045 7.27194 20.9312 7.13455 21.1608C6.80239 21.7157 6.71019 21.8037 6.19705 22.055C5.69525 22.3007 5.35489 22.5537 5.15516 22.8294C5.0007 23.0426 4.96517 23.3195 5.0863 23.366C5.12511 23.3809 5.47845 23.3272 5.87145 23.2467C6.67208 23.0827 7.05575 23.0673 7.73445 23.1719C8.25716 23.2525 8.79434 23.2628 8.83737 23.1931C8.85411 23.1661 8.79209 23.017 8.69961 22.8618C8.47503 22.4848 8.45319 22.3829 8.57169 22.2644C8.7012 22.1348 8.9165 22.0861 9.63289 22.024C9.96805 21.995 10.6175 21.9198 11.0763 21.857C12.3413 21.6838 13.0616 21.6443 14.6988 21.6587L16.1954 21.6719L16.4132 21.5439C16.805 21.3135 17.8126 20.1348 17.8126 19.9067C17.8126 19.7976 17.7934 19.7979 16.9797 19.924C16.3697 20.0185 16.2929 20.0215 16.1123 19.9585C15.9211 19.8918 15.9143 19.8825 15.9179 19.6945C15.9237 19.3981 16.1679 19.0343 16.8079 18.3692C17.7646 17.3747 18.0107 16.8531 17.7714 16.3263C17.6566 16.0737 17.2988 15.7665 17.0003 15.6643C16.6491 15.5442 16.0527 15.5552 15.626 15.6897C15.2508 15.808 14.9649 15.8067 14.8896 15.6863C14.8543 15.63 14.8563 15.4933 14.8965 15.2151C14.9664 14.732 14.9691 14.2274 14.9036 13.9217C14.8763 13.7945 14.7645 13.5542 14.6552 13.3877C14.5458 13.2212 14.3542 12.8339 14.2294 12.5269C13.8714 11.6466 13.7543 11.4828 13.2961 11.2217C13.0384 11.0748 12.5545 10.6101 12.4535 10.4127C12.4166 10.3404 12.3434 10.1104 12.291 9.90149C12.1406 9.30271 11.5215 8.16566 11.1973 7.8929C11.071 7.78659 10.5632 7.59848 10.1836 7.51733C10.0024 7.47857 9.96336 7.37193 9.99425 6.99951C10.0194 6.69637 10.3549 5.98218 10.8747 5.12502C11.2624 4.48579 11.4376 4.02988 11.4376 3.66009C11.4376 3.32465 11.2852 3.1573 10.943 3.11666C9.86192 2.98837 9.25419 3.04157 8.65555 3.31701C8.42741 3.42196 8.23437 3.50784 8.22655 3.50784C8.19795 3.50784 8.10945 3.20966 8.10973 3.11413C8.11067 2.75699 8.4057 2.34777 8.84234 2.09798C9.27772 1.84888 9.39059 1.70169 9.57997 1.13615C9.67287 0.858695 9.74286 0.625632 9.7355 0.618273C9.72814 0.610867 9.57547 0.627695 9.39627 0.655632C9.09317 0.702882 8.80948 0.697398 7.71101 0.62282C7.32083 0.596382 7.27812 0.602289 7.14242 0.701664ZM2.14165 9.69463C2.01758 9.71699 1.86701 9.76743 1.80706 9.80671C1.74303 9.84866 1.56959 10.1415 1.38664 10.5166C1.09583 11.113 1.04778 11.182 0.659655 11.562C0.431092 11.7857 0.220811 12.0148 0.192405 12.0711C0.110936 12.2325 0.128983 12.7419 0.222827 12.9297C0.385342 13.2551 1.07834 13.4544 1.68758 13.351C1.92214 13.3112 2.07383 13.2459 2.34655 13.0676C2.5414 12.9402 2.72698 12.836 2.75895 12.836C2.79092 12.836 3.01747 12.9414 3.26244 13.0703C3.63176 13.2647 3.74947 13.3047 3.9523 13.3047C4.26889 13.3047 4.41683 13.2206 4.8507 12.7941C5.14892 12.501 5.2032 12.4237 5.2032 12.2922C5.2032 12.0494 4.62322 10.5046 4.47331 10.3481C4.32045 10.1886 3.83089 9.92591 3.4452 9.79654C3.11853 9.68694 2.46706 9.63599 2.14165 9.69463Z" fill="#ABACC7"/>
</svg>
