<svg width="10" height="24" viewBox="0 0 10 24" fill="none" xmlns="http://www.w3.org/2000/svg">
<path fill-rule="evenodd" clip-rule="evenodd" d="M6.84944 0.644315C6.838 0.663627 6.81461 0.774393 6.7975 0.890409C6.78035 1.00642 6.72199 1.2925 6.6678 1.52617L6.56927 1.951L6.19389 1.72539C5.79733 1.48703 5.62075 1.4456 5.58217 1.58182C5.56942 1.62691 5.54449 1.82205 5.52677 2.01541C5.48172 2.50792 5.45383 2.54852 5.18439 2.51374C5.06444 2.49822 4.9427 2.50103 4.91392 2.52002C4.88509 2.53896 4.82509 2.68103 4.78056 2.83572C4.6795 3.18686 4.64861 3.22394 4.34519 3.35833C4.20986 3.41828 4.09919 3.49399 4.09933 3.52652C4.09947 3.5591 4.15155 3.6701 4.21506 3.77322C4.39084 4.0586 4.36849 4.17935 4.0285 4.78103C3.86097 5.07752 3.71261 5.35497 3.69883 5.39763C3.68505 5.44024 3.59884 5.51069 3.50725 5.55414C3.16314 5.71741 3.15663 5.73611 3.19113 6.4585C3.22755 7.22196 3.21053 7.27361 2.77553 7.71817C2.4437 8.05736 2.43864 8.15196 2.73958 8.39032C2.93294 8.54341 2.95502 8.61461 2.89792 8.90018C2.86881 9.04577 2.86675 9.04666 2.57158 9.04666C2.22634 9.04666 1.82224 9.18035 1.66661 9.346C1.52978 9.49164 1.49509 9.75438 1.4058 11.3201C1.30103 13.1571 1.28763 13.0037 1.56799 13.1762C1.91978 13.3927 1.94856 13.6854 1.63619 13.8697C1.44508 13.9825 1.36441 14.1471 1.28927 14.5779C1.12249 15.5343 1.08794 15.6572 0.926032 15.8692C0.715001 16.1456 0.630345 16.3573 0.630345 16.6089C0.630345 16.7222 0.617079 16.9115 0.600907 17.0298C0.573345 17.2307 0.559142 17.2486 0.382517 17.3058C0.10197 17.3966 0.0800323 17.462 0.177626 17.9159C0.223564 18.1296 0.309204 18.5368 0.367892 18.8208C0.491736 19.42 0.491876 19.4203 0.837767 19.8513C1.22533 20.3343 1.35255 20.6159 1.32025 20.9195C1.30595 21.0539 1.25083 21.2588 1.19772 21.3748C1.14461 21.4908 1.10069 21.6753 1.10013 21.7848C1.09886 22.028 1.29733 22.9732 1.40036 23.2146C1.48567 23.4146 1.61636 23.446 1.77578 23.3046C1.82899 23.2574 1.96745 23.1921 2.08347 23.1595C2.2555 23.111 2.37653 23.0148 2.73972 22.6377C3.30011 22.0558 3.47674 21.9663 3.97605 22.0116L4.3226 22.043L4.5385 21.844C4.66619 21.7263 4.82163 21.5106 4.91894 21.3161C5.11019 20.9337 5.13245 20.623 5.01316 19.9996C4.87492 19.2771 4.93127 18.914 5.29792 18.1638C5.61034 17.5247 5.79564 17.3079 6.22867 17.075C6.64445 16.8514 6.75217 16.7658 6.84606 16.5843C7.00094 16.2848 6.87302 16.0405 6.19084 15.3329C5.60964 14.7299 5.36744 14.4416 5.25339 14.217C5.04527 13.807 5.29994 12.7255 5.8667 11.6121C6.23177 10.895 6.45967 10.6047 6.87105 10.333C7.31683 10.0385 7.99623 9.35917 8.06383 9.14041C8.09172 9.05017 8.16555 8.83342 8.22789 8.65877C8.33786 8.3508 8.3388 8.33683 8.25925 8.19794C8.15866 8.0223 8.15674 7.91392 8.2487 7.60422C8.31245 7.38963 8.36702 7.32442 8.75261 7.00225C9.36541 6.49024 9.86472 5.99303 9.86472 5.89483C9.86472 5.84871 9.77209 5.69725 9.65889 5.55827C9.54569 5.41924 9.42958 5.23436 9.40084 5.14741C9.37216 5.06041 9.29692 4.4815 9.23369 3.86097C9.09138 2.46456 9.05017 2.33599 8.61006 1.91467C8.43644 1.7485 8.22058 1.56199 8.13034 1.50016C8.04011 1.43833 7.81863 1.25875 7.63816 1.10111C7.45769 0.943424 7.24919 0.768252 7.1748 0.711815C7.0397 0.609252 6.88872 0.57794 6.84944 0.644315ZM6.99794 18.5738C6.69395 18.8027 6.5868 19.0627 6.48498 19.8183C6.3408 20.8886 6.3617 21.0096 6.70216 21.0735C7.07378 21.1432 7.38034 20.9818 7.38034 20.7166C7.38034 20.4927 7.51455 19.8908 7.666 19.4353L7.80438 19.0193L7.68766 18.8663C7.62349 18.7821 7.48783 18.6474 7.38625 18.5669L7.20147 18.4206L6.99794 18.5738Z" fill="#ABACC7"/>
</svg>
