<svg width="20" height="24" viewBox="0 0 20 24" fill="none" xmlns="http://www.w3.org/2000/svg">
<path fill-rule="evenodd" clip-rule="evenodd" d="M16.7969 0.684986C16.6035 0.720986 16.0762 0.769454 15.625 0.792751C15.1738 0.816048 14.7414 0.859314 14.664 0.888939C14.5867 0.918564 14.2493 1.12617 13.9143 1.35033C13.296 1.76405 12.955 2.07361 12.1954 2.91113C11.8935 3.24389 11.6441 3.45844 11.2244 3.7462C10.6735 4.12388 10.4488 4.33252 10.2578 4.64358C10.1867 4.75931 10.0185 4.87106 9.56302 5.1052C8.51897 5.64178 8.20781 5.98285 8.19942 6.59986C8.1953 6.90052 8.19581 6.90164 8.40624 7.08394C8.52989 7.1911 8.6108 7.29853 8.60175 7.34363C8.59332 7.38591 8.44814 7.72847 8.2792 8.10483C7.69505 9.40613 7.36739 10.1981 7.13302 10.875C6.85013 11.6923 6.57314 12.2451 6.37645 12.3851C6.29752 12.4413 6.04936 12.649 5.82492 12.8466C5.19971 13.3972 5.13249 13.4394 4.44131 13.7168C3.32114 14.1663 3.31613 14.1697 2.40145 15.0868C0.844361 16.6481 0.486939 17.3363 0.83972 18.0938C1.00599 18.4508 1.08539 18.8274 1.12219 19.4336C1.1513 19.9127 1.14291 19.9947 1.00945 20.5343C0.930142 20.8549 0.855845 21.1911 0.844314 21.2813C0.811127 21.5415 0.900517 21.9844 1.03781 22.2399C1.21533 22.5702 1.91278 23.2664 2.14167 23.3417C2.43745 23.4391 2.8208 23.385 3.21103 23.1908C3.99056 22.803 4.46977 22.2564 4.84439 21.3282C5.29777 20.2048 5.44064 20.0452 5.57096 20.5166C5.78063 21.2749 6.20625 22.3594 6.29424 22.3594C6.3112 22.3594 6.36933 22.2593 6.42333 22.1368C7.18421 20.4119 7.28161 20.1342 7.2803 19.6939C7.27964 19.4663 7.24078 19.276 7.13555 18.9844C6.94969 18.4697 6.91514 17.945 7.01878 17.2133C7.06003 16.9223 7.09449 16.4899 7.09538 16.2524C7.0973 15.7487 7.18294 15.2273 7.32577 14.85C7.4341 14.5637 7.66894 14.2703 7.74975 14.3202C7.7768 14.337 7.86005 14.4716 7.93472 14.6196C8.09892 14.9448 8.18081 15.0197 8.33105 14.982C8.51152 14.9367 8.62772 14.6227 8.85586 13.5632C9.11241 12.3721 9.2363 11.8807 9.31055 11.7594C9.34167 11.7085 9.46871 11.6041 9.59283 11.5274C9.71691 11.4507 9.85008 11.3305 9.88871 11.2604C11.0907 9.07903 11.1075 9.03806 11.3819 7.60195C11.514 6.91036 11.5691 6.77166 11.7832 6.59156C11.9378 6.46139 11.961 6.45638 12.4375 6.44967L12.7422 6.44536L12.7958 6.25786C12.8253 6.15474 12.8908 5.84785 12.9414 5.57588C13.0515 4.98441 13.1542 4.7446 13.3142 4.70442C13.4854 4.66144 13.56 4.76874 13.6147 5.13652C13.6411 5.31497 13.6836 5.59866 13.7089 5.76689C13.7695 6.16969 13.9156 6.42886 14.1143 6.48581C14.2932 6.53714 14.3802 6.47606 14.6061 6.14067C14.8302 5.80791 14.97 5.6782 15.2356 5.55661C15.7382 5.32655 16 5.02172 16 4.66669C16 4.5758 15.9367 4.31095 15.8594 4.07817C15.6865 3.55805 15.6812 3.35827 15.8342 3.13317C15.9623 2.94455 16.3629 2.7188 16.5695 2.7188C16.7389 2.7188 16.9052 2.79703 16.9756 2.90977C17.0068 2.95959 17.0541 3.16378 17.0808 3.36347C17.1075 3.5632 17.1612 3.82505 17.2 3.94533C17.2736 4.17347 17.4651 4.4063 17.5791 4.4063C17.6155 4.4063 17.85 4.31977 18.1 4.21406C19.0703 3.80377 19.2812 3.65639 19.2812 3.38892C19.2812 3.1793 18.9925 2.90405 18.4578 2.60395C18.236 2.47941 18.043 2.34759 18.029 2.31099C18.0149 2.27438 18.0563 2.1877 18.121 2.11833C18.2965 1.93003 18.3437 1.81149 18.3437 1.5592C18.3437 1.28447 18.1674 0.901032 17.9615 0.727689C17.8381 0.623861 17.7799 0.610032 17.4847 0.614485C17.2997 0.617298 16.9902 0.648986 16.7969 0.684986Z" fill="#ABACC7"/>
</svg>
