<svg id="svg" version="1.1" xmlns="http://www.w3.org/2000/svg" xmlns:xlink="http://www.w3.org/1999/xlink" width="400" height="460" viewBox="0, 0, 400,460"><g id="svgg"><path id="path0" d="M176.028 5.000 C 176.028 5.220,176.286 5.850,176.600 6.400 C 176.914 6.950,177.172 7.220,177.172 7.000 C 177.172 6.780,176.914 6.150,176.600 5.600 C 176.286 5.050,176.028 4.780,176.028 5.000 M140.749 11.500 C 140.272 12.109,140.278 12.140,140.800 11.743 C 141.130 11.492,141.760 11.198,142.200 11.089 C 142.960 10.903,142.957 10.890,142.149 10.846 C 141.681 10.821,141.051 11.115,140.749 11.500 M138.000 13.446 C 137.010 14.219,135.930 15.138,135.600 15.488 C 135.270 15.838,136.125 15.276,137.500 14.239 C 138.875 13.202,140.000 12.274,140.000 12.177 C 140.000 11.899,139.906 11.959,138.000 13.446 M181.200 14.145 C 181.970 14.984,183.320 16.226,184.200 16.904 C 186.070 18.346,185.526 17.767,182.200 14.777 C 180.630 13.365,180.284 13.147,181.200 14.145 M125.978 23.100 L 124.600 24.600 126.100 23.222 C 126.925 22.463,127.600 21.788,127.600 21.722 C 127.600 21.416,127.262 21.704,125.978 23.100 M205.500 24.682 C 205.995 24.778,206.805 24.778,207.300 24.682 C 207.795 24.587,207.390 24.509,206.400 24.509 C 205.410 24.509,205.005 24.587,205.500 24.682 M211.300 25.087 C 211.905 25.178,212.895 25.178,213.500 25.087 C 214.105 24.995,213.610 24.920,212.400 24.920 C 211.190 24.920,210.695 24.995,211.300 25.087 M121.775 27.300 L 120.600 28.600 121.900 27.425 C 123.112 26.330,123.384 26.000,123.075 26.000 C 123.006 26.000,122.421 26.585,121.775 27.300 M221.456 26.769 C 222.146 27.190,222.807 27.774,222.924 28.067 C 223.059 28.406,223.148 28.428,223.168 28.129 C 223.205 27.591,221.318 25.999,220.646 26.001 C 220.401 26.002,220.765 26.348,221.456 26.769 M90.451 30.591 C 89.543 31.576,88.800 32.517,88.800 32.682 C 88.800 32.847,89.351 32.314,90.025 31.497 C 90.698 30.679,91.638 29.738,92.114 29.405 C 92.589 29.072,92.781 28.800,92.540 28.800 C 92.299 28.800,91.359 29.606,90.451 30.591 M98.200 32.400 C 99.506 33.720,100.665 34.800,100.775 34.800 C 100.885 34.800,99.906 33.720,98.600 32.400 C 97.294 31.080,96.135 30.000,96.025 30.000 C 95.915 30.000,96.894 31.080,98.200 32.400 M115.978 35.100 L 114.600 36.600 116.100 35.222 C 116.925 34.463,117.600 33.788,117.600 33.722 C 117.600 33.416,117.262 33.704,115.978 35.100 M109.700 37.876 C 110.085 37.976,110.715 37.976,111.100 37.876 C 111.485 37.775,111.170 37.693,110.400 37.693 C 109.630 37.693,109.315 37.775,109.700 37.876 M220.401 51.469 C 220.399 52.138,222.328 54.342,223.343 54.831 C 223.878 55.089,223.770 54.910,223.053 54.354 C 222.422 53.865,221.568 52.910,221.155 52.232 C 220.741 51.555,220.402 51.211,220.401 51.469 M78.800 90.400 L 78.800 125.600 80.500 125.533 L 82.200 125.466 80.700 125.309 L 79.200 125.152 79.200 90.497 L 79.200 55.843 80.700 57.221 L 82.200 58.599 80.619 56.899 C 79.749 55.965,78.984 55.200,78.919 55.200 C 78.853 55.200,78.800 71.040,78.800 90.400 M228.000 58.200 C 228.746 58.970,229.447 59.600,229.557 59.600 C 229.667 59.600,229.146 58.970,228.400 58.200 C 227.654 57.430,226.953 56.800,226.843 56.800 C 226.733 56.800,227.254 57.430,228.000 58.200 M217.500 69.482 C 217.995 69.578,218.805 69.578,219.300 69.482 C 219.795 69.387,219.390 69.309,218.400 69.309 C 217.410 69.309,217.005 69.387,217.500 69.482 M196.400 74.200 C 195.850 74.514,195.580 74.772,195.800 74.772 C 196.020 74.772,196.650 74.514,197.200 74.200 C 197.750 73.886,198.020 73.628,197.800 73.628 C 197.580 73.628,196.950 73.886,196.400 74.200 M183.603 83.260 C 182.941 84.173,182.401 85.118,182.401 85.360 C 182.402 85.602,182.782 85.170,183.245 84.400 C 183.708 83.630,184.365 82.685,184.706 82.300 C 185.046 81.915,185.207 81.600,185.065 81.600 C 184.922 81.600,184.264 82.347,183.603 83.260 M182.101 87.400 C 182.105 88.280,182.187 88.593,182.283 88.095 C 182.379 87.598,182.375 86.878,182.275 86.495 C 182.175 86.113,182.096 86.520,182.101 87.400 M185.600 93.400 C 187.017 94.830,188.267 96.000,188.377 96.000 C 188.487 96.000,187.417 94.830,186.000 93.400 C 184.583 91.970,183.333 90.800,183.223 90.800 C 183.113 90.800,184.183 91.970,185.600 93.400 M189.200 96.510 C 189.200 96.571,190.595 97.966,192.300 99.610 L 195.400 102.600 192.410 99.500 C 189.633 96.621,189.200 96.217,189.200 96.510 M181.596 114.097 C 180.426 115.856,180.336 116.182,181.346 115.000 C 182.237 113.957,182.637 113.200,182.296 113.200 C 182.239 113.200,181.924 113.604,181.596 114.097 M183.154 127.536 C 183.599 128.160,184.279 128.925,184.665 129.236 C 185.052 129.546,184.760 129.035,184.017 128.100 C 182.491 126.180,181.925 125.810,183.154 127.536 M94.400 132.200 C 95.817 133.630,97.067 134.800,97.177 134.800 C 97.287 134.800,96.217 133.630,94.800 132.200 C 93.383 130.770,92.133 129.600,92.023 129.600 C 91.913 129.600,92.983 130.770,94.400 132.200 M188.600 133.200 C 189.459 134.080,190.252 134.800,190.362 134.800 C 190.472 134.800,189.859 134.080,189.000 133.200 C 188.141 132.320,187.348 131.600,187.238 131.600 C 187.128 131.600,187.741 132.320,188.600 133.200 M102.400 141.341 C 103.610 142.616,104.960 143.850,105.400 144.084 C 105.840 144.317,106.110 144.431,106.000 144.336 C 105.890 144.242,104.540 143.008,103.000 141.594 L 100.200 139.023 102.400 141.341 M196.800 139.746 C 196.800 139.856,197.340 140.330,198.000 140.800 C 198.660 141.270,199.200 141.564,199.200 141.454 C 199.200 141.344,198.660 140.870,198.000 140.400 C 197.340 139.930,196.800 139.636,196.800 139.746 M202.000 143.346 C 202.000 143.456,202.540 143.930,203.200 144.400 C 203.860 144.870,204.400 145.164,204.400 145.054 C 204.400 144.944,203.860 144.470,203.200 144.000 C 202.540 143.530,202.000 143.236,202.000 143.346 M219.600 157.000 C 220.346 157.770,221.047 158.400,221.157 158.400 C 221.267 158.400,220.746 157.770,220.000 157.000 C 219.254 156.230,218.553 155.600,218.443 155.600 C 218.333 155.600,218.854 156.230,219.600 157.000 M223.800 160.800 C 224.659 161.680,225.452 162.400,225.562 162.400 C 225.672 162.400,225.059 161.680,224.200 160.800 C 223.341 159.920,222.548 159.200,222.438 159.200 C 222.328 159.200,222.941 159.920,223.800 160.800 M226.400 163.725 C 226.400 163.794,226.985 164.379,227.700 165.025 L 229.000 166.200 227.825 164.900 C 226.730 163.688,226.400 163.416,226.400 163.725 M229.785 167.900 C 230.402 168.835,230.983 169.600,231.076 169.600 C 231.364 169.600,229.833 167.166,229.232 166.669 C 228.920 166.411,229.168 166.965,229.785 167.900 M235.200 187.749 C 235.200 188.181,236.789 191.200,237.016 191.200 C 237.126 191.200,236.830 190.435,236.359 189.500 C 235.432 187.661,235.200 187.311,235.200 187.749 M130.924 193.400 C 131.262 194.060,131.838 194.960,132.204 195.400 C 132.570 195.840,132.465 195.480,131.970 194.600 C 130.880 192.658,130.064 191.722,130.924 193.400 M242.322 199.100 C 242.976 199.925,244.264 201.410,245.184 202.400 C 246.104 203.390,245.645 202.715,244.164 200.900 C 242.684 199.085,241.396 197.600,241.303 197.600 C 241.209 197.600,241.668 198.275,242.322 199.100 M141.800 208.000 C 142.883 209.100,143.860 210.000,143.970 210.000 C 144.080 210.000,143.283 209.100,142.200 208.000 C 141.117 206.900,140.140 206.000,140.030 206.000 C 139.920 206.000,140.717 206.900,141.800 208.000 M250.400 208.200 C 251.595 209.410,252.663 210.400,252.773 210.400 C 252.883 210.400,251.995 209.410,250.800 208.200 C 249.605 206.990,248.537 206.000,248.427 206.000 C 248.317 206.000,249.205 206.990,250.400 208.200 M147.600 214.200 C 149.681 216.290,151.474 218.000,151.584 218.000 C 151.694 218.000,150.081 216.290,148.000 214.200 C 145.919 212.110,144.126 210.400,144.016 210.400 C 143.906 210.400,145.519 212.110,147.600 214.200 M255.000 212.400 C 256.083 213.500,257.060 214.400,257.170 214.400 C 257.280 214.400,256.483 213.500,255.400 212.400 C 254.317 211.300,253.340 210.400,253.230 210.400 C 253.120 210.400,253.917 211.300,255.000 212.400 M152.800 218.962 C 153.905 220.198,158.400 224.175,158.400 223.916 C 158.400 223.826,156.915 222.423,155.100 220.798 C 153.285 219.173,152.250 218.347,152.800 218.962 M266.400 221.746 C 266.400 221.856,266.940 222.330,267.600 222.800 C 268.260 223.270,268.800 223.564,268.800 223.454 C 268.800 223.344,268.260 222.870,267.600 222.400 C 266.940 221.930,266.400 221.636,266.400 221.746 M306.500 223.876 C 306.885 223.976,307.515 223.976,307.900 223.876 C 308.285 223.775,307.970 223.693,307.200 223.693 C 306.430 223.693,306.115 223.775,306.500 223.876 M312.378 227.474 C 312.610 227.954,312.800 230.674,312.800 233.519 L 312.800 238.690 311.562 240.245 C 310.463 241.625,309.146 243.723,309.706 243.200 C 309.824 243.090,310.658 242.015,311.560 240.811 L 313.200 238.622 313.200 233.387 C 313.200 229.251,313.069 227.990,312.578 227.376 C 311.977 226.626,311.970 226.630,312.378 227.474 M281.900 228.289 C 282.615 228.378,283.785 228.378,284.500 228.289 C 285.215 228.201,284.630 228.128,283.200 228.128 C 281.770 228.128,281.185 228.201,281.900 228.289 M164.544 228.709 C 164.860 229.221,167.200 230.953,167.200 230.675 C 167.200 230.576,166.539 229.991,165.732 229.375 C 164.924 228.759,164.389 228.459,164.544 228.709 M168.800 231.746 C 168.800 231.856,169.340 232.330,170.000 232.800 C 170.660 233.270,171.200 233.564,171.200 233.454 C 171.200 233.344,170.660 232.870,170.000 232.400 C 169.340 231.930,168.800 231.636,168.800 231.746 M172.800 234.533 C 172.800 234.643,173.520 235.303,174.400 236.000 C 175.280 236.697,176.000 237.177,176.000 237.067 C 176.000 236.957,175.280 236.297,174.400 235.600 C 173.520 234.903,172.800 234.423,172.800 234.533 M178.400 238.925 C 178.400 238.994,178.985 239.579,179.700 240.225 L 181.000 241.400 179.825 240.100 C 178.730 238.888,178.400 238.616,178.400 238.925 M183.000 243.200 C 184.083 244.300,185.060 245.200,185.170 245.200 C 185.280 245.200,184.483 244.300,183.400 243.200 C 182.317 242.100,181.340 241.200,181.230 241.200 C 181.120 241.200,181.917 242.100,183.000 243.200 M311.307 246.217 L 312.800 247.834 312.800 293.940 C 312.800 324.808,312.667 339.965,312.397 339.798 C 312.175 339.661,312.220 340.046,312.497 340.653 C 312.905 341.549,313.019 332.895,313.102 294.786 L 313.203 247.815 311.508 246.208 L 309.813 244.600 311.307 246.217 M190.000 249.800 C 192.523 252.330,194.677 254.400,194.787 254.400 C 194.897 254.400,192.923 252.330,190.400 249.800 C 187.877 247.270,185.723 245.200,185.613 245.200 C 185.503 245.200,187.477 247.270,190.000 249.800 M109.800 260.265 C 110.822 261.233,113.333 262.871,112.727 262.174 C 112.357 261.748,111.457 261.059,110.727 260.643 C 109.997 260.227,109.580 260.057,109.800 260.265 M95.000 262.235 L 93.800 263.266 95.100 262.406 C 95.815 261.933,96.400 261.468,96.400 261.373 C 96.400 261.073,96.231 261.178,95.000 262.235 M115.983 265.300 C 117.641 267.066,118.000 267.384,118.000 267.083 C 118.000 267.019,117.145 266.164,116.100 265.183 L 114.200 263.400 115.983 265.300 M222.305 265.883 C 222.802 265.979,223.522 265.975,223.905 265.875 C 224.287 265.775,223.880 265.696,223.000 265.701 C 222.120 265.705,221.807 265.787,222.305 265.883 M78.988 292.200 C 78.988 306.060,79.039 311.672,79.100 304.671 C 79.161 297.670,79.161 286.330,79.100 279.471 C 79.038 272.612,78.988 278.340,78.988 292.200 M246.800 277.200 C 247.249 278.080,247.706 278.800,247.816 278.800 C 247.926 278.800,247.649 278.080,247.200 277.200 C 246.751 276.320,246.294 275.600,246.184 275.600 C 246.074 275.600,246.351 276.320,246.800 277.200 M123.742 279.400 C 123.741 281.380,123.808 282.240,123.892 281.312 C 123.976 280.384,123.977 278.764,123.895 277.712 C 123.812 276.660,123.743 277.420,123.742 279.400 M123.293 285.200 C 123.293 285.970,123.375 286.285,123.476 285.900 C 123.576 285.515,123.576 284.885,123.476 284.500 C 123.375 284.115,123.293 284.430,123.293 285.200 M252.200 285.600 C 253.059 286.480,253.852 287.200,253.962 287.200 C 254.072 287.200,253.459 286.480,252.600 285.600 C 251.741 284.720,250.948 284.000,250.838 284.000 C 250.728 284.000,251.341 284.720,252.200 285.600 M122.893 288.800 C 122.893 289.570,122.975 289.885,123.076 289.500 C 123.176 289.115,123.176 288.485,123.076 288.100 C 122.975 287.715,122.893 288.030,122.893 288.800 M122.520 294.000 C 122.520 295.210,122.595 295.705,122.687 295.100 C 122.778 294.495,122.778 293.505,122.687 292.900 C 122.595 292.295,122.520 292.790,122.520 294.000 M269.200 293.400 C 269.750 293.714,270.380 293.972,270.600 293.972 C 270.820 293.972,270.550 293.714,270.000 293.400 C 269.450 293.086,268.820 292.828,268.600 292.828 C 268.380 292.828,268.650 293.086,269.200 293.400 M122.520 308.000 C 122.520 309.210,122.595 309.705,122.687 309.100 C 122.778 308.495,122.778 307.505,122.687 306.900 C 122.595 306.295,122.520 306.790,122.520 308.000 M122.893 312.800 C 122.893 313.570,122.975 313.885,123.076 313.500 C 123.176 313.115,123.176 312.485,123.076 312.100 C 122.975 311.715,122.893 312.030,122.893 312.800 M281.503 313.900 C 282.021 314.395,282.660 314.795,282.922 314.788 C 283.185 314.781,283.040 314.576,282.600 314.332 C 282.160 314.088,281.521 313.688,281.180 313.444 C 280.840 313.200,280.985 313.405,281.503 313.900 M287.700 315.876 C 288.085 315.976,288.715 315.976,289.100 315.876 C 289.485 315.775,289.170 315.693,288.400 315.693 C 287.630 315.693,287.315 315.775,287.700 315.876 M301.162 319.800 C 301.390 320.240,301.954 321.050,302.415 321.600 C 302.987 322.282,303.122 322.346,302.838 321.800 C 302.610 321.360,302.046 320.550,301.585 320.000 C 301.013 319.318,300.878 319.254,301.162 319.800 M78.993 338.567 C 78.999 353.483,79.079 355.755,79.600 355.897 C 80.040 356.017,80.068 355.967,79.704 355.710 C 79.327 355.442,79.182 351.322,79.098 338.379 L 78.987 321.400 78.993 338.567 M124.093 322.800 C 124.093 323.570,124.175 323.885,124.276 323.500 C 124.376 323.115,124.376 322.485,124.276 322.100 C 124.175 321.715,124.093 322.030,124.093 322.800 M124.542 329.000 C 124.541 330.980,124.608 331.840,124.692 330.912 C 124.776 329.984,124.777 328.364,124.695 327.312 C 124.612 326.260,124.543 327.020,124.542 329.000 M306.000 328.949 C 306.000 329.381,307.589 332.400,307.816 332.400 C 307.926 332.400,307.630 331.635,307.159 330.700 C 306.232 328.861,306.000 328.511,306.000 328.949 M122.402 335.927 C 121.406 336.977,121.282 337.219,121.973 336.771 C 122.798 336.235,124.391 334.346,123.949 334.427 C 123.867 334.443,123.171 335.118,122.402 335.927 M117.305 337.887 C 117.914 337.979,118.814 337.977,119.305 337.882 C 119.797 337.787,119.300 337.711,118.200 337.714 C 117.100 337.717,116.697 337.795,117.305 337.887 M102.187 340.900 L 99.800 343.400 102.300 341.013 C 103.675 339.699,104.800 338.574,104.800 338.513 C 104.800 338.217,104.405 338.578,102.187 340.900 M98.559 344.900 C 96.807 346.921,96.287 347.600,96.490 347.600 C 96.607 347.600,97.367 346.790,98.179 345.800 C 99.681 343.966,99.979 343.263,98.559 344.900 M94.975 349.300 L 93.800 350.600 95.100 349.425 C 96.312 348.330,96.584 348.000,96.275 348.000 C 96.206 348.000,95.621 348.585,94.975 349.300 M312.390 364.626 C 312.176 365.190,312.018 365.955,312.040 366.326 C 312.066 366.760,312.206 366.644,312.434 366.000 C 312.715 365.205,312.750 365.330,312.604 366.608 C 312.503 367.492,312.580 368.752,312.776 369.408 C 313.051 370.330,313.139 369.808,313.166 367.100 C 313.202 363.437,313.039 362.919,312.390 364.626 M273.600 383.800 C 273.050 384.114,272.780 384.372,273.000 384.372 C 273.220 384.372,273.850 384.114,274.400 383.800 C 274.950 383.486,275.220 383.228,275.000 383.228 C 274.780 383.228,274.150 383.486,273.600 383.800 M312.470 387.234 C 312.179 387.701,312.134 387.964,312.370 387.818 C 312.672 387.632,312.800 390.261,312.800 396.619 C 312.800 405.080,312.753 405.669,312.100 405.442 C 311.539 405.246,311.559 405.321,312.200 405.817 C 312.989 406.428,313.002 406.369,313.112 401.418 C 313.325 391.877,313.071 386.270,312.470 387.234 M196.700 393.082 C 197.195 393.178,198.005 393.178,198.500 393.082 C 198.995 392.987,198.590 392.909,197.600 392.909 C 196.610 392.909,196.205 392.987,196.700 393.082 M174.000 397.600 C 173.551 398.480,173.274 399.200,173.384 399.200 C 173.494 399.200,173.951 398.480,174.400 397.600 C 174.849 396.720,175.126 396.000,175.016 396.000 C 174.906 396.000,174.449 396.720,174.000 397.600 M216.800 399.200 C 217.570 399.622,218.380 399.966,218.600 399.966 C 218.820 399.966,218.370 399.622,217.600 399.200 C 216.830 398.778,216.020 398.434,215.800 398.434 C 215.580 398.434,216.030 398.778,216.800 399.200 M306.812 400.715 C 306.805 400.999,307.475 401.907,308.300 402.733 C 309.135 403.570,309.336 403.696,308.753 403.018 C 308.177 402.348,307.507 401.440,307.265 401.000 C 307.023 400.560,306.819 400.432,306.812 400.715 M223.505 401.483 C 224.002 401.579,224.722 401.575,225.105 401.475 C 225.487 401.375,225.080 401.296,224.200 401.301 C 223.320 401.305,223.007 401.387,223.505 401.483 M174.791 412.788 C 175.257 413.441,175.842 414.102,176.091 414.256 C 176.341 414.411,176.041 413.876,175.425 413.068 C 174.088 411.315,173.584 411.092,174.791 412.788 M178.796 417.994 C 179.490 418.871,180.267 419.718,180.523 419.876 C 180.778 420.034,180.293 419.316,179.445 418.281 C 178.597 417.247,177.820 416.400,177.718 416.400 C 177.616 416.400,178.101 417.118,178.796 417.994 M270.540 421.600 C 270.540 423.470,270.609 424.235,270.693 423.300 C 270.777 422.365,270.777 420.835,270.693 419.900 C 270.609 418.965,270.540 419.730,270.540 421.600 M185.186 425.400 C 188.614 429.142,188.655 429.181,187.696 427.800 C 187.238 427.140,185.909 425.700,184.742 424.600 C 182.784 422.754,182.818 422.815,185.186 425.400 M276.175 434.932 C 276.791 435.739,277.376 436.400,277.475 436.400 C 277.753 436.400,276.021 434.060,275.509 433.744 C 275.259 433.589,275.559 434.124,276.175 434.932 M279.977 442.000 L 279.800 443.400 253.286 443.503 C 230.305 443.592,226.616 443.525,225.606 443.003 C 223.339 441.831,223.834 442.437,226.200 443.730 C 227.520 444.452,229.676 445.740,230.992 446.592 C 245.185 455.789,271.993 462.916,274.971 458.284 C 275.991 456.698,280.454 442.791,280.301 441.676 C 280.168 440.710,280.135 440.743,279.977 442.000 " stroke="none" fill="#e4e4ec" fill-rule="evenodd"></path><path id="path1" d="M62.581 34.100 L 61.000 35.800 62.700 34.219 C 64.281 32.748,64.584 32.400,64.281 32.400 C 64.216 32.400,63.451 33.165,62.581 34.100 M37.305 54.687 C 37.914 54.779,38.814 54.777,39.305 54.682 C 39.797 54.587,39.300 54.511,38.200 54.514 C 37.100 54.517,36.697 54.595,37.305 54.687 M27.107 55.090 C 27.826 55.179,28.906 55.177,29.507 55.086 C 30.108 54.995,29.520 54.922,28.200 54.924 C 26.880 54.926,26.388 55.001,27.107 55.090 M21.078 85.013 C 20.460 85.556,20.114 86.000,20.308 86.000 C 20.502 86.000,21.083 85.550,21.600 85.000 C 22.795 83.728,22.531 83.734,21.078 85.013 M15.105 86.683 C 15.602 86.779,16.322 86.775,16.705 86.675 C 17.087 86.575,16.680 86.496,15.800 86.501 C 14.920 86.505,14.607 86.587,15.105 86.683 M12.128 124.400 C 12.128 125.830,12.201 126.415,12.289 125.700 C 12.378 124.985,12.378 123.815,12.289 123.100 C 12.201 122.385,12.128 122.970,12.128 124.400 M76.705 125.483 C 77.202 125.579,77.922 125.575,78.305 125.475 C 78.687 125.375,78.280 125.296,77.400 125.301 C 76.520 125.305,76.207 125.387,76.705 125.483 M313.228 233.300 C 313.197 238.988,313.188 238.961,314.419 236.969 C 315.468 235.273,315.344 232.895,314.057 230.000 L 313.257 228.200 313.228 233.300 M313.200 294.781 L 313.200 341.609 316.348 347.905 C 320.529 356.265,323.200 363.003,323.200 365.189 C 323.200 367.302,322.324 367.273,318.568 365.038 C 317.266 364.263,315.570 363.577,314.800 363.514 L 313.400 363.400 313.284 367.167 C 313.181 370.513,313.290 371.227,314.262 373.567 C 315.802 377.277,315.813 380.968,314.293 383.933 L 313.200 386.066 313.200 396.194 L 313.200 406.322 314.460 406.761 C 316.869 407.601,320.497 407.310,322.854 406.088 C 325.218 404.862,326.620 402.581,329.749 394.868 C 330.522 392.960,332.440 388.250,334.010 384.400 C 337.780 375.158,339.594 370.342,339.597 369.567 C 339.604 368.018,343.712 364.802,349.809 361.573 C 358.143 357.158,358.922 356.092,357.795 350.639 C 356.231 343.064,353.181 339.584,343.400 334.209 C 334.500 329.318,332.425 326.849,332.409 321.126 C 332.391 315.038,334.567 307.964,339.916 296.722 C 343.354 289.496,342.505 289.629,356.200 294.185 C 373.400 299.907,373.804 300.164,381.425 310.265 C 388.537 319.691,389.756 320.208,393.787 315.510 C 401.346 306.702,400.413 299.272,390.525 289.545 C 374.805 274.081,361.538 264.479,354.929 263.782 C 346.257 262.869,322.915 254.418,315.800 249.616 C 314.920 249.022,313.975 248.405,313.700 248.244 C 313.301 248.012,313.200 257.430,313.200 294.781 M74.000 262.125 C 74.000 262.194,74.585 262.779,75.300 263.425 L 76.600 264.600 75.425 263.300 C 74.330 262.088,74.000 261.816,74.000 262.125 M67.993 279.700 C 70.299 282.065,72.234 284.000,72.293 284.000 C 72.582 284.000,72.094 283.487,68.100 279.593 L 63.800 275.400 67.993 279.700 M78.514 307.800 C 78.517 308.900,78.595 309.303,78.687 308.695 C 78.779 308.086,78.777 307.186,78.682 306.695 C 78.587 306.203,78.511 306.700,78.514 307.800 M78.446 325.667 C 78.421 326.034,78.296 326.664,78.170 327.067 C 77.952 327.762,77.963 327.763,78.397 327.087 C 78.648 326.696,78.773 326.066,78.673 325.687 C 78.511 325.068,78.488 325.066,78.446 325.667 M73.000 351.600 C 73.859 352.480,74.652 353.200,74.762 353.200 C 74.872 353.200,74.259 352.480,73.400 351.600 C 72.541 350.720,71.748 350.000,71.638 350.000 C 71.528 350.000,72.141 350.720,73.000 351.600 " stroke="none" fill="#9c4c4c" fill-rule="evenodd"></path><path id="path2" d="M65.000 32.340 C 62.480 33.887,59.836 37.283,55.641 44.358 C 50.063 53.765,49.307 54.133,34.200 54.803 C 20.039 55.431,19.487 55.554,15.749 58.933 C 10.890 63.324,11.210 65.907,17.418 72.400 C 27.017 82.439,25.522 86.223,11.735 86.788 C -1.540 87.332,-1.772 88.587,7.962 107.200 C 11.258 113.503,12.385 118.532,12.400 127.000 C 12.427 142.301,17.192 145.077,33.196 139.115 C 42.293 135.726,42.713 135.838,41.213 141.251 C 37.760 153.712,41.455 161.635,50.749 161.694 C 57.693 161.737,59.385 159.130,63.804 141.584 C 67.312 127.655,68.510 125.608,73.160 125.597 C 73.952 125.595,75.545 125.480,76.700 125.341 L 78.800 125.089 78.800 90.198 L 78.800 55.307 76.799 53.153 C 71.842 47.819,71.102 46.368,69.607 39.059 C 68.200 32.177,67.330 30.909,65.000 32.340 M65.616 259.242 C 64.116 261.312,62.919 264.488,62.318 267.996 C 61.572 272.346,62.000 273.224,67.759 279.159 C 76.069 287.724,76.682 289.124,78.368 303.400 C 78.581 305.201,78.717 299.297,78.749 286.852 L 78.800 267.504 75.328 263.518 C 69.762 257.126,67.780 256.254,65.616 259.242 M77.855 328.600 C 77.445 329.700,75.871 332.873,74.357 335.651 C 68.922 345.621,69.480 350.049,76.704 354.282 C 78.993 355.624,78.824 356.765,78.705 340.761 L 78.600 326.600 77.855 328.600 " stroke="none" fill="#38946c" fill-rule="evenodd"></path><path id="path3" d="M246.000 203.725 C 246.000 203.794,246.585 204.379,247.300 205.025 L 248.600 206.200 247.425 204.900 C 246.330 203.688,246.000 203.416,246.000 203.725 M312.558 233.400 C 312.558 236.480,312.621 237.687,312.697 236.082 C 312.773 234.478,312.773 231.958,312.696 230.482 C 312.619 229.007,312.557 230.320,312.558 233.400 M312.303 293.638 C 312.247 318.959,312.335 339.760,312.500 339.862 C 312.665 339.964,312.800 319.247,312.800 293.824 C 312.800 268.401,312.712 247.600,312.603 247.600 C 312.495 247.600,312.360 268.317,312.303 293.638 M122.128 300.400 C 122.128 301.830,122.201 302.415,122.289 301.700 C 122.378 300.985,122.378 299.815,122.289 299.100 C 122.201 298.385,122.128 298.970,122.128 300.400 M92.571 351.703 L 91.400 352.997 92.600 351.999 C 93.260 351.449,93.875 350.955,93.967 350.900 C 94.058 350.845,94.045 350.712,93.938 350.604 C 93.830 350.496,93.215 350.991,92.571 351.703 M312.324 387.900 C 312.256 388.065,312.295 392.160,312.412 397.000 L 312.624 405.800 312.712 396.700 C 312.791 388.504,312.722 386.933,312.324 387.900 M239.729 443.500 C 247.170 443.561,259.230 443.561,266.529 443.500 C 273.828 443.439,267.740 443.389,253.000 443.389 C 238.260 443.389,232.288 443.439,239.729 443.500 " stroke="none" fill="#ececf4" fill-rule="evenodd"></path><path id="path4" d="M170.000 4.977 C 168.570 5.252,163.440 6.393,158.600 7.513 C 153.760 8.633,147.921 9.945,145.624 10.429 L 141.448 11.308 135.891 15.554 C 132.835 17.889,130.124 19.740,129.867 19.667 C 129.610 19.593,129.525 19.658,129.678 19.811 C 129.831 19.964,129.381 20.550,128.678 21.113 C 125.471 23.684,121.730 27.687,119.605 30.821 C 113.393 39.983,106.449 40.614,98.409 32.748 C 93.987 28.422,93.479 28.228,91.388 30.064 C 88.631 32.484,87.283 36.319,85.374 47.160 C 83.211 59.444,83.114 59.659,80.764 57.365 L 79.200 55.838 79.200 90.464 L 79.200 125.090 81.872 125.363 C 88.031 125.994,92.902 129.334,99.341 137.340 C 103.178 142.111,105.143 143.855,107.277 144.385 C 113.811 146.008,114.867 147.445,118.461 159.600 C 119.339 162.570,120.884 167.610,121.894 170.800 C 122.904 173.990,123.740 176.915,123.751 177.300 C 123.762 177.685,123.898 178.000,124.054 178.000 C 124.333 178.000,125.783 181.831,125.794 182.600 C 125.797 182.820,125.911 183.090,126.046 183.200 C 126.592 183.643,128.016 186.851,127.813 187.180 C 127.693 187.373,127.743 187.592,127.923 187.666 C 128.104 187.740,129.193 189.510,130.343 191.600 C 134.264 198.723,139.145 204.977,147.043 213.000 C 149.643 215.640,151.716 217.980,151.651 218.200 C 151.586 218.420,151.660 218.474,151.814 218.319 C 151.969 218.165,153.739 219.493,155.747 221.270 C 159.112 224.247,165.280 228.988,173.610 235.000 C 179.560 239.294,195.557 254.072,195.261 255.000 C 195.191 255.220,195.255 255.278,195.404 255.129 C 195.554 254.980,197.136 256.012,198.920 257.423 C 204.576 261.896,213.534 264.892,223.400 265.611 C 238.906 266.740,242.554 268.687,248.070 278.773 C 251.781 285.559,257.475 290.400,261.748 290.400 C 262.712 290.400,267.959 292.380,270.881 293.846 C 276.163 296.496,277.035 297.829,278.593 305.644 C 280.266 314.038,280.949 314.692,289.000 315.620 C 295.956 316.422,301.276 318.105,300.553 319.276 C 300.392 319.537,300.456 319.612,300.708 319.457 C 301.143 319.188,302.646 320.970,302.876 322.027 C 302.944 322.340,303.209 322.778,303.465 322.999 C 303.721 323.219,304.496 324.750,305.187 326.400 C 306.622 329.826,308.854 334.001,310.956 337.191 L 312.400 339.382 312.400 293.541 L 312.400 247.701 311.000 246.172 C 310.230 245.331,309.600 244.261,309.600 243.792 C 309.600 243.324,310.230 242.055,311.000 240.972 L 312.400 239.003 312.400 233.263 C 312.400 223.172,311.180 222.629,296.622 226.239 C 285.522 228.991,278.389 229.077,273.394 226.521 C 270.268 224.921,264.411 220.706,264.689 220.256 C 264.818 220.047,264.755 219.980,264.550 220.108 C 263.746 220.604,248.175 206.687,248.659 205.905 C 248.809 205.662,248.737 205.592,248.493 205.743 C 247.693 206.237,238.168 194.330,238.666 193.459 C 238.810 193.206,238.779 193.135,238.596 193.301 C 237.463 194.329,233.358 184.178,232.787 178.933 C 231.985 171.577,231.309 169.639,228.227 165.854 C 227.252 164.658,226.577 163.556,226.727 163.406 C 226.877 163.256,226.808 163.193,226.573 163.267 C 226.338 163.340,224.718 161.988,222.973 160.262 C 218.699 156.035,211.618 150.377,203.400 144.621 C 185.625 132.173,179.980 126.056,179.947 119.209 C 179.925 114.667,182.603 111.842,189.423 109.216 C 197.600 106.068,197.508 104.627,188.593 96.215 C 185.610 93.401,183.251 91.016,183.351 90.916 C 183.451 90.815,183.188 90.388,182.767 89.967 C 180.190 87.390,183.310 81.842,189.637 77.749 C 200.365 70.809,214.522 67.698,224.021 70.193 C 228.571 71.387,229.872 71.453,230.152 70.500 C 231.929 64.449,230.195 59.448,225.158 56.100 C 220.913 53.278,220.017 51.805,219.503 46.800 C 219.391 45.708,219.427 45.770,217.403 43.262 C 215.354 40.724,215.504 39.853,218.575 36.428 C 226.206 27.918,224.784 26.155,209.355 24.992 C 199.315 24.234,190.400 22.229,190.400 20.727 C 190.400 20.521,190.243 20.450,190.050 20.569 C 189.059 21.182,179.720 13.616,180.273 12.648 C 180.413 12.401,180.378 12.336,180.195 12.502 C 179.739 12.916,177.743 9.820,176.969 7.500 C 175.930 4.383,174.944 4.026,170.000 4.977 M101.665 258.856 C 100.699 259.081,98.264 260.390,96.173 261.808 C 88.662 266.901,83.700 269.223,81.602 268.628 C 78.920 267.867,79.200 262.845,79.200 311.734 L 79.200 355.522 80.460 355.961 C 83.655 357.075,87.400 356.263,90.291 353.830 C 90.950 353.276,91.633 352.952,91.809 353.111 C 91.984 353.270,92.016 353.204,91.880 352.963 C 91.743 352.723,92.274 351.913,93.059 351.163 C 93.845 350.414,95.885 348.090,97.592 346.000 C 105.130 336.770,107.022 335.716,113.735 337.000 C 124.074 338.979,125.849 335.455,123.405 317.800 C 122.085 308.266,121.944 299.798,122.920 288.600 C 124.061 275.495,123.977 275.068,119.075 269.000 C 112.871 261.322,106.645 257.694,101.665 258.856 M275.441 383.389 C 273.264 384.371,271.329 385.080,271.141 384.964 C 270.954 384.848,270.800 384.942,270.800 385.173 C 270.800 386.439,245.701 397.249,241.775 397.673 C 241.129 397.743,240.499 397.936,240.375 398.102 C 240.008 398.595,228.503 401.158,225.431 401.431 C 222.274 401.712,222.365 401.739,213.600 397.884 C 203.711 393.534,199.257 392.596,193.809 393.718 C 189.959 394.510,189.760 394.463,185.869 391.841 C 180.854 388.461,178.755 389.413,174.830 396.847 C 173.857 398.691,172.462 401.098,171.730 402.195 C 169.771 405.132,170.288 406.328,177.630 415.856 C 179.349 418.086,180.720 419.976,180.678 420.056 C 180.635 420.135,180.669 420.161,180.753 420.114 C 181.004 419.972,182.609 422.158,182.500 422.492 C 182.445 422.662,182.535 422.764,182.700 422.721 C 182.865 422.677,184.966 424.653,187.369 427.112 C 192.228 432.086,195.531 434.094,201.288 435.577 C 215.746 439.301,219.037 440.246,222.000 441.529 L 225.400 443.000 252.700 443.105 L 280.000 443.211 280.000 441.953 C 280.000 440.406,279.143 438.959,275.097 433.676 C 273.360 431.407,271.656 428.887,271.310 428.076 C 270.612 426.438,270.103 418.891,270.612 417.723 C 270.785 417.325,270.888 416.766,270.841 416.480 C 270.528 414.570,273.102 405.778,278.163 391.476 C 281.769 381.281,281.551 380.634,275.441 383.389 M310.307 391.290 C 305.753 398.486,305.720 400.578,310.109 404.050 L 312.200 405.703 312.313 401.230 C 312.376 398.769,312.376 394.853,312.313 392.528 L 312.200 388.300 310.307 391.290 " stroke="none" fill="#f4f4fc" fill-rule="evenodd"></path></g></svg>