<svg width="32" height="32" viewBox="0 0 32 32" fill="none" xmlns="http://www.w3.org/2000/svg">
<g clip-path="url(#clip0_173_1190)">
<path d="M1.99961 2.17699C-0.515052 4.78899 -0.000385359 7.56366 -0.000385359 15.993C-0.000385359 22.993 -1.22172 30.0103 5.17028 31.6623C7.16628 32.1757 24.8516 32.1757 26.8449 31.6597C29.5063 30.973 31.6716 28.8143 31.9676 25.0503C32.0089 24.525 32.0089 7.47032 31.9663 6.93432C31.6516 2.92499 29.1836 0.614322 25.9316 0.146322C25.1863 0.0383216 25.0369 0.00632163 21.2129 -0.000345036C7.64895 0.00632163 4.67561 -0.597679 1.99961 2.17699Z" fill="#C7C7C7"/>
<path d="M15.9968 4.18523C11.1554 4.18523 6.55809 3.75456 4.80209 8.26123C4.07676 10.1226 4.18209 12.5399 4.18209 16.0012C4.18209 19.0386 4.08476 21.8932 4.80209 23.7399C6.55409 28.2492 11.1888 27.8172 15.9941 27.8172C20.6301 27.8172 25.4101 28.2999 27.1874 23.7399C27.9141 21.8599 27.8074 19.4786 27.8074 16.0012C27.8074 11.3852 28.0621 8.40523 25.8234 6.1679C23.5568 3.90123 20.4914 4.18523 15.9914 4.18523H15.9968ZM14.9381 6.31456C25.0368 6.29856 26.3221 5.1759 25.6128 20.7719C25.3608 26.2879 21.1608 25.6826 15.9981 25.6826C6.58476 25.6826 6.31409 25.4132 6.31409 15.9959C6.31409 6.46923 7.06076 6.3199 14.9381 6.3119V6.31456ZM22.3034 8.2759C21.5208 8.2759 20.8861 8.91056 20.8861 9.69323C20.8861 10.4759 21.5208 11.1106 22.3034 11.1106C23.0861 11.1106 23.7208 10.4759 23.7208 9.69323C23.7208 8.91056 23.0861 8.2759 22.3034 8.2759ZM15.9968 9.93323C12.6461 9.93323 9.93009 12.6506 9.93009 16.0012C9.93009 19.3519 12.6461 22.0679 15.9968 22.0679C19.3474 22.0679 22.0621 19.3519 22.0621 16.0012C22.0621 12.6506 19.3474 9.93323 15.9968 9.93323ZM15.9968 12.0626C21.2034 12.0626 21.2101 19.9399 15.9968 19.9399C10.7914 19.9399 10.7834 12.0626 15.9968 12.0626Z" fill="white"/>
<path d="M16.0074 0.242432C9.42771 0.242432 7.50341 0.24922 7.12936 0.28025C5.7791 0.392492 4.93888 0.605098 4.02351 1.06086C3.31808 1.41116 2.76173 1.81722 2.21266 2.38643C1.21269 3.42449 0.606648 4.70158 0.387261 6.21964C0.280597 6.95661 0.249568 7.10692 0.243265 10.8713C0.240841 12.1261 0.243265 13.7775 0.243265 15.9925C0.243265 22.567 0.250537 24.4895 0.282052 24.8628C0.391139 26.1767 0.597194 27.0034 1.03354 27.9076C1.86746 29.6386 3.46014 30.9379 5.33644 31.4228C5.98612 31.5901 6.70368 31.6822 7.62486 31.7258C8.01515 31.7428 11.9932 31.7549 15.9737 31.7549C19.9542 31.7549 23.9347 31.7501 24.3153 31.7307C25.3819 31.6805 26.0013 31.5973 26.6861 31.4204C28.5745 30.9331 30.1381 29.6531 30.989 27.8979C31.4169 27.0155 31.6338 26.1573 31.732 24.912C31.7533 24.6405 31.7623 20.3115 31.7623 15.9884C31.7623 11.6645 31.7526 7.34352 31.7313 7.07201C31.6319 5.80655 31.4149 4.95564 30.9732 4.05625C30.6108 3.32001 30.2084 2.77019 29.6242 2.20801C28.5816 1.21213 27.3064 0.606068 25.787 0.386916C25.0508 0.280492 24.9041 0.248977 21.1369 0.242432H16.0074Z" fill="url(#paint0_radial_173_1190)"/>
<path d="M16.0074 0C9.42771 0 7.50341 0.00678788 7.12936 0.0378182C5.7791 0.150061 4.93888 0.362667 4.02351 0.818424C3.31808 1.16873 2.76173 1.57479 2.21266 2.144C1.21269 3.18206 0.606648 4.45915 0.387261 5.97721C0.280597 6.71418 0.249568 6.86449 0.243265 10.6288C0.240841 11.8836 0.243265 13.535 0.243265 15.7501C0.243265 22.3246 0.250537 24.247 0.282052 24.6204C0.391139 25.9343 0.597194 26.761 1.03354 27.6652C1.86746 29.3961 3.46014 30.6955 5.33644 31.1804C5.98612 31.3476 6.70368 31.4398 7.62486 31.4834C8.01515 31.5004 11.9932 31.5125 15.9737 31.5125C19.9542 31.5125 23.9347 31.5076 24.3153 31.4882C25.3819 31.4381 26.0013 31.3549 26.6861 31.1779C28.5745 30.6907 30.1381 29.4107 30.989 27.6555C31.4169 26.7731 31.6338 25.9149 31.732 24.6696C31.7533 24.3981 31.7623 20.0691 31.7623 15.7459C31.7623 11.4221 31.7526 7.10109 31.7313 6.82958C31.6319 5.56412 31.4149 4.71321 30.9732 3.81382C30.6108 3.07758 30.2084 2.52776 29.6242 1.96558C28.5816 0.969697 27.3064 0.363636 25.787 0.144485C25.0508 0.0380606 24.9041 0.00654545 21.1369 0H16.0074Z" fill="url(#paint1_radial_173_1190)"/>
<path d="M16.0003 4.12109C12.8401 4.12109 12.4435 4.13491 11.2023 4.1914C9.9636 4.24812 9.11805 4.44425 8.37819 4.732C7.61288 5.02922 6.96369 5.42679 6.31692 6.07382C5.66967 6.72061 5.2721 7.36982 4.97393 8.13491C4.68545 8.87503 4.4891 9.72085 4.43334 10.9592C4.37783 12.2004 4.36328 12.5972 4.36328 15.7575C4.36328 18.9177 4.37734 19.3131 4.43358 20.5543C4.49055 21.7931 4.68667 22.6387 4.97417 23.3785C5.27162 24.1439 5.66918 24.7931 6.31619 25.4399C6.96272 26.0872 7.61191 26.4857 8.37674 26.7829C9.11708 27.0707 9.96287 27.2668 11.2014 27.3235C12.4426 27.38 12.8389 27.3938 15.9988 27.3938C19.1592 27.3938 19.5546 27.38 20.7958 27.3235C22.0345 27.2668 22.881 27.0707 23.6214 26.7829C24.3864 26.4857 25.0347 26.0872 25.6812 25.4399C26.3284 24.7931 26.726 24.1439 27.0242 23.3788C27.3102 22.6387 27.5066 21.7929 27.5648 20.5545C27.6205 19.3133 27.6351 18.9177 27.6351 15.7575C27.6351 12.5972 27.6205 12.2006 27.5648 10.9594C27.5066 9.72061 27.3102 8.87503 27.0242 8.13515C26.726 7.36982 26.3284 6.72061 25.6812 6.07382C25.0339 5.42655 24.3867 5.02897 23.6206 4.732C22.8788 4.44425 22.0328 4.24812 20.7941 4.1914C19.5529 4.13491 19.1577 4.12109 15.9966 4.12109H16.0003ZM14.9564 6.21806C15.2662 6.21758 15.6119 6.21806 16.0003 6.21806C19.1071 6.21806 19.4753 6.22922 20.7022 6.28497C21.8367 6.33685 22.4524 6.52643 22.8626 6.6857C23.4056 6.89661 23.7928 7.14873 24.1998 7.556C24.607 7.96328 24.8591 8.35115 25.0705 8.89418C25.2298 9.30388 25.4196 9.91964 25.4712 11.0542C25.527 12.2809 25.5391 12.6493 25.5391 15.7548C25.5391 18.8602 25.527 19.2287 25.4712 20.4554C25.4194 21.5899 25.2298 22.2057 25.0705 22.6154C24.8596 23.1584 24.607 23.5451 24.1998 23.9521C23.7925 24.3594 23.4059 24.6115 22.8626 24.8224C22.4529 24.9824 21.8367 25.1715 20.7022 25.2234C19.4756 25.2792 19.1071 25.2913 16.0003 25.2913C12.8932 25.2913 12.525 25.2792 11.2983 25.2234C10.1638 25.171 9.54809 24.9815 9.13768 24.8222C8.59467 24.6113 8.2068 24.3592 7.79954 23.9519C7.39228 23.5446 7.14017 23.1577 6.92878 22.6144C6.76951 22.2047 6.5797 21.589 6.52806 20.4544C6.47231 19.2278 6.46116 18.8593 6.46116 15.7519C6.46116 12.6445 6.47231 12.2779 6.52806 11.0513C6.57994 9.91673 6.76951 9.30097 6.92878 8.89079C7.13968 8.34776 7.39228 7.95988 7.79954 7.55261C8.2068 7.14534 8.59467 6.89321 9.13768 6.68182C9.54785 6.52182 10.1638 6.33273 11.2983 6.28061C12.3718 6.23212 12.7878 6.21758 14.9564 6.21515V6.21806ZM22.2115 8.15018C21.4406 8.15018 20.8151 8.77491 20.8151 9.54606C20.8151 10.317 21.4406 10.9424 22.2115 10.9424C22.9824 10.9424 23.6078 10.317 23.6078 9.54606C23.6078 8.77515 22.9824 8.1497 22.2115 8.1497V8.15018ZM16.0003 9.7817C12.7002 9.7817 10.0247 12.4573 10.0247 15.7575C10.0247 19.0576 12.7002 21.732 16.0003 21.732C19.3003 21.732 21.9749 19.0576 21.9749 15.7575C21.9749 12.4573 19.3 9.7817 16 9.7817H16.0003ZM16.0003 11.8787C18.1423 11.8787 19.8789 13.6152 19.8789 15.7575C19.8789 17.8995 18.1423 19.6362 16.0003 19.6362C13.858 19.6362 12.1216 17.8995 12.1216 15.7575C12.1216 13.6152 13.858 11.8787 16.0003 11.8787V11.8787Z" fill="white"/>
</g>
<defs>
<radialGradient id="paint0_radial_173_1190" cx="0" cy="0" r="1" gradientUnits="userSpaceOnUse" gradientTransform="translate(8.61476 34.182) rotate(-90) scale(31.2312 29.0545)">
<stop stop-color="#FFDD55"/>
<stop offset="0.1" stop-color="#FFDD55"/>
<stop offset="0.5" stop-color="#FF543E"/>
<stop offset="1" stop-color="#C837AB"/>
</radialGradient>
<radialGradient id="paint1_radial_173_1190" cx="0" cy="0" r="1" gradientUnits="userSpaceOnUse" gradientTransform="translate(-5.0376 2.27011) rotate(78.678) scale(13.9606 57.5591)">
<stop stop-color="#3771C8"/>
<stop offset="0.128" stop-color="#3771C8"/>
<stop offset="1" stop-color="#6600FF" stop-opacity="0"/>
</radialGradient>
<clipPath id="clip0_173_1190">
<rect width="32" height="32" fill="white"/>
</clipPath>
</defs>
</svg>
