<svg width="141" height="212" viewBox="0 0 141 212" fill="none" xmlns="http://www.w3.org/2000/svg">
<circle cx="70.5" cy="49.5" r="45.5" stroke="#009EE3" stroke-width="8"/>
<ellipse cx="70.5" cy="49.5" rx="34.5" ry="33.5" fill="#009EE3"/>
<ellipse cx="71" cy="159.5" rx="20" ry="12.5" fill="#009EE3" fill-opacity="0.2"/>
<g filter="url(#filter0_f_14818_15317)">
<ellipse cx="70.5" cy="159.5" rx="48.5" ry="30.5" fill="#74D5FF" fill-opacity="0.2"/>
</g>
<ellipse cx="70.5" cy="159.5" rx="31.5" ry="19.5" fill="#009EE3" fill-opacity="0.2"/>
<path d="M65.8398 106.996C65.8398 106.996 67.9153 107.778 71.3681 107.78C74.8209 107.783 76.1498 106.996 76.1498 106.996L73.5723 157.473C73.5723 157.473 73.1638 157.906 71.2306 157.906C69.2975 157.906 69.0617 157.473 69.0617 157.473L65.8398 106.996Z" fill="#009EE3"/>
<path fill-rule="evenodd" clip-rule="evenodd" d="M68.6233 41.553C70.2674 43.1849 70.2674 45.829 68.6233 47.4588C66.9793 49.0907 64.3154 49.0907 62.6735 47.4588C61.0294 45.8269 61.0294 43.1828 62.6735 41.553C64.3175 39.9211 66.9813 39.9211 68.6233 41.553Z" fill="white"/>
<path fill-rule="evenodd" clip-rule="evenodd" d="M78.3762 51.2319C80.0203 52.8637 80.0203 55.5079 78.3762 57.1377C76.7322 58.7695 74.0684 58.7695 72.4264 57.1377C70.7823 55.5058 70.7823 52.8617 72.4264 51.2319C74.0684 49.6021 76.7322 49.6021 78.3762 51.2319Z" fill="white"/>
<path fill-rule="evenodd" clip-rule="evenodd" d="M78.2238 41.5962C79.8679 43.2281 79.8679 45.8722 78.2238 47.502C76.5798 49.1339 73.916 49.1339 72.274 47.502C70.6299 45.8701 70.6299 43.226 72.274 41.5962C73.916 39.9664 76.5798 39.9664 78.2238 41.5962Z" fill="white"/>
<path fill-rule="evenodd" clip-rule="evenodd" d="M68.4729 51.2749C70.117 52.9067 70.117 55.5508 68.4729 57.1807C66.8289 58.8105 64.165 58.8125 62.5231 57.1807C60.879 55.5488 60.879 52.9047 62.5231 51.2749C64.165 49.645 66.8289 49.645 68.4729 51.2749Z" fill="white"/>
<path fill-rule="evenodd" clip-rule="evenodd" d="M58.2437 41.588C59.6241 41.7577 60.545 43.4652 60.304 45.3997C60.0608 47.3343 58.7464 48.7637 57.3661 48.594C55.9858 48.4242 55.0649 46.7167 55.3059 44.7822C55.549 42.8476 56.8634 41.4162 58.2437 41.588Z" fill="white"/>
<path fill-rule="evenodd" clip-rule="evenodd" d="M62.6173 61.6223C62.7883 60.2522 64.5086 59.3381 66.4575 59.5773C68.4065 59.8187 69.8465 61.1233 69.6755 62.4934C69.5045 63.8636 67.7843 64.7777 65.8353 64.5384C63.8864 64.2991 62.4463 62.9924 62.6173 61.6223Z" fill="white"/>
<path fill-rule="evenodd" clip-rule="evenodd" d="M57.1462 50.2322C58.5183 50.0011 59.8946 51.3733 60.2242 53.2955C60.5518 55.2178 59.7071 56.9621 58.335 57.1932C56.9629 57.4243 55.5867 56.0521 55.257 54.1298C54.9295 52.2096 55.7742 50.4633 57.1462 50.2322Z" fill="white"/>
<path fill-rule="evenodd" clip-rule="evenodd" d="M71.3928 62.6488C71.16 61.2869 72.5424 59.9209 74.479 59.5937C76.4156 59.2685 78.1729 60.107 78.4057 61.4689C78.6385 62.8308 77.2561 64.1969 75.3195 64.524C73.385 64.8492 71.6256 64.0108 71.3928 62.6488Z" fill="white"/>
<path fill-rule="evenodd" clip-rule="evenodd" d="M53.6599 44.0398C54.313 44.1727 54.6591 45.277 54.4325 46.506C54.2059 47.7351 53.4951 48.6246 52.842 48.4917C52.189 48.3588 51.8428 47.2545 52.0695 46.0255C52.2961 44.7965 53.0069 43.9069 53.6599 44.0398Z" fill="white"/>
<path fill-rule="evenodd" clip-rule="evenodd" d="M65.1099 66.152C65.2438 65.5037 66.3564 65.1602 67.5945 65.3851C68.8327 65.6101 69.7289 66.3156 69.595 66.9638C69.4611 67.6121 68.3486 67.9556 67.1104 67.7307C65.8722 67.5057 64.976 66.8002 65.1099 66.152Z" fill="white"/>
<path fill-rule="evenodd" clip-rule="evenodd" d="M52.857 50.369C53.5142 50.2585 54.2373 51.1645 54.4742 52.3914C54.7111 53.6184 54.3691 54.7022 53.7119 54.8126C53.0547 54.9231 52.3316 54.0172 52.0947 52.7902C51.8578 51.5632 52.1998 50.4794 52.857 50.369Z" fill="white"/>
<path fill-rule="evenodd" clip-rule="evenodd" d="M71.4564 66.9802C71.3452 66.3278 72.2579 65.6101 73.494 65.3749C74.7301 65.1397 75.822 65.4792 75.9333 66.1315C76.0445 66.7838 75.1318 67.5016 73.8957 67.7368C72.6596 67.9719 71.5677 67.6325 71.4564 66.9802Z" fill="white"/>
<path fill-rule="evenodd" clip-rule="evenodd" d="M56.8416 59.3911C57.3937 58.8103 58.7637 59.2316 59.9051 60.3298C61.0464 61.4299 61.5244 62.7898 60.9743 63.3706C60.4222 63.9514 59.0522 63.5301 57.9108 62.432C56.7695 61.3338 56.2915 59.9719 56.8416 59.3911Z" fill="white"/>
<path fill-rule="evenodd" clip-rule="evenodd" d="M80.1564 63.4343C79.5713 62.8862 79.9957 61.5263 81.1021 60.3934C82.2105 59.2605 83.5805 58.7861 84.1656 59.3321C84.7507 59.8802 84.3263 61.2401 83.22 62.373C82.1136 63.5059 80.7415 63.9803 80.1564 63.4343Z" fill="white"/>
<path fill-rule="evenodd" clip-rule="evenodd" d="M82.8325 57.1827C81.4522 57.0151 80.5271 55.3096 80.7661 53.3751C81.0051 51.4405 82.3175 50.007 83.6978 50.1747C85.0781 50.3424 86.0032 52.0479 85.7642 53.9824C85.5252 55.9169 84.2129 57.3504 82.8325 57.1827Z" fill="white"/>
<path fill-rule="evenodd" clip-rule="evenodd" d="M78.3872 37.187C78.2183 38.5571 76.5001 39.4753 74.5511 39.2381C72.6022 39.0009 71.158 37.6983 71.3269 36.3282C71.4958 34.958 73.2141 34.0399 75.163 34.2771C77.1119 34.5143 78.5561 35.8169 78.3872 37.187Z" fill="white"/>
<path fill-rule="evenodd" clip-rule="evenodd" d="M83.8642 48.5837C82.4942 48.8168 81.1139 47.4488 80.7822 45.5265C80.4505 43.6043 81.2931 41.8579 82.6631 41.6248C84.0332 41.3916 85.4135 42.7597 85.7452 44.682C86.0769 46.6022 85.2363 48.3506 83.8642 48.5837Z" fill="white"/>
<path fill-rule="evenodd" clip-rule="evenodd" d="M69.6736 36.1136C69.9085 37.4735 68.5302 38.8436 66.5936 39.1729C64.6571 39.5021 62.8976 38.6657 62.6628 37.3058C62.4279 35.9459 63.8062 34.5758 65.7428 34.2466C67.6794 33.9174 69.4388 34.7517 69.6736 36.1136Z" fill="white"/>
<path fill-rule="evenodd" clip-rule="evenodd" d="M87.3293 54.8024C86.6763 54.6715 86.3281 53.5672 86.5506 52.3382C86.7731 51.1092 87.4839 50.2176 88.1369 50.3505C88.79 50.4814 89.1382 51.5857 88.9157 52.8147C88.6932 54.0437 87.9824 54.9353 87.3293 54.8024Z" fill="white"/>
<path fill-rule="evenodd" clip-rule="evenodd" d="M75.9084 32.6413C75.7766 33.2895 74.6641 33.6351 73.4259 33.4143C72.1877 33.1934 71.2895 32.4879 71.4234 31.8397C71.5552 31.1914 72.6677 30.8458 73.9059 31.0667C75.1441 31.2875 76.0403 31.993 75.9084 32.6413Z" fill="white"/>
<path fill-rule="evenodd" clip-rule="evenodd" d="M88.1666 48.4262C87.5094 48.5366 86.7842 47.6328 86.5452 46.4058C86.3062 45.1788 86.6462 44.095 87.3034 43.9825C87.9606 43.8721 88.6858 44.776 88.9248 46.0029C89.1617 47.2319 88.8238 48.3158 88.1666 48.4262Z" fill="white"/>
<path fill-rule="evenodd" clip-rule="evenodd" d="M69.527 31.8559C69.6383 32.5083 68.7277 33.2281 67.4916 33.4653C66.2554 33.7025 65.1635 33.3651 65.0502 32.7128C64.939 32.0604 65.8496 31.3406 67.0857 31.1034C68.3239 30.8682 69.4158 31.2036 69.527 31.8559Z" fill="white"/>
<path fill-rule="evenodd" clip-rule="evenodd" d="M80.5348 35.8743C81.087 35.2935 82.457 35.7148 83.5984 36.8129C84.7397 37.9131 85.2177 39.273 84.6676 39.8537C84.1155 40.4345 82.7454 40.0132 81.6041 38.9151C80.4627 37.8149 79.9827 36.455 80.5348 35.8743Z" fill="white"/>
<path fill-rule="evenodd" clip-rule="evenodd" d="M56.4641 39.9152C55.879 39.3671 56.3034 38.0072 57.4097 36.8743C58.5181 35.7414 59.8882 35.267 60.4733 35.813C61.0584 36.3611 60.6339 37.7209 59.5276 38.8539C58.4192 39.9868 57.0471 40.4632 56.4641 39.9152Z" fill="white"/>
<defs>
<filter id="filter0_f_14818_15317" x="0" y="107" width="141" height="105" filterUnits="userSpaceOnUse" color-interpolation-filters="sRGB">
<feFlood flood-opacity="0" result="BackgroundImageFix"/>
<feBlend mode="normal" in="SourceGraphic" in2="BackgroundImageFix" result="shape"/>
<feGaussianBlur stdDeviation="11" result="effect1_foregroundBlur_14818_15317"/>
</filter>
</defs>
</svg>
