<svg width="32" height="32" viewBox="0 0 32 32" fill="none" xmlns="http://www.w3.org/2000/svg">
<path fill-rule="evenodd" clip-rule="evenodd" d="M4.35911 0H27.64C30.048 0 32 1.952 32 4.35911V27.64C32 30.048 30.048 32 27.6409 32H4.35911C1.952 32 0 30.048 0 27.6409V4.35911C0 1.952 1.952 0 4.35911 0Z" fill="#212121"/>
<path fill-rule="evenodd" clip-rule="evenodd" d="M20.6299 13.1869C22.0308 14.1877 23.7472 14.7762 25.6006 14.7762V11.2109C25.2495 11.2109 24.9001 11.1744 24.557 11.1015V13.9077C22.7037 13.9077 20.9881 13.3184 19.5864 12.3184V19.5931C19.5864 23.2322 16.6344 26.1824 12.9935 26.1824C11.6352 26.1824 10.3721 25.7717 9.32324 25.0677C10.5206 26.2909 12.1899 27.05 14.037 27.05C17.6779 27.05 20.6299 24.0997 20.6299 20.4606V13.1869ZM21.9179 9.59041C21.2024 8.80908 20.7321 7.79841 20.6299 6.68108V6.22241H19.6406C19.8895 7.64197 20.7392 8.8553 21.9179 9.59041ZM11.6264 22.2757C11.2264 21.7513 11.0104 21.1104 11.0112 20.4509C11.0112 18.786 12.3615 17.4366 14.0272 17.4366C14.3375 17.4366 14.6459 17.4837 14.9419 17.578V13.9335C14.5961 13.8864 14.2477 13.866 13.8984 13.8731V16.7095C13.6024 16.6153 13.2939 16.5682 12.9828 16.5682C11.317 16.5682 9.9668 17.9175 9.9668 19.5824C9.96769 20.7602 10.6424 21.7797 11.6264 22.2757Z" fill="#EC407A"/>
<path fill-rule="evenodd" clip-rule="evenodd" d="M19.5858 12.1155C20.9866 13.1164 22.7031 13.7049 24.5564 13.7049V10.8986C23.5218 10.6782 22.6062 10.1378 21.9173 9.38664C20.7386 8.65153 19.8898 7.43909 19.6409 6.01953H17.0426V20.2578C17.0364 21.9173 15.6889 23.2613 14.0266 23.2613C13.0471 23.2613 12.1769 22.7946 11.6258 22.072C10.6418 21.576 9.96709 20.5564 9.96709 19.3795C9.96709 17.7146 11.3173 16.3653 12.9831 16.3653C13.3022 16.3653 13.6098 16.4151 13.8986 16.5066V13.6711C10.3218 13.7449 7.44531 16.6658 7.44531 20.2586C7.44531 22.0524 8.16176 23.6782 9.32442 24.8658C10.3733 25.5698 11.6364 25.9804 12.9946 25.9804C16.6355 25.9804 19.5875 23.0302 19.5875 19.3911L19.5858 12.1155Z" fill="white"/>
<path fill-rule="evenodd" clip-rule="evenodd" d="M24.5568 11.9709V11.2117C23.6235 11.2135 22.7097 10.9522 21.9177 10.458C22.6182 11.2251 23.5408 11.754 24.5568 11.9709ZM19.6404 7.09086C19.6164 6.95486 19.5986 6.81886 19.5862 6.68108V6.22241H15.9986V20.4615C15.9933 22.1211 14.6448 23.4651 12.9826 23.4651C12.4946 23.4651 12.0342 23.3495 11.6262 23.1433C12.1773 23.866 13.0475 24.3326 14.0271 24.3326C15.6893 24.3326 17.0368 22.9886 17.0431 21.3291V7.09086H19.6404ZM13.8982 14.7424V13.9344C13.5986 13.8935 13.2964 13.8731 12.9933 13.8731C9.3515 13.8731 6.40039 16.8233 6.40039 20.4624C6.40039 22.7442 7.56039 24.7549 9.32306 25.9371C8.16039 24.7495 7.44395 23.1237 7.44395 21.33C7.44395 17.7371 10.3213 14.8162 13.8982 14.7424Z" fill="#81D4FA"/>
</svg>
