<svg width="39" height="32" viewBox="0 0 39 32" fill="none" xmlns="http://www.w3.org/2000/svg">
<path d="M39 3.78372C37.5669 4.43035 36.0254 4.86179 34.3995 5.06593C36.0525 4.06621 37.3242 2.47172 37.9211 0.588138C36.3742 1.51172 34.6605 2.19035 32.8374 2.54786C31.3816 0.975448 29.305 0 27.0042 0C22.5845 0 19.0023 3.6171 19.0023 8.07724C19.0023 8.70841 19.0748 9.32304 19.2113 9.92C12.5624 9.58014 6.66519 6.36028 2.72002 1.47421C2.02675 2.66814 1.63678 4.06621 1.63678 5.54152C1.63678 8.34538 3.04608 10.8138 5.19523 12.2681C3.88343 12.2273 2.64853 11.8554 1.56745 11.2596C1.56745 11.2839 1.56745 11.3203 1.56745 11.3545C1.56745 15.2728 4.32647 18.5357 7.9835 19.2783C7.31514 19.4648 6.60887 19.5686 5.88093 19.5686C5.36422 19.5686 4.86051 19.509 4.37305 19.4196C5.3913 22.6218 8.3453 24.9622 11.8453 25.0317C9.10682 27.1945 5.65778 28.4899 1.90759 28.4899C1.25981 28.4899 0.626114 28.4524 0 28.3752C3.54329 30.6604 7.7506 32 12.2666 32C26.9825 32 35.0332 19.6899 35.0332 9.01076C35.0332 8.66097 35.0223 8.31228 35.0061 7.968C36.5768 6.83807 37.9308 5.41241 39 3.78372Z" fill="#03A9F4"/>
</svg>
