<svg width="45" height="32" viewBox="0 0 45 32" fill="none" xmlns="http://www.w3.org/2000/svg">
<path d="M43.5236 5.00645C43.0184 3.04516 41.5028 1.49677 39.583 0.954839C36.1223 1.84582e-07 22.2291 0 22.2291 0C22.2291 0 8.33592 1.84582e-07 4.84999 0.954839C2.9302 1.47097 1.43984 3.01936 0.909373 5.00645C1.20451e-07 8.56774 0 16 0 16C0 16 -6.02254e-08 23.4323 0.934633 26.9935C1.43984 28.9548 2.95546 30.5032 4.87525 31.0452C8.33592 32 22.2291 32 22.2291 32C22.2291 32 36.1223 32 39.6082 31.0452C41.528 30.529 43.0184 28.9806 43.5488 26.9935C44.4582 23.4323 44.4582 16 44.4582 16C44.4582 16 44.4582 8.56774 43.5236 5.00645Z" fill="#EE3124"/>
<path d="M17.6816 22.7613V9.23877L29.3014 16.0001L17.6816 22.7613Z" fill="white"/>
</svg>
