<svg width="64" height="64" viewBox="0 0 64 64" fill="none" xmlns="http://www.w3.org/2000/svg">
<rect width="64" height="64" rx="4" fill="#E8FEFF"/>
<path fill-rule="evenodd" clip-rule="evenodd" d="M30.7251 14.379L28.4875 15.5035L27.8717 15.1889C27.3464 14.9206 27.161 14.8678 26.6118 14.8301C25.163 14.7308 23.9424 15.4281 23.2904 16.7274C23.0698 17.1671 22.9003 17.9624 22.938 18.3805C22.9615 18.6411 22.9457 18.6599 22.5832 18.8031C21.1356 19.375 20.2267 20.9337 20.4858 22.4005C20.5338 22.6721 20.5946 22.9671 20.6208 23.0559C20.6603 23.1891 20.6097 23.2439 20.3319 23.3684C20.1467 23.4514 19.7975 23.7167 19.556 23.9578C18.7834 24.7293 18.4371 25.7681 18.604 26.8141C18.6508 27.1074 18.7105 27.4003 18.7367 27.4647C18.7702 27.547 18.6792 27.6377 18.4312 27.769C17.8719 28.0653 17.3101 28.6742 17.0068 29.3128C16.4318 30.5235 16.6326 31.9699 17.5106 32.9417L17.794 33.2554L14.9347 36.1218C12.469 38.5935 12.0681 39.0276 12.0231 39.275C11.8832 40.044 12.3921 40.6678 13.1592 40.6678C13.336 40.6678 13.5574 40.629 13.6514 40.5815C13.7452 40.5341 15.1305 39.1906 16.7298 37.596L19.6377 34.6967L20.597 34.694C21.5092 34.6914 21.582 34.6792 22.0782 34.444C23.1467 33.9378 23.7806 33.0981 24.0491 31.833C24.0851 31.6631 24.1574 31.6163 24.5039 31.5386C25.8035 31.2471 26.7981 30.2827 27.1123 29.0095L27.2412 28.4871L27.641 28.404C28.9401 28.134 29.9806 27.0925 30.2787 25.7638C30.3564 25.4174 30.4031 25.345 30.5731 25.309C31.8381 25.0405 32.6779 24.4066 33.1841 23.3381C33.4192 22.8419 33.4315 22.7692 33.4341 21.8571L33.4367 20.8979L35.5044 18.8246C36.6416 17.6842 37.6669 16.7008 37.7829 16.6392C38.068 16.4878 38.5141 16.4981 38.7921 16.6622C39.1167 16.854 39.361 17.3897 39.2928 17.7603C39.2477 18.005 38.99 18.3023 37.6528 19.6522C36.7803 20.5331 36.0273 21.3306 35.9794 21.4244C35.8566 21.665 35.8713 22.1974 36.0079 22.4617C36.162 22.7596 36.4747 22.9965 36.7925 23.0561C37.3249 23.156 37.5187 23.0416 38.5954 21.9912C39.6596 20.9531 39.8972 20.812 40.3779 20.9327C40.6709 21.0062 41.0285 21.3471 41.1276 21.6472C41.3007 22.1717 41.1991 22.3346 39.8381 23.7147C39.1389 24.4237 38.5243 25.0866 38.4724 25.1878C38.4204 25.2891 38.3757 25.5225 38.3728 25.7065C38.363 26.3593 38.8727 26.869 39.5255 26.8592C39.9745 26.8524 40.1165 26.7649 40.8951 26.0163C41.6185 25.3208 41.8753 25.2028 42.3348 25.3544C42.6349 25.4535 42.9758 25.8111 43.0493 26.1041C43.1781 26.6171 43.0496 26.8121 41.6538 28.2224L40.3195 29.5705L40.2848 29.9892C40.2317 30.6285 40.56 31.1088 41.1515 31.2572C41.6114 31.3726 41.8932 31.2342 42.6159 30.5375C43.3755 29.8052 43.7064 29.634 44.1641 29.7367C44.4762 29.8067 44.8455 30.1649 44.9227 30.4724C44.9498 30.5805 44.9482 30.8005 44.919 30.9614C44.8724 31.2186 44.3614 31.7596 40.6721 35.4577C36.2779 39.8624 35.854 40.2372 34.8656 40.5914C34.4174 40.752 34.1778 40.7742 32.4157 40.8182C31.0232 40.8531 30.4065 40.897 30.2673 40.971C30.001 41.1125 22.3167 48.7785 22.1763 49.0428C22.1146 49.1589 22.0642 49.3979 22.0642 49.5741C22.0642 50.3256 22.7001 50.8463 23.4514 50.7101C23.7081 50.6635 24.2029 50.1988 27.4949 46.9124L31.246 43.1678H31.986H32.7261L36.4771 46.9124C39.7692 50.1988 40.264 50.6635 40.5207 50.7101C41.0398 50.8042 41.5633 50.5607 41.7919 50.1187C41.9286 49.8544 41.9438 49.3223 41.8216 49.0806C41.7742 48.9868 40.3656 47.5364 38.6914 45.8575L35.6474 42.8051L36.1449 42.5936C37.1864 42.151 37.5496 41.8365 41.0888 38.3123L44.5275 34.8881L47.2997 37.6659C48.8245 39.1937 50.1669 40.4941 50.2829 40.5557C50.931 40.9001 51.8186 40.481 51.9524 39.7676C52.0659 39.1632 52.0613 39.1575 49.0353 36.1218L46.1781 33.2554L46.4739 32.9281C46.8495 32.5123 47.1339 31.8922 47.2441 31.2492C47.4726 29.9153 46.7307 28.3993 45.5409 27.769C45.2929 27.6377 45.2019 27.547 45.2353 27.4647C45.2616 27.4003 45.3213 27.1074 45.3681 26.8141C45.5343 25.772 45.1845 24.7295 44.4073 23.9506C44.1706 23.7135 43.8254 23.4514 43.6402 23.3684C43.3624 23.2439 43.3118 23.1891 43.3513 23.0559C43.7421 21.736 43.455 20.5028 42.5433 19.5852C42.1968 19.2365 41.7637 18.9331 41.4581 18.8248C41.447 18.8208 41.4962 18.5594 41.5674 18.2439C41.7421 17.4706 41.6332 16.7317 41.2324 15.9689C40.6052 14.7753 39.4352 14.1256 38.0443 14.1985C37.3061 14.2373 36.5874 14.5262 36.0728 14.9911L35.7648 15.2694L34.8732 14.3753C33.9369 13.4364 33.6539 13.2432 33.2242 13.2502C33.049 13.253 32.2238 13.6257 30.7251 14.379ZM33.5697 16.431L34.0946 16.9599L33.0404 18.0119L31.9862 19.0639L31.0871 18.1674L30.1881 17.2708L31.5363 16.5906C32.2778 16.2166 32.9206 15.9086 32.9647 15.9064C33.0089 15.9041 33.2811 16.1402 33.5697 16.431ZM26.7764 17.2386C27.0196 17.3617 30.8799 21.211 31.0146 21.4647C31.2776 21.96 31.0518 22.6466 30.5472 22.8861C30.2388 23.0324 30.0489 23.0428 29.745 22.9298C29.6241 22.8848 28.6015 21.9267 27.4727 20.8009C25.2592 18.5931 25.1596 18.4576 25.3428 17.9022C25.4274 17.6457 25.7516 17.2868 25.9704 17.2072C26.1753 17.1327 26.5997 17.1492 26.7764 17.2386ZM24.2856 21.0222C24.4247 21.0882 25.2959 21.9056 26.2216 22.8386C27.9993 24.6303 28.076 24.7393 27.9672 25.3193C27.868 25.8481 27.2391 26.2342 26.6936 26.1013C26.5543 26.0674 25.8384 25.4088 24.6672 24.2372C23.0744 22.6439 22.8494 22.3885 22.8001 22.1168C22.73 21.7314 22.9221 21.3383 23.3062 21.0804C23.6156 20.8727 23.931 20.8539 24.2856 21.0222ZM22.3206 25.3854C22.6663 25.5342 24.7715 27.6802 24.8399 27.9535C24.9724 28.4826 24.601 29.1115 24.0896 29.2238C23.538 29.3449 23.347 29.2321 22.2103 28.1132C21.1219 27.0421 20.8923 26.7282 20.8923 26.3121C20.8923 26.0021 21.1859 25.5814 21.5189 25.4141C21.8473 25.249 21.9917 25.2438 22.3206 25.3854ZM20.6275 29.8722C20.8809 30.0112 21.5827 30.7743 21.6692 31.0049C21.7829 31.3082 21.7728 31.4982 21.6262 31.8071C21.3874 32.3103 20.7049 32.5361 20.2048 32.2774C20.0888 32.2174 19.7943 31.9591 19.5504 31.7034C18.9229 31.0455 18.8526 30.5514 19.313 30.0361C19.6353 29.6754 20.1513 29.6111 20.6275 29.8722Z" fill="black"/>
</svg>
