<svg width="64" height="64" viewBox="0 0 64 64" fill="none" xmlns="http://www.w3.org/2000/svg">
<rect width="64" height="64" rx="4" fill="#F5E8FF"/>
<path fill-rule="evenodd" clip-rule="evenodd" d="M30.8323 13.6016V15.2031H32.0041H33.176V13.6016V12H32.0041H30.8323V13.6016ZM23.3713 14.2815C22.8557 14.5813 22.4058 14.8533 22.3716 14.8858C22.3264 14.9286 23.633 17.3367 23.8547 17.6194C23.883 17.6555 24.1705 17.5013 25.2236 16.8844L25.9041 16.4858L25.1188 15.1218C24.6869 14.3716 24.328 13.753 24.3212 13.747C24.3144 13.7412 23.887 13.9816 23.3713 14.2815ZM38.8973 15.1041L38.1032 16.483L38.8101 16.8964C39.9083 17.5385 40.1254 17.6554 40.1536 17.6194C40.2106 17.5467 41.6916 14.9557 41.6916 14.9286C41.6916 14.9127 41.3489 14.6998 40.9299 14.4555C40.5109 14.2113 40.0609 13.947 39.9298 13.8683L39.6913 13.7252L38.8973 15.1041ZM30.9924 17.6271C27.1272 18.0266 23.7509 20.2087 21.8281 23.5502C19.9107 26.8823 19.771 31.0061 21.456 34.5365C21.9525 35.5768 22.7725 36.7289 23.7563 37.7686C24.6877 38.753 24.9949 39.2244 25.2376 40.0416C25.3452 40.4043 25.3635 40.9739 25.3635 43.9673V47.4688H26.563H27.7625L27.8104 48.0352C27.9567 49.7634 29.0907 51.213 30.7393 51.7792C31.4804 52.0338 32.6841 52.0338 33.4252 51.7792C34.4246 51.436 35.368 50.6452 35.863 49.7359C36.1109 49.2802 36.3791 48.2785 36.3791 47.8078V47.4688H37.5901H38.801L38.8029 43.9727C38.8041 41.8583 38.8366 40.3384 38.8853 40.1272C39.0535 39.3973 39.4184 38.8017 40.1979 37.9846C41.4776 36.643 41.9956 35.9368 42.6308 34.668C43.9614 32.0101 44.2403 28.9077 43.4059 26.0451C43.0971 24.9855 42.2226 23.2335 41.5722 22.3714C39.6855 19.8707 36.9662 18.2091 33.9973 17.7431C33.0409 17.593 31.7895 17.5447 30.9924 17.6271ZM16.9234 20.7155C16.6148 21.2551 16.3748 21.7073 16.3902 21.7204C16.4056 21.7335 17.0105 22.0866 17.7345 22.5049C18.5934 23.0013 19.0775 23.2391 19.1274 23.1892C19.21 23.1066 20.2859 21.268 20.2613 21.2516C19.9891 21.069 17.6136 19.7344 17.5606 19.7344C17.5188 19.7344 17.232 20.1759 16.9234 20.7155ZM45.637 20.1573C45.2502 20.3859 44.6638 20.7279 44.3338 20.9172L43.7337 21.2614L44.2596 22.1777C44.5489 22.6816 44.8247 23.133 44.8725 23.1809C44.9363 23.2447 45.3092 23.0661 46.2748 22.5092C46.9982 22.092 47.6027 21.7385 47.618 21.7236C47.6754 21.6684 46.5201 19.7345 46.4319 19.738C46.3814 19.7401 46.0237 19.9288 45.637 20.1573ZM33.0033 19.9727C36.3158 20.3306 39.1253 22.2862 40.5595 25.2321C41.8765 27.9374 41.8724 30.9387 40.5483 33.5894C40.0499 34.587 39.6782 35.0987 38.7145 36.1138C37.4624 37.4328 36.9427 38.2719 36.646 39.4528L36.5164 39.9688H34.8852H33.2541V37.9112V35.8535L34.8362 34.8421L36.4182 33.8307L36.4392 32.056L36.4602 30.2812H35.2869H34.1135V31.4029V32.5245L33.1565 33.1373C32.6301 33.4743 32.1467 33.75 32.0823 33.75C32.0178 33.75 31.5345 33.4743 31.008 33.1373L30.051 32.5245V31.4029V30.2812H28.8777H27.7043L27.7253 32.0514L27.7463 33.8215L29.3284 34.8402L30.9104 35.859V37.9138V39.9688H29.2854H27.6605L27.483 39.3633C27.1255 38.143 26.5947 37.3036 25.4051 36.0774C23.5578 34.1734 22.6291 31.9338 22.6291 29.3828C22.6291 26.0252 24.4331 22.9093 27.3752 21.185C28.4144 20.5759 29.8627 20.1092 31.1304 19.975C32.0053 19.8823 32.166 19.8821 33.0033 19.9727ZM14.5997 29.4023L14.6213 30.5547L16.2034 30.5759L17.7854 30.597V29.4235V28.25H16.1817H14.5781L14.5997 29.4023ZM46.2229 29.4235V30.597L47.8049 30.5759L49.387 30.5547L49.4086 29.4023L49.4302 28.25H47.8266H46.2229V29.4235ZM36.4573 43.7188V45.125H32.0823H27.7073V43.7188V42.3125H32.0823H36.4573V43.7188ZM34.0354 47.7283C34.0354 48.733 33.1002 49.6562 32.0823 49.6562C31.0644 49.6562 30.1291 48.733 30.1291 47.7283V47.4688H32.0823H34.0354V47.7283Z" fill="black"/>
</svg>
