<svg width="65" height="65" viewBox="0 0 65 65" fill="none" xmlns="http://www.w3.org/2000/svg">
<rect width="64.0459" height="64.0021" rx="4" fill="#E8EAFF"/>
<path d="M44.2659 36.4454C43.0058 36.4464 41.7648 36.7541 40.6501 37.3418C39.5354 37.9295 38.5804 38.7796 37.8676 39.8187L27.0192 34.9204C27.7898 33.0598 27.7928 30.9699 27.0276 29.1071L37.8609 24.1837C38.9174 25.7117 40.4864 26.8104 42.2836 27.2805C44.0807 27.7506 45.9868 27.5611 47.6561 26.7462C49.3254 25.9314 50.6474 24.5452 51.3823 22.8392C52.1172 21.1331 52.2162 19.2202 51.6615 17.4474C51.1068 15.6745 49.935 14.1592 48.3588 13.1763C46.7825 12.1934 44.9062 11.808 43.0702 12.09C41.2341 12.372 39.5599 13.3028 38.3513 14.7134C37.1427 16.1241 36.4797 17.9212 36.4826 19.7787C36.4896 20.2184 36.5342 20.6567 36.6159 21.0887L25.0992 26.3221C23.9931 25.2858 22.6084 24.5951 21.1152 24.335C19.622 24.0749 18.0853 24.2566 16.6939 24.8578C15.3026 25.4591 14.1171 26.4536 13.2832 27.7193C12.4494 28.9851 12.0033 30.4668 12 31.9825C11.9967 33.4982 12.4362 34.9819 13.2645 36.2512C14.0928 37.5206 15.2739 38.5204 16.6626 39.1277C18.0513 39.735 19.5872 39.9235 21.0815 39.67C22.5759 39.4164 23.9636 38.7318 25.0742 37.7004L36.6209 42.9137C36.5407 43.3454 36.4967 43.7831 36.4892 44.2221C36.4889 45.7606 36.9449 47.2647 37.7994 48.5441C38.654 49.8235 39.8688 50.8207 41.2902 51.4097C42.7115 51.9986 44.2756 52.1528 45.7846 51.8527C47.2936 51.5526 48.6798 50.8118 49.7677 49.7239C50.8556 48.6359 51.5965 47.2498 51.8965 45.7408C52.1966 44.2318 52.0424 42.6677 51.4535 41.2463C50.8646 39.825 49.8673 38.6102 48.5879 37.7556C47.3085 36.901 45.8045 36.4451 44.2659 36.4454ZM44.2659 15.3337C45.1451 15.3334 46.0047 15.5938 46.7359 16.0821C47.4671 16.5703 48.0371 17.2644 48.3737 18.0766C48.7104 18.8888 48.7987 19.7825 48.6274 20.6449C48.456 21.5073 48.0328 22.2994 47.4113 22.9212C46.7897 23.5431 45.9977 23.9666 45.1354 24.1382C44.2731 24.3099 43.3792 24.2219 42.5669 23.8855C41.7546 23.5492 41.0603 22.9794 40.5718 22.2484C40.0833 21.5174 39.8226 20.658 39.8226 19.7787C39.8235 18.6004 40.2918 17.4706 41.1249 16.6372C41.9579 15.8039 43.0876 15.3351 44.2659 15.3337ZM19.8226 36.4454C18.9434 36.4457 18.0838 36.1853 17.3526 35.6971C16.6214 35.2089 16.0514 34.5148 15.7147 33.7026C15.3781 32.8904 15.2898 31.9966 15.4611 31.1343C15.6324 30.2719 16.0556 29.4797 16.6772 28.8579C17.2988 28.2361 18.0908 27.8126 18.9531 27.6409C19.8154 27.4693 20.7092 27.5572 21.5215 27.8936C22.3339 28.23 23.0282 28.7997 23.5167 29.5307C24.0052 30.2617 24.2659 31.1212 24.2659 32.0004C24.2646 33.1786 23.7961 34.3082 22.9631 35.1415C22.1302 35.9747 21.0008 36.4436 19.8226 36.4454ZM44.2659 48.6671C43.3868 48.6671 42.5274 48.4064 41.7964 47.918C41.0654 47.4295 40.4957 46.7353 40.1593 45.9231C39.8228 45.1109 39.7348 44.2172 39.9063 43.3549C40.0778 42.4927 40.5012 41.7006 41.1228 41.079C41.7445 40.4573 42.5365 40.034 43.3987 39.8625C44.261 39.691 45.1547 39.779 45.9669 40.1154C46.7792 40.4519 47.4734 41.0216 47.9618 41.7526C48.4502 42.4835 48.7109 43.3429 48.7109 44.2221C48.71 45.4007 48.2414 46.5308 47.408 47.3642C46.5746 48.1976 45.4445 48.6662 44.2659 48.6671Z" fill="black"/>
</svg>
