<svg width="64" height="65" viewBox="0 0 64 65" fill="none" xmlns="http://www.w3.org/2000/svg">
<rect y="0.00195312" width="64" height="64" rx="4" fill="#E9FFE8"/>
<g clip-path="url(#clip0_652_1143)">
<path d="M32 12.002C27.0758 12.0055 22.3269 13.8297 18.6667 17.1236V13.6686C18.6667 13.2266 18.4911 12.8027 18.1785 12.4901C17.866 12.1775 17.442 12.002 17 12.002C16.558 12.002 16.134 12.1775 15.8215 12.4901C15.5089 12.8027 15.3333 13.2266 15.3333 13.6686V18.6686C15.3333 19.9947 15.8601 21.2665 16.7978 22.2042C17.7355 23.1418 19.0073 23.6686 20.3333 23.6686H25.3333C25.7754 23.6686 26.1993 23.493 26.5118 23.1805C26.8244 22.8679 27 22.444 27 22.002C27 21.5599 26.8244 21.136 26.5118 20.8234C26.1993 20.5109 25.7754 20.3353 25.3333 20.3353H20.3333C20.2771 20.327 20.2215 20.3153 20.1667 20.3003C22.8825 17.565 26.4635 15.8571 30.2984 15.4681C34.1333 15.079 37.9844 16.033 41.1942 18.1672C44.404 20.3014 46.7737 23.4834 47.8987 27.1702C49.0236 30.857 48.8342 34.8199 47.3626 38.3825C45.8911 41.9451 43.2287 44.8866 39.8299 46.7049C36.4311 48.5231 32.5067 49.1054 28.7264 48.3523C24.9461 47.5992 21.5443 45.5575 19.1018 42.5756C16.6592 39.5937 15.3273 35.8565 15.3333 32.002C15.3333 31.5599 15.1577 31.136 14.8452 30.8234C14.5326 30.5109 14.1087 30.3353 13.6667 30.3353C13.2246 30.3353 12.8007 30.5109 12.4882 30.8234C12.1756 31.136 12 31.5599 12 32.002C12 35.9576 13.173 39.8244 15.3706 43.1134C17.5682 46.4023 20.6918 48.9658 24.3463 50.4795C28.0009 51.9933 32.0222 52.3894 35.9018 51.6177C39.7814 50.846 43.3451 48.9411 46.1421 46.1441C48.9392 43.347 50.844 39.7834 51.6157 35.9038C52.3874 32.0241 51.9913 28.0028 50.4776 24.3483C48.9638 20.6938 46.4004 17.5702 43.1114 15.3726C39.8224 13.1749 35.9556 12.002 32 12.002V12.002Z" fill="black"/>
<path d="M31.9997 24.002C31.5576 24.002 31.1337 24.1775 30.8212 24.4901C30.5086 24.8027 30.333 25.2266 30.333 25.6686V34.002C30.3331 34.4439 30.5088 34.8678 30.8213 35.1803L35.8213 40.1803C36.1357 40.4839 36.5567 40.6519 36.9937 40.6481C37.4307 40.6443 37.8487 40.469 38.1577 40.16C38.4667 39.851 38.642 39.433 38.6458 38.996C38.6496 38.559 38.4816 38.138 38.178 37.8236L33.6663 33.312V25.6686C33.6663 25.2266 33.4907 24.8027 33.1782 24.4901C32.8656 24.1775 32.4417 24.002 31.9997 24.002Z" fill="black"/>
</g>
<defs>
<clipPath id="clip0_652_1143">
<rect width="40" height="40" fill="white" transform="translate(12 12.002)"/>
</clipPath>
</defs>
</svg>
