<svg width="25" height="19" viewBox="0 0 25 19" fill="none" xmlns="http://www.w3.org/2000/svg">
<path fill-rule="evenodd" clip-rule="evenodd" d="M11.6489 0.123086C10.3226 0.27529 9.06598 0.718962 8.00327 1.41032C6.43427 2.43107 5.26568 3.94392 4.67023 5.72531C4.48638 6.27524 4.28951 7.19446 4.28951 7.50271C4.28951 7.69035 4.2357 7.73376 3.92088 7.80013C3.0282 7.98829 2.00074 8.66535 1.40473 9.45815C0.779602 10.2896 0.441352 11.4116 0.508383 12.4315C0.637899 14.4038 1.95663 15.9968 3.90377 16.5332C4.24465 16.6272 4.3983 16.6341 6.50435 16.6519L8.74263 16.6708V15.9201V15.1695L6.5981 15.1552L4.45357 15.1409L4.08373 15.0101C3.49709 14.8027 3.07399 14.5121 2.69065 14.0534C2.46593 13.7845 2.16509 13.1754 2.08559 12.8286C2.01148 12.5051 2.01223 11.8186 2.08704 11.5001C2.38038 10.2517 3.45293 9.30965 4.71902 9.18834C5.22935 9.1394 5.31391 9.11718 5.46166 8.99282C5.68962 8.80106 5.73729 8.65588 5.78702 8.00207C5.86666 6.95573 6.06916 6.20831 6.50515 5.35176C7.40299 3.58781 9.01606 2.31271 10.9223 1.86013C13.7045 1.19966 16.5683 2.32326 18.129 4.68768C18.5861 5.38007 18.8524 5.9961 19.102 6.93777C19.248 7.48851 19.3806 7.61577 19.9288 7.73109C20.702 7.89374 21.2733 8.19571 21.8363 8.73946C24.0243 10.8525 22.8961 14.5547 19.8989 15.0974C19.6474 15.1429 19.0766 15.1615 17.895 15.1627L16.2426 15.1643V15.9181V16.6718L18.1059 16.6515C19.6575 16.6346 20.028 16.6176 20.3208 16.5498C21.8783 16.189 23.176 15.2043 23.876 13.8518C24.3153 13.0033 24.47 12.3596 24.4675 11.3909C24.4665 11.03 24.4388 10.6081 24.4058 10.4534C24.1723 9.35835 23.6941 8.4607 22.9452 7.71177C22.3466 7.11318 21.6656 6.69473 20.8546 6.42707L20.4744 6.30159L20.3941 6.00487C20.3499 5.84165 20.2256 5.48906 20.1179 5.22135C19.2101 2.96479 17.3189 1.21602 14.977 0.467852C13.9118 0.127586 12.7021 0.0022427 11.6489 0.123086ZM12.2114 9.23826C12.1105 9.28148 11.4564 9.89863 10.5124 10.8414L8.97748 12.3743L9.50398 12.9023L10.0305 13.4302L10.8866 12.5751L11.7426 11.72V15.3172V18.9143H12.4926H13.2426V15.3172V11.72L14.1099 12.5863L14.9772 13.4527L15.5042 12.9257L16.0312 12.3987L14.4845 10.8471C13.6311 9.99093 12.8704 9.26615 12.7871 9.22996C12.5957 9.14666 12.4193 9.14924 12.2114 9.23826Z" fill="#222539"/>
</svg>
