<svg width="20" height="21" viewBox="0 0 20 21" fill="none" xmlns="http://www.w3.org/2000/svg">
<path fill-rule="evenodd" clip-rule="evenodd" d="M9.04094 0.541284C12.0501 0.854174 14.7036 2.87554 15.8303 5.71324C16.8731 8.3396 16.4508 11.3702 14.7241 13.6511L14.5259 13.9128L17.262 16.6491L19.998 19.3854L19.4415 19.9419L18.885 20.4985L16.1487 17.7624L13.4124 15.0263L13.1507 15.2245C9.87129 17.7071 5.31976 17.3937 2.41793 14.4857C0.183514 12.2465 -0.570902 9.02124 0.445621 6.05402C1.05722 4.26871 2.3159 2.70285 3.94328 1.70273C5.44113 0.782221 7.29531 0.35976 9.04094 0.541284ZM7.10734 2.15722C5.21754 2.47933 3.57301 3.5864 2.55043 5.22495C2.10656 5.93613 1.77308 6.84636 1.63449 7.72496C1.56863 8.14226 1.56828 9.24585 1.63387 9.65855C1.86207 11.0947 2.49851 12.3651 3.48703 13.3577C4.52031 14.3952 5.80176 15.0434 7.26359 15.2679C7.69062 15.3335 8.71156 15.3335 9.13859 15.2679C11.3274 14.9318 13.1714 13.5912 14.14 11.6322C14.6128 10.6758 14.8185 9.78753 14.8185 8.70152C14.8185 7.65328 14.6587 6.91023 14.2271 5.9505C13.4066 4.12581 11.7425 2.74406 9.78312 2.26046C9.5098 2.193 9.20125 2.1423 8.7089 2.08394C8.45512 2.05382 7.4418 2.10019 7.10734 2.15722Z" fill="#5EAFDC"/>
</svg>
