<svg width="120" height="52" viewBox="0 0 120 52" fill="none" xmlns="http://www.w3.org/2000/svg">
<path d="M115.571 41.0291H116.454V47.3666H115.571V41.0291ZM116.093 46.5433H117.807C118.257 46.5433 118.586 46.4596 118.791 46.2863C118.999 46.1158 119.1 45.8732 119.1 45.5641V45.5497C119.1 45.3359 119.062 45.151 118.99 44.9951C118.915 44.842 118.8 44.7235 118.638 44.6398C118.476 44.5589 118.274 44.5156 118.023 44.5156H116.09V43.7125H118.023C118.349 43.7125 118.598 43.6345 118.765 43.4814C118.932 43.3255 119.016 43.1002 119.016 42.7969C119.016 42.4791 118.924 42.2423 118.736 42.0863C118.551 41.9303 118.272 41.8523 117.899 41.8523H116.087V41.0291H118.061C118.471 41.0291 118.814 41.0984 119.088 41.2399C119.365 41.3786 119.57 41.575 119.708 41.8321C119.844 42.0892 119.913 42.3925 119.913 42.7478C119.913 42.9644 119.873 43.1695 119.786 43.3601C119.703 43.5508 119.573 43.7125 119.403 43.8483C119.229 43.9841 119.016 44.0736 118.759 44.1198C119.016 44.1574 119.235 44.2498 119.42 44.3913C119.605 44.5358 119.749 44.7149 119.847 44.9286C119.948 45.1453 119.997 45.3764 119.997 45.6277V45.6421C119.997 45.9829 119.922 46.2862 119.769 46.5491C119.619 46.812 119.403 47.0142 119.12 47.1557C118.84 47.2972 118.511 47.3695 118.136 47.3695H116.09V46.5433H116.093ZM103.323 47.433C102.856 47.433 102.455 47.3406 102.123 47.1557C101.791 46.9708 101.537 46.7022 101.364 46.3498C101.188 45.9974 101.102 45.5728 101.102 45.0759V41.0291H101.99V45.1048C101.99 45.567 102.108 45.9252 102.339 46.1765C102.57 46.4307 102.899 46.5549 103.323 46.5549C103.75 46.5549 104.079 46.4278 104.313 46.1765C104.546 45.9223 104.665 45.567 104.665 45.1048V41.0291H105.553V45.0759C105.553 45.5728 105.467 45.9974 105.291 46.3498C105.118 46.7022 104.864 46.9708 104.529 47.1557C104.194 47.3406 103.793 47.433 103.323 47.433ZM87.0648 43.8223H90.5791V44.6687H87.0648V43.8223ZM86.5109 41.0291H87.3995V47.3666H86.5109V41.0291ZM90.1088 41.0291H90.9974V47.3666H90.1088V41.0291ZM70.3276 41.0291H74.7939V41.8754H70.3276V41.0291ZM72.1164 41.549H73.0051V47.3695H72.1164V41.549ZM60.6562 47.3666H59.7676V41.0291H60.6562V47.3666Z" fill="#B1B2B3"/>
<path d="M110.513 20.0435L116.636 29.3274V19.954C116.636 19.3445 116.769 18.891 117.028 18.5877C117.288 18.2844 117.64 18.1284 118.084 18.1284C118.537 18.1284 118.901 18.2786 119.163 18.5819C119.426 18.8852 119.559 19.3445 119.559 19.954V32.3344C119.559 33.718 118.987 34.4055 117.845 34.4055C117.559 34.4055 117.302 34.3651 117.072 34.2813C116.844 34.2004 116.627 34.0675 116.431 33.8913C116.229 33.7122 116.047 33.5014 115.874 33.2616C115.701 33.0219 115.531 32.7763 115.358 32.5279L109.385 23.3625V32.5799C109.385 33.1807 109.247 33.6371 108.967 33.9433C108.684 34.2524 108.326 34.4055 107.891 34.4055C107.441 34.4055 107.077 34.2524 106.806 33.9404C106.532 33.6285 106.396 33.175 106.396 32.5799V20.4393C106.396 19.9222 106.454 19.5178 106.569 19.2261C106.705 18.9026 106.933 18.6397 107.247 18.4346C107.562 18.2324 107.902 18.1313 108.266 18.1313C108.554 18.1313 108.8 18.1775 109.002 18.27C109.206 18.3653 109.385 18.4895 109.541 18.6484C109.694 18.8072 109.853 19.0065 110.014 19.2607C110.173 19.5092 110.34 19.7691 110.513 20.0435ZM100.398 26.2251C100.398 25.0725 100.21 24.0731 99.8409 23.2267C99.4687 22.3833 98.9378 21.7449 98.2483 21.3087C97.5587 20.8754 96.7652 20.6588 95.8708 20.6588C95.2361 20.6588 94.6475 20.7801 94.1079 21.017C93.5655 21.2596 93.101 21.6063 92.7115 22.0655C92.322 22.5248 92.0161 23.1112 91.7882 23.8218C91.566 24.5382 91.4506 25.3354 91.4506 26.2222C91.4506 27.1205 91.5632 27.9264 91.7882 28.6544C92.0161 29.3765 92.3335 29.9773 92.7432 30.4539C93.1529 30.9306 93.6261 31.2858 94.157 31.5198C94.6908 31.7596 95.2736 31.8751 95.9112 31.8751C96.7277 31.8751 97.475 31.67 98.1588 31.2627C98.8397 30.8554 99.3822 30.2257 99.789 29.3707C100.196 28.5244 100.398 27.47 100.398 26.2251ZM95.8708 18.1284C97.5039 18.1284 98.9032 18.4577 100.072 19.1221C101.24 19.7807 102.126 20.7252 102.726 21.9442C103.326 23.1661 103.626 24.5988 103.626 26.2453C103.626 27.4614 103.462 28.5706 103.133 29.5643C102.804 30.5608 102.314 31.4216 101.653 32.1524C100.995 32.8832 100.187 33.4407 99.2292 33.8278C98.2685 34.212 97.1749 34.4084 95.9372 34.4084C94.7081 34.4084 93.603 34.2091 92.6336 33.8105C91.6584 33.4147 90.8505 32.8543 90.1984 32.1322C89.5464 31.4101 89.0559 30.5406 88.7212 29.5209C88.3894 28.5042 88.222 27.4065 88.222 26.2251C88.222 25.0148 88.3952 23.9084 88.7414 22.8946C89.0905 21.8864 89.5897 21.0285 90.2504 20.318C90.9053 19.6103 91.7074 19.0672 92.6538 18.6946C93.5973 18.3162 94.6706 18.1284 95.8708 18.1284ZM84.6588 20.8581H77.4803V24.7288H84.0904C84.578 24.7288 84.9386 24.8386 85.1781 25.0552C85.4205 25.2718 85.5359 25.5607 85.5359 25.916C85.5359 26.2713 85.4176 26.5659 85.1839 26.7883C84.9473 27.0108 84.5838 27.1263 84.0875 27.1263H77.4774V31.6151H84.9011C85.4032 31.6151 85.7811 31.7336 86.0322 31.9647C86.2889 32.1957 86.4159 32.5077 86.4159 32.8919C86.4159 33.2616 86.2889 33.5678 86.0322 33.7989C85.7783 34.03 85.4032 34.1484 84.9011 34.1484H76.2425C75.5501 34.1484 75.0509 33.9953 74.748 33.6862C74.445 33.3772 74.2892 32.8803 74.2892 32.1929V20.3497C74.2892 19.8904 74.3585 19.5178 74.4941 19.229C74.6297 18.9401 74.8432 18.7264 75.1317 18.5935C75.4202 18.4606 75.7896 18.3942 76.2425 18.3942H84.6559C85.1637 18.3942 85.5417 18.5068 85.7869 18.7321C86.0322 18.9603 86.1562 19.2578 86.1562 19.6189C86.1562 19.9915 86.0322 20.2948 85.7869 20.5202C85.5445 20.7426 85.1666 20.8581 84.6588 20.8581ZM59.687 30.4655L67.7686 20.7888H60.8238C60.3362 20.7888 59.9698 20.6819 59.7245 20.4653C59.4764 20.2486 59.3552 19.9655 59.3552 19.616C59.3552 19.2521 59.4764 18.9574 59.7245 18.7292C59.9698 18.5068 60.3362 18.3913 60.8238 18.3913H69.7738C70.9308 18.3913 71.5107 18.9343 71.5107 20.0147C71.5107 20.5317 71.4155 20.9419 71.2222 21.251C71.0289 21.56 70.6394 22.0569 70.0537 22.7472L62.4973 31.7451H70.8241C71.3145 31.7451 71.6839 31.8491 71.9262 32.0542C72.1715 32.2564 72.2926 32.5424 72.2926 32.9092C72.2926 33.2876 72.1715 33.588 71.9262 33.8105C71.6839 34.0329 71.3145 34.1455 70.8241 34.1455H60.6074C59.915 34.1455 59.3927 33.9867 59.0436 33.6776C58.6916 33.3656 58.5156 32.9525 58.5156 32.4268C58.5156 32.2477 58.5445 32.0831 58.5993 31.9329C58.657 31.7827 58.7349 31.6383 58.8301 31.5083C58.9282 31.3754 59.0609 31.2079 59.2341 31.0057C59.4072 30.7977 59.5572 30.6157 59.687 30.4655Z" fill="#006EA1"/>
<path fill-rule="evenodd" clip-rule="evenodd" d="M23.2811 14.9078C25.5835 17.2128 25.5835 20.9478 23.2811 23.2499C20.9787 25.555 17.248 25.555 14.9485 23.2499C12.6461 20.9449 12.6461 17.21 14.9485 14.9078C17.2509 12.6027 20.9815 12.6027 23.2811 14.9078Z" fill="#009EE3"/>
<path fill-rule="evenodd" clip-rule="evenodd" d="M36.9402 28.5794C39.2427 30.8845 39.2427 34.6194 36.9402 36.9216C34.6378 39.2267 30.9072 39.2267 28.6077 36.9216C26.3053 34.6165 26.3053 30.8816 28.6077 28.5794C30.9072 26.2772 34.6378 26.2772 36.9402 28.5794Z" fill="#009EE3"/>
<path fill-rule="evenodd" clip-rule="evenodd" d="M36.7264 14.9683C39.0288 17.2734 39.0288 21.0083 36.7264 23.3105C34.424 25.6156 30.6933 25.6156 28.3938 23.3105C26.0914 21.0054 26.0914 17.2705 28.3938 14.9683C30.6933 12.6662 34.424 12.6662 36.7264 14.9683Z" fill="#006EA1"/>
<path fill-rule="evenodd" clip-rule="evenodd" d="M23.0701 28.64C25.3725 30.9451 25.3725 34.68 23.0701 36.9822C20.7677 39.2844 17.0371 39.2872 14.7376 36.9822C12.4351 34.6771 12.4351 30.9422 14.7376 28.64C17.0371 26.3378 20.7677 26.3378 23.0701 28.64Z" fill="#006EA1"/>
<path fill-rule="evenodd" clip-rule="evenodd" d="M8.74517 14.9568C10.6783 15.1965 11.968 17.6085 11.6304 20.341C11.29 23.0736 9.44917 25.0927 7.51606 24.853C5.58295 24.6132 4.29325 22.2013 4.63082 19.4687C4.97128 16.7361 6.81206 14.7141 8.74517 14.9568Z" fill="#009EE3"/>
<path fill-rule="evenodd" clip-rule="evenodd" d="M14.8709 43.2563C15.1103 41.3209 17.5195 40.0297 20.249 40.3677C22.9784 40.7086 24.9952 42.5515 24.7557 44.4868C24.5162 46.4221 22.107 47.7133 19.3776 47.3754C16.6482 47.0374 14.6314 45.1916 14.8709 43.2563Z" fill="#006EA1"/>
<path fill-rule="evenodd" clip-rule="evenodd" d="M7.20742 27.1667C9.12899 26.8403 11.0563 28.7785 11.518 31.4938C11.9767 34.2091 10.7938 36.673 8.8722 36.9994C6.95063 37.3258 5.02329 35.3876 4.56165 32.6723C4.1029 29.96 5.28585 27.4931 7.20742 27.1667Z" fill="#009EE3"/>
<path fill-rule="evenodd" clip-rule="evenodd" d="M27.1589 44.7061C26.8328 42.7824 28.7688 40.8528 31.481 40.3906C34.1931 39.9313 36.6542 41.1157 36.9802 43.0394C37.3063 44.9632 35.3703 46.8928 32.6581 47.355C29.9489 47.8142 27.4849 46.6299 27.1589 44.7061Z" fill="#006EA1"/>
<path fill-rule="evenodd" clip-rule="evenodd" d="M2.32567 18.4202C3.24029 18.6079 3.72501 20.1678 3.40763 21.9038C3.09026 23.6398 2.09485 24.8964 1.18023 24.7086C0.265607 24.5208 -0.219113 22.961 0.0982631 21.225C0.415639 19.489 1.41105 18.2324 2.32567 18.4202Z" fill="#009EE3"/>
<path fill-rule="evenodd" clip-rule="evenodd" d="M18.3623 49.6542C18.5498 48.7386 20.1079 48.2533 21.8419 48.571C23.5759 48.8888 24.831 49.8853 24.6435 50.801C24.4559 51.7167 22.8979 52.202 21.1639 51.8842C19.4298 51.5665 18.1748 50.5699 18.3623 49.6542Z" fill="#009EE3"/>
<path fill-rule="evenodd" clip-rule="evenodd" d="M1.20013 27.3603C2.12053 27.2043 3.13324 28.4839 3.46505 30.2171C3.79685 31.9502 3.3179 33.4812 2.39751 33.6371C1.47712 33.7931 0.464398 32.5135 0.132596 30.7803C-0.199207 29.0472 0.279743 27.5163 1.20013 27.3603Z" fill="#009EE3"/>
<path fill-rule="evenodd" clip-rule="evenodd" d="M27.2482 50.8241C27.0924 49.9026 28.3706 48.8887 30.1017 48.5565C31.8329 48.2244 33.362 48.7039 33.5178 49.6253C33.6736 50.5468 32.3955 51.5606 30.6643 51.8928C28.9332 52.225 27.404 51.7455 27.2482 50.8241Z" fill="#009EE3"/>
<path fill-rule="evenodd" clip-rule="evenodd" d="M6.78063 40.1047C7.55388 39.2844 9.47256 39.8794 11.071 41.4306C12.6694 42.9846 13.3388 44.9055 12.5684 45.7259C11.7952 46.5462 9.87649 45.9512 8.27807 44.4C6.67965 42.8489 6.01028 40.9251 6.78063 40.1047Z" fill="#006EA1"/>
<path fill-rule="evenodd" clip-rule="evenodd" d="M39.4327 45.8155C38.6133 45.0413 39.2076 43.1204 40.757 41.5202C42.3093 39.9199 44.2279 39.2497 45.0474 40.021C45.8668 40.7951 45.2724 42.716 43.723 44.3163C42.1737 45.9166 40.2521 46.5867 39.4327 45.8155Z" fill="#006EA1"/>
<path fill-rule="evenodd" clip-rule="evenodd" d="M43.1809 36.9851C41.2478 36.7482 39.9524 34.3392 40.287 31.6066C40.6217 28.874 42.4596 26.8491 44.3927 27.086C46.3258 27.3228 47.6213 29.7319 47.2866 32.4645C46.9519 35.1971 45.114 37.222 43.1809 36.9851Z" fill="#009EE3"/>
<path fill-rule="evenodd" clip-rule="evenodd" d="M36.9544 8.74054C36.7178 10.6759 34.3115 11.9728 31.5821 11.6378C28.8526 11.3027 26.8301 9.46269 27.0667 7.52735C27.3033 5.59201 29.7096 4.29504 32.439 4.63012C35.1684 4.96519 37.191 6.80521 36.9544 8.74054Z" fill="#006EA1"/>
<path fill-rule="evenodd" clip-rule="evenodd" d="M44.6264 24.8385C42.7077 25.1678 40.7746 23.2354 40.3101 20.5201C39.8456 17.8049 41.0256 15.338 42.9443 15.0087C44.863 14.6794 46.7961 16.6119 47.2606 19.3271C47.7252 22.0395 46.548 24.5092 44.6264 24.8385Z" fill="#009EE3"/>
<path fill-rule="evenodd" clip-rule="evenodd" d="M24.7524 7.22401C25.0813 9.14491 23.1511 11.0802 20.439 11.5453C17.7269 12.0104 15.2629 10.8289 14.934 8.90805C14.6051 6.98715 16.5353 5.05181 19.2474 4.58675C21.9595 4.12169 24.4235 5.30022 24.7524 7.22401Z" fill="#006EA1"/>
<path fill-rule="evenodd" clip-rule="evenodd" d="M49.4796 33.6229C48.565 33.438 48.0774 31.8782 48.389 30.1421C48.7006 28.4061 49.696 27.1467 50.6106 27.3345C51.5253 27.5193 52.0129 29.0792 51.7013 30.8152C51.3897 32.5512 50.3943 33.8106 49.4796 33.6229Z" fill="#009EE3"/>
<path fill-rule="evenodd" clip-rule="evenodd" d="M33.4833 2.31937C33.2986 3.23505 31.7406 3.72321 30.0066 3.41125C28.2725 3.09928 27.0146 2.10273 27.2021 1.18705C27.3868 0.271372 28.9448 -0.216797 30.6788 0.0951689C32.4129 0.407135 33.6679 1.40369 33.4833 2.31937Z" fill="#009EE3"/>
<path fill-rule="evenodd" clip-rule="evenodd" d="M50.6512 24.6162C49.7308 24.7722 48.7152 23.4954 48.3805 21.7623C48.0458 20.0291 48.5219 18.4982 49.4423 18.3393C50.3627 18.1833 51.3783 19.4601 51.713 21.1932C52.0448 22.9292 51.5716 24.4602 50.6512 24.6162Z" fill="#009EE3"/>
<path fill-rule="evenodd" clip-rule="evenodd" d="M24.5481 1.21007C24.7039 2.13153 23.4287 3.14831 21.6975 3.48338C19.9664 3.81845 18.4372 3.34184 18.2785 2.42039C18.1227 1.49893 19.398 0.482155 21.1291 0.14708C22.8632 -0.185105 24.3923 0.28862 24.5481 1.21007Z" fill="#009EE3"/>
<path fill-rule="evenodd" clip-rule="evenodd" d="M39.9635 6.88623C40.7368 6.06588 42.6555 6.66092 44.2539 8.21208C45.8523 9.76614 46.5217 11.687 45.7513 12.5074C44.9781 13.3277 43.0594 12.7327 41.461 11.1815C39.8626 9.62748 39.1903 7.70658 39.9635 6.88623Z" fill="#006EA1"/>
<path fill-rule="evenodd" clip-rule="evenodd" d="M6.25202 12.594C5.43261 11.8199 6.02697 9.89899 7.57634 8.29873C9.1286 6.69846 11.0473 6.02831 11.8667 6.79956C12.6861 7.57369 12.0917 9.49459 10.5424 11.0949C8.99011 12.6951 7.06854 13.3682 6.25202 12.594Z" fill="#006EA1"/>
</svg>
