<svg width="135" height="58" viewBox="0 0 135 58" fill="none" xmlns="http://www.w3.org/2000/svg">
<path d="M130.018 45.7637H131.011V52.8325H130.018V45.7637ZM130.605 51.9142H132.533C133.04 51.9142 133.41 51.8208 133.64 51.6275C133.874 51.4374 133.987 51.1668 133.987 50.822V50.8059C133.987 50.5675 133.945 50.3613 133.864 50.1873C133.78 50.0166 133.65 49.8845 133.468 49.791C133.286 49.7008 133.059 49.6525 132.777 49.6525H130.602V48.7568H132.777C133.143 48.7568 133.423 48.6698 133.611 48.4991C133.799 48.3251 133.893 48.0738 133.893 47.7355C133.893 47.3811 133.789 47.1169 133.578 46.9429C133.371 46.7689 133.056 46.6819 132.637 46.6819H130.599V45.7637H132.819C133.28 45.7637 133.666 45.841 133.974 45.9989C134.286 46.1535 134.516 46.3726 134.672 46.6594C134.825 46.9461 134.903 47.2844 134.903 47.6807C134.903 47.9223 134.857 48.1511 134.76 48.3637C134.666 48.5764 134.52 48.7568 134.328 48.9082C134.133 49.0597 133.893 49.1595 133.604 49.2111C133.893 49.253 134.14 49.3561 134.348 49.5139C134.555 49.675 134.718 49.8748 134.828 50.1132C134.942 50.3549 134.997 50.6126 134.997 50.8929V50.909C134.997 51.2892 134.912 51.6275 134.74 51.9207C134.572 52.2139 134.328 52.4394 134.01 52.5973C133.695 52.7552 133.325 52.8357 132.903 52.8357H130.602V51.9142H130.605ZM116.239 52.9066C115.713 52.9066 115.262 52.8035 114.888 52.5973C114.515 52.3911 114.23 52.0915 114.035 51.6984C113.837 51.3053 113.739 50.8317 113.739 50.2775V45.7637H114.739V50.3097C114.739 50.8252 114.872 51.2248 115.132 51.5051C115.392 51.7886 115.762 51.9271 116.239 51.9271C116.719 51.9271 117.089 51.7854 117.352 51.5051C117.615 51.2215 117.748 50.8252 117.748 50.3097V45.7637H118.748V50.2775C118.748 50.8317 118.65 51.3053 118.452 51.6984C118.258 52.0915 117.972 52.3911 117.596 52.5973C117.219 52.8035 116.768 52.9066 116.239 52.9066ZM97.9482 48.8792H101.902V49.8232H97.9482V48.8792ZM97.325 45.7637H98.3247V52.8325H97.325V45.7637ZM101.373 45.7637H102.372V52.8325H101.373V45.7637ZM79.1187 45.7637H84.1434V46.7077H79.1187V45.7637ZM81.1312 46.3436H82.1309V52.8357H81.1312V46.3436ZM68.2385 52.8325H67.2388V45.7637H68.2385V52.8325Z" fill="white"/>
<path d="M124.328 22.3568L131.215 32.7119V22.2569C131.215 21.5771 131.365 21.0713 131.657 20.733C131.949 20.3947 132.345 20.2207 132.845 20.2207C133.355 20.2207 133.763 20.3882 134.059 20.7265C134.354 21.0648 134.504 21.5771 134.504 22.2569V36.0658C134.504 37.6091 133.861 38.3759 132.575 38.3759C132.254 38.3759 131.965 38.3308 131.706 38.2374C131.449 38.1472 131.206 37.999 130.985 37.8024C130.758 37.6027 130.553 37.3675 130.359 37.1001C130.164 36.8327 129.972 36.5588 129.778 36.2817L123.059 26.0587V36.3397C123.059 37.0099 122.903 37.5189 122.588 37.8604C122.27 38.2052 121.867 38.3759 121.377 38.3759C120.871 38.3759 120.462 38.2052 120.157 37.8572C119.848 37.5092 119.696 37.0034 119.696 36.3397V22.7982C119.696 22.2215 119.761 21.7704 119.891 21.445C120.043 21.0842 120.3 20.791 120.653 20.5622C121.007 20.3367 121.39 20.2239 121.799 20.2239C122.124 20.2239 122.4 20.2755 122.627 20.3786C122.857 20.4849 123.059 20.6234 123.234 20.8006C123.406 20.9778 123.584 21.2002 123.766 21.4837C123.945 21.7608 124.133 22.0507 124.328 22.3568ZM112.948 29.2516C112.948 27.9661 112.737 26.8513 112.321 25.9073C111.902 24.9665 111.305 24.2545 110.529 23.768C109.754 23.2847 108.861 23.0431 107.855 23.0431C107.141 23.0431 106.478 23.1784 105.871 23.4426C105.261 23.7132 104.739 24.0998 104.3 24.6121C103.862 25.1244 103.518 25.7784 103.262 26.571C103.012 27.37 102.882 28.2593 102.882 29.2484C102.882 30.2504 103.009 31.1493 103.262 31.9612C103.518 32.7667 103.875 33.4368 104.336 33.9684C104.797 34.5 105.329 34.8963 105.927 35.1573C106.527 35.4247 107.183 35.5536 107.9 35.5536C108.819 35.5536 109.659 35.3248 110.429 34.8705C111.195 34.4163 111.805 33.7139 112.263 32.7602C112.72 31.8162 112.948 30.6402 112.948 29.2516ZM107.855 20.2207C109.692 20.2207 111.266 20.588 112.581 21.329C113.895 22.0636 114.892 23.1172 115.567 24.4768C116.242 25.8396 116.58 27.4377 116.58 29.2742C116.58 30.6306 116.395 31.8678 116.025 32.9761C115.655 34.0876 115.103 35.0477 114.36 35.8629C113.619 36.678 112.711 37.2998 111.633 37.7316C110.552 38.1601 109.322 38.3791 107.929 38.3791C106.547 38.3791 105.303 38.1568 104.213 37.7122C103.116 37.2708 102.207 36.6458 101.473 35.8403C100.74 35.0348 100.188 34.0651 99.8114 32.9277C99.4381 31.7937 99.2498 30.5693 99.2498 29.2516C99.2498 27.9016 99.4446 26.6677 99.8341 25.5368C100.227 24.4124 100.788 23.4555 101.532 22.6629C102.269 21.8735 103.171 21.2678 104.236 20.8522C105.297 20.4301 106.504 20.2207 107.855 20.2207ZM95.2412 23.2654H87.1654V27.5827H94.6017C95.1503 27.5827 95.556 27.7051 95.8254 27.9467C96.0981 28.1884 96.2279 28.5106 96.2279 28.9069C96.2279 29.3031 96.0948 29.6318 95.8319 29.8799C95.5658 30.1279 95.1568 30.2568 94.5985 30.2568H87.1621V35.2636H95.5138C96.0786 35.2636 96.5038 35.3957 96.7862 35.6535C97.0751 35.9112 97.2179 36.2592 97.2179 36.6877C97.2179 37.1001 97.0751 37.4416 96.7862 37.6993C96.5006 37.9571 96.0786 38.0892 95.5138 38.0892H85.7729C84.9939 38.0892 84.4323 37.9184 84.0915 37.5737C83.7507 37.2289 83.5754 36.6748 83.5754 35.908V22.6983C83.5754 22.186 83.6533 21.7704 83.8059 21.4482C83.9584 21.126 84.1986 20.8876 84.5232 20.7394C84.8478 20.5912 85.2633 20.5171 85.7729 20.5171H95.2379C95.8092 20.5171 96.2344 20.6428 96.5103 20.8941C96.7862 21.1486 96.9258 21.4805 96.9258 21.8832C96.9258 22.2988 96.7862 22.6371 96.5103 22.8884C96.2377 23.1365 95.8125 23.2654 95.2412 23.2654ZM67.1479 33.9813L76.2397 23.188H68.4268C67.8782 23.188 67.466 23.0688 67.1901 22.8272C66.911 22.5856 66.7746 22.2698 66.7746 21.88C66.7746 21.474 66.911 21.1454 67.1901 20.8909C67.466 20.6428 67.8782 20.5139 68.4268 20.5139H78.4956C79.7972 20.5139 80.4496 21.1196 80.4496 22.3246C80.4496 22.9013 80.3425 23.3588 80.125 23.7035C79.9075 24.0483 79.4693 24.6024 78.8104 25.3725L70.3094 35.4086H79.6771C80.2289 35.4086 80.6444 35.5246 80.917 35.7533C81.1929 35.9789 81.3292 36.2978 81.3292 36.707C81.3292 37.1291 81.1929 37.4641 80.917 37.7122C80.6444 37.9603 80.2289 38.086 79.6771 38.086H68.1834C67.4043 38.086 66.8168 37.9088 66.4241 37.564C66.0281 37.2161 65.8301 36.7553 65.8301 36.1689C65.8301 35.9692 65.8625 35.7855 65.9242 35.618C65.9891 35.4505 66.0768 35.2894 66.1839 35.1444C66.2942 34.9962 66.4436 34.8093 66.6383 34.5838C66.8331 34.3518 67.0018 34.1488 67.1479 33.9813Z" fill="white"/>
<path fill-rule="evenodd" clip-rule="evenodd" d="M26.1911 16.6285C28.7813 19.1995 28.7813 23.3654 26.1911 25.9332C23.6009 28.5043 19.4039 28.5043 16.8169 25.9332C14.2267 23.3622 14.2267 19.1963 16.8169 16.6285C19.4072 14.0574 23.6041 14.0574 26.1911 16.6285Z" fill="white"/>
<path fill-rule="evenodd" clip-rule="evenodd" d="M41.5573 31.8775C44.1475 34.4486 44.1475 38.6144 41.5573 41.1822C38.9671 43.7533 34.7701 43.7533 32.1831 41.1822C29.5929 38.6112 29.5929 34.4453 32.1831 31.8775C34.7701 29.3097 38.9671 29.3097 41.5573 31.8775Z" fill="white"/>
<path fill-rule="evenodd" clip-rule="evenodd" d="M41.3171 16.6959C43.9073 19.2669 43.9073 23.4328 41.3171 26.0006C38.7268 28.5717 34.5299 28.5717 31.9429 26.0006C29.3527 23.4296 29.3527 19.2637 31.9429 16.6959C34.5299 14.1281 38.7268 14.1281 41.3171 16.6959Z" fill="white"/>
<path fill-rule="evenodd" clip-rule="evenodd" d="M25.9543 31.9449C28.5445 34.516 28.5445 38.6818 25.9543 41.2497C23.364 43.8175 19.1671 43.8207 16.5801 41.2497C13.9899 38.6786 13.9899 34.5127 16.5801 31.9449C19.1671 29.3771 23.364 29.3771 25.9543 31.9449Z" fill="white"/>
<path fill-rule="evenodd" clip-rule="evenodd" d="M9.83844 16.6832C12.0132 16.9506 13.4641 19.6408 13.0843 22.6887C12.7013 25.7366 10.6304 27.9887 8.45569 27.7213C6.28094 27.4539 4.83003 24.7636 5.2098 21.7157C5.59281 18.6678 7.66369 16.4125 9.83844 16.6832Z" fill="white"/>
<path fill-rule="evenodd" clip-rule="evenodd" d="M16.7295 48.2476C16.9989 46.089 19.7092 44.6488 22.7798 45.0258C25.8504 45.4059 28.1193 47.4615 27.8499 49.6201C27.5805 51.7788 24.8702 53.219 21.7996 52.842C18.7289 52.465 16.4601 50.4063 16.7295 48.2476Z" fill="white"/>
<path fill-rule="evenodd" clip-rule="evenodd" d="M8.10834 30.302C10.2701 29.9379 12.4384 32.0998 12.9577 35.1283C13.4738 38.1569 12.143 40.9051 9.98123 41.2692C7.81946 41.6333 5.6512 39.4714 5.13186 36.4428C4.61576 33.4175 5.94658 30.666 8.10834 30.302Z" fill="white"/>
<path fill-rule="evenodd" clip-rule="evenodd" d="M30.5537 49.8649C30.1869 47.7191 32.3649 45.5669 35.4161 45.0514C38.4672 44.5392 41.236 45.8601 41.6028 48.0059C41.9695 50.1517 39.7915 52.3039 36.7404 52.8194C33.6925 53.3316 30.9205 52.0107 30.5537 49.8649Z" fill="white"/>
<path fill-rule="evenodd" clip-rule="evenodd" d="M2.61626 20.5461C3.6452 20.7555 4.19052 22.4953 3.83347 24.4317C3.47642 26.368 2.35658 27.7696 1.32763 27.5601C0.298686 27.3507 -0.246625 25.6109 0.110424 23.6746C0.467472 21.7382 1.58731 20.3367 2.61626 20.5461Z" fill="white"/>
<path fill-rule="evenodd" clip-rule="evenodd" d="M20.6569 55.384C20.8678 54.3626 22.6206 53.8214 24.5714 54.1758C26.5222 54.5302 27.9342 55.6417 27.7232 56.6631C27.5122 57.6844 25.7594 58.2257 23.8086 57.8712C21.8578 57.5168 20.4459 56.4053 20.6569 55.384Z" fill="white"/>
<path fill-rule="evenodd" clip-rule="evenodd" d="M1.35039 30.5178C2.38584 30.3438 3.52514 31.7711 3.89842 33.7042C4.2717 35.6373 3.73288 37.3449 2.69744 37.5189C1.662 37.6929 0.522692 36.2656 0.149414 34.3325C-0.223863 32.3993 0.314955 30.6918 1.35039 30.5178Z" fill="white"/>
<path fill-rule="evenodd" clip-rule="evenodd" d="M30.6544 56.6889C30.4791 55.6611 31.917 54.5303 33.8645 54.1598C35.8121 53.7893 37.5324 54.3241 37.7077 55.3518C37.883 56.3796 36.445 57.5105 34.4975 57.881C32.55 58.2515 30.8296 57.7167 30.6544 56.6889Z" fill="white"/>
<path fill-rule="evenodd" clip-rule="evenodd" d="M7.62797 44.7325C8.49787 43.8175 10.6564 44.4812 12.4546 46.2113C14.2528 47.9447 15.0059 50.0873 14.1392 51.0023C13.2693 51.9173 11.1108 51.2536 9.31259 49.5234C7.51436 47.7933 6.76132 45.6475 7.62797 44.7325Z" fill="white"/>
<path fill-rule="evenodd" clip-rule="evenodd" d="M44.3618 51.1023C43.4399 50.2388 44.1086 48.0963 45.8516 46.3114C47.5979 44.5265 49.7565 43.779 50.6783 44.6392C51.6002 45.5027 50.9315 47.6452 49.1884 49.4301C47.4454 51.215 45.2836 51.9625 44.3618 51.1023Z" fill="white"/>
<path fill-rule="evenodd" clip-rule="evenodd" d="M48.5781 41.253C46.4033 40.9888 44.9459 38.3018 45.3224 35.2539C45.699 32.206 47.7666 29.9475 49.9414 30.2117C52.1161 30.4759 53.5735 33.1629 53.197 36.2108C52.8205 39.2587 50.7528 41.5172 48.5781 41.253Z" fill="white"/>
<path fill-rule="evenodd" clip-rule="evenodd" d="M41.5736 9.74948C41.3074 11.9081 38.6003 13.3547 35.5297 12.981C32.4591 12.6073 30.1837 10.5549 30.4499 8.39629C30.716 6.23765 33.4231 4.79103 36.4937 5.16476C39.5643 5.5385 41.8397 7.59083 41.5736 9.74948Z" fill="white"/>
<path fill-rule="evenodd" clip-rule="evenodd" d="M50.2042 27.705C48.0457 28.0723 45.871 25.9168 45.3484 22.8883C44.8258 19.8597 46.1534 17.1083 48.3119 16.741C50.4704 16.3737 52.6452 18.5291 53.1677 21.5577C53.6903 24.583 52.366 27.3377 50.2042 27.705Z" fill="white"/>
<path fill-rule="evenodd" clip-rule="evenodd" d="M27.8466 8.05807C28.2167 10.2006 26.0451 12.3593 22.994 12.878C19.9429 13.3967 17.1709 12.079 16.8008 9.93642C16.4308 7.79388 18.6023 5.63523 21.6535 5.11651C24.7046 4.59779 27.4766 5.91231 27.8466 8.05807Z" fill="white"/>
<path fill-rule="evenodd" clip-rule="evenodd" d="M55.6639 37.5027C54.6349 37.2965 54.0863 35.5567 54.4369 33.6204C54.7875 31.684 55.9073 30.2793 56.9363 30.4887C57.9652 30.6949 58.5138 32.4347 58.1632 34.371C57.8127 36.3074 56.6928 37.7121 55.6639 37.5027Z" fill="white"/>
<path fill-rule="evenodd" clip-rule="evenodd" d="M37.6687 2.58736C37.461 3.60869 35.7082 4.15319 33.7574 3.80523C31.8066 3.45727 30.3914 2.34572 30.6024 1.32439C30.8101 0.303059 32.5629 -0.241436 34.5137 0.106526C36.4645 0.454487 37.8764 1.56603 37.6687 2.58736Z" fill="white"/>
<path fill-rule="evenodd" clip-rule="evenodd" d="M56.9817 27.4569C55.9462 27.6309 54.8037 26.2068 54.4271 24.2737C54.0506 22.3406 54.5862 20.633 55.6216 20.4558C56.6571 20.2818 57.7996 21.7059 58.1762 23.639C58.5495 25.5753 58.0171 27.2829 56.9817 27.4569Z" fill="white"/>
<path fill-rule="evenodd" clip-rule="evenodd" d="M27.6162 1.35034C27.7914 2.37811 26.3568 3.51221 24.4092 3.88594C22.4617 4.25968 20.7414 3.72807 20.5628 2.7003C20.3876 1.67252 21.8222 0.538426 23.7698 0.16469C25.7206 -0.205825 27.4409 0.322561 27.6162 1.35034Z" fill="white"/>
<path fill-rule="evenodd" clip-rule="evenodd" d="M44.959 7.68121C45.8289 6.7662 47.9874 7.4299 49.7856 9.16005C51.5838 10.8934 52.3369 13.036 51.4702 13.951C50.6003 14.866 48.4418 14.2023 46.6436 12.4721C44.8454 10.7388 44.0891 8.59622 44.959 7.68121Z" fill="white"/>
<path fill-rule="evenodd" clip-rule="evenodd" d="M7.03388 14.0476C6.11205 13.1841 6.7807 11.0416 8.52375 9.25668C10.27 7.47177 12.4286 6.7243 13.3504 7.58453C14.2722 8.44799 13.6036 10.5905 11.8605 12.3754C10.1142 14.1604 7.95247 14.9111 7.03388 14.0476Z" fill="white"/>
</svg>
