<svg width="63" height="64" viewBox="0 0 63 64" fill="none" xmlns="http://www.w3.org/2000/svg">
<path fill-rule="evenodd" clip-rule="evenodd" d="M28.4907 18.6497C31.2476 21.4098 31.2476 25.8821 28.4907 28.6388C25.7337 31.399 21.2666 31.399 18.513 28.6388C15.7561 25.8787 15.7561 21.4064 18.513 18.6497C21.27 15.8896 25.7371 15.8896 28.4907 18.6497Z" fill="#009EE3"/>
<path fill-rule="evenodd" clip-rule="evenodd" d="M44.8461 35.0204C47.6031 37.7805 47.6031 42.2528 44.8461 45.0095C42.0891 47.7697 37.622 47.7697 34.8685 45.0095C32.1115 42.2494 32.1115 37.7771 34.8685 35.0204C37.622 32.2637 42.0891 32.2637 44.8461 35.0204Z" fill="#009EE3"/>
<path fill-rule="evenodd" clip-rule="evenodd" d="M44.5922 18.7225C47.3492 21.4827 47.3492 25.955 44.5922 28.7117C41.8352 31.4718 37.3681 31.4718 34.6146 28.7117C31.8576 25.9515 31.8576 21.4792 34.6146 18.7225C37.3681 15.9659 41.8352 15.9659 44.5922 18.7225Z" fill="#006EA1"/>
<path fill-rule="evenodd" clip-rule="evenodd" d="M28.2406 35.0934C30.9976 37.8535 30.9976 42.3258 28.2406 45.0825C25.4837 47.8392 21.0166 47.8427 18.263 45.0825C15.5061 42.3224 15.5061 37.8501 18.263 35.0934C21.0166 32.3367 25.4837 32.3367 28.2406 35.0934Z" fill="#006EA1"/>
<path fill-rule="evenodd" clip-rule="evenodd" d="M11.0846 18.7087C13.3994 18.9958 14.9437 21.8839 14.5395 25.156C14.1318 28.428 11.9276 30.8457 9.61287 30.5587C7.29812 30.2716 5.7538 27.3834 6.15802 24.1114C6.56569 20.8393 8.76989 18.4182 11.0846 18.7087Z" fill="#009EE3"/>
<path fill-rule="evenodd" clip-rule="evenodd" d="M18.4215 52.595C18.7083 50.2775 21.5931 48.7314 24.8614 49.1361C28.1297 49.5443 30.5446 51.751 30.2579 54.0684C29.9711 56.3858 27.0863 57.9319 23.818 57.5273C20.5497 57.1226 18.1348 54.9124 18.4215 52.595Z" fill="#006EA1"/>
<path fill-rule="evenodd" clip-rule="evenodd" d="M9.24338 33.3288C11.5443 32.938 13.8521 35.2589 14.4049 38.5102C14.9542 41.7615 13.5378 44.7119 11.2368 45.1027C8.9359 45.4935 6.62807 43.1727 6.07529 39.9214C5.52597 36.6735 6.94246 33.7197 9.24338 33.3288Z" fill="#009EE3"/>
<path fill-rule="evenodd" clip-rule="evenodd" d="M33.1347 54.3311C32.7443 52.0275 35.0625 49.717 38.3101 49.1636C41.5576 48.6136 44.5046 50.0317 44.895 52.3353C45.2854 54.6389 42.9672 56.9494 39.7196 57.5028C36.4755 58.0528 33.5251 56.6346 33.1347 54.3311Z" fill="#006EA1"/>
<path fill-rule="evenodd" clip-rule="evenodd" d="M3.39887 22.8557C4.49406 23.0806 5.07447 24.9483 4.69444 27.0271C4.3144 29.1059 3.12248 30.6104 2.02729 30.3856C0.932108 30.1608 0.351694 28.293 0.731727 26.2143C1.11176 24.1355 2.30368 22.6309 3.39887 22.8557Z" fill="#009EE3"/>
<path fill-rule="evenodd" clip-rule="evenodd" d="M22.6023 60.256C22.8269 59.1595 24.6925 58.5784 26.7688 58.9589C28.8452 59.3394 30.3481 60.5327 30.1235 61.6291C29.8989 62.7256 28.0333 63.3067 25.957 62.9262C23.8806 62.5457 22.3777 61.3524 22.6023 60.256Z" fill="#009EE3"/>
<path fill-rule="evenodd" clip-rule="evenodd" d="M2.05081 33.5611C3.1529 33.3743 4.36556 34.9066 4.76286 36.9819C5.16017 39.0572 4.58667 40.8903 3.48457 41.0771C2.38247 41.2639 1.16982 39.7316 0.772515 37.6563C0.375208 35.581 0.948712 33.7478 2.05081 33.5611Z" fill="#009EE3"/>
<path fill-rule="evenodd" clip-rule="evenodd" d="M33.242 61.657C33.0554 60.5537 34.5859 59.3396 36.6588 58.9419C38.7317 58.5441 40.5628 59.1182 40.7493 60.2216C40.9359 61.325 39.4054 62.539 37.3325 62.9368C35.2596 63.3346 33.4285 62.7604 33.242 61.657Z" fill="#009EE3"/>
<path fill-rule="evenodd" clip-rule="evenodd" d="M8.73437 48.8211C9.66027 47.8388 11.9577 48.5513 13.8717 50.4087C15.7857 52.2695 16.5872 54.5697 15.6648 55.552C14.7389 56.5343 12.4414 55.8218 10.5274 53.9644C8.61345 52.107 7.81193 49.8034 8.73437 48.8211Z" fill="#006EA1"/>
<path fill-rule="evenodd" clip-rule="evenodd" d="M47.8315 55.6593C46.8504 54.7323 47.5621 52.4322 49.4173 50.516C51.276 48.5998 53.5735 47.7974 54.5547 48.7209C55.5359 49.6479 54.8242 51.948 52.9689 53.8642C51.1137 55.7804 48.8127 56.5828 47.8315 55.6593Z" fill="#006EA1"/>
<path fill-rule="evenodd" clip-rule="evenodd" d="M52.3212 45.0854C50.0065 44.8018 48.4553 41.9172 48.856 38.6451C49.2568 35.373 51.4575 32.9484 53.7723 33.232C56.087 33.5156 57.6382 36.4003 57.2375 39.6724C56.8367 42.9444 54.636 45.3691 52.3212 45.0854Z" fill="#009EE3"/>
<path fill-rule="evenodd" clip-rule="evenodd" d="M44.8623 11.2653C44.579 13.5827 41.6977 15.1358 38.4294 14.7345C35.1611 14.3333 32.7392 12.13 33.0225 9.81261C33.3058 7.4952 36.1872 5.94218 39.4555 6.34341C42.7238 6.74463 45.1456 8.9479 44.8623 11.2653Z" fill="#006EA1"/>
<path fill-rule="evenodd" clip-rule="evenodd" d="M54.0513 30.5412C51.7538 30.9355 49.439 28.6216 48.8828 25.3703C48.3266 22.119 49.7396 19.1651 52.0371 18.7708C54.3345 18.3765 56.6493 20.6905 57.2055 23.9418C57.7618 27.1896 56.3522 30.1469 54.0513 30.5412Z" fill="#009EE3"/>
<path fill-rule="evenodd" clip-rule="evenodd" d="M30.2537 9.44901C30.6475 11.7491 28.3362 14.0665 25.0887 14.6234C21.8411 15.1803 18.8907 13.7656 18.4968 11.4655C18.103 9.16538 20.4143 6.84796 23.6618 6.29109C26.9094 5.73422 29.8598 7.14542 30.2537 9.44901Z" fill="#006EA1"/>
<path fill-rule="evenodd" clip-rule="evenodd" d="M59.862 41.0597C58.7668 40.8383 58.1829 38.9705 58.556 36.8918C58.9291 34.813 60.1211 33.3049 61.2163 33.5298C62.3114 33.7511 62.8953 35.6189 62.5222 37.6977C62.1491 39.7764 60.9571 41.2845 59.862 41.0597Z" fill="#009EE3"/>
<path fill-rule="evenodd" clip-rule="evenodd" d="M40.7074 3.57614C40.4863 4.67259 38.6207 5.25713 36.5444 4.88358C34.468 4.51003 32.9617 3.31673 33.1862 2.22028C33.4074 1.12383 35.273 0.539283 37.3493 0.912837C39.4257 1.28639 40.9286 2.47969 40.7074 3.57614Z" fill="#009EE3"/>
<path fill-rule="evenodd" clip-rule="evenodd" d="M61.2652 30.2751C60.1631 30.4619 58.947 28.9331 58.5462 26.8578C58.1454 24.7825 58.7155 22.9493 59.8176 22.7591C60.9197 22.5723 62.1358 24.1011 62.5366 26.1764C62.9339 28.2552 62.3673 30.0884 61.2652 30.2751Z" fill="#009EE3"/>
<path fill-rule="evenodd" clip-rule="evenodd" d="M30.0072 2.248C30.1937 3.35137 28.6667 4.56888 26.5938 4.9701C24.5209 5.37133 22.6898 4.80062 22.4998 3.69725C22.3132 2.59388 23.8403 1.37637 25.9132 0.975149C27.9896 0.577383 29.8206 1.14463 30.0072 2.248Z" fill="#009EE3"/>
<path fill-rule="evenodd" clip-rule="evenodd" d="M48.4663 9.04446C49.3922 8.06215 51.6897 8.77467 53.6037 10.6321C55.5177 12.4929 56.3192 14.793 55.3968 15.7754C54.4709 16.7577 52.1734 16.0451 50.2594 14.1877C48.3454 12.3269 47.5404 10.0268 48.4663 9.04446Z" fill="#006EA1"/>
<path fill-rule="evenodd" clip-rule="evenodd" d="M8.10108 15.8791C7.1199 14.9521 7.8316 12.652 9.68685 10.7358C11.5456 8.81957 13.843 8.01712 14.8242 8.94063C15.8054 9.86759 15.0937 12.1677 13.2384 14.0839C11.3797 16.0001 9.0788 16.806 8.10108 15.8791Z" fill="#006EA1"/>
</svg>
