<svg width="59" height="58" viewBox="0 0 59 58" fill="none" xmlns="http://www.w3.org/2000/svg">
<path fill-rule="evenodd" clip-rule="evenodd" d="M26.1911 16.6285C28.7813 19.1995 28.7813 23.3654 26.1911 25.9332C23.6009 28.5043 19.4039 28.5043 16.8169 25.9332C14.2267 23.3622 14.2267 19.1963 16.8169 16.6285C19.4072 14.0574 23.6041 14.0574 26.1911 16.6285Z" fill="white"/>
<path fill-rule="evenodd" clip-rule="evenodd" d="M41.5573 31.8775C44.1475 34.4486 44.1475 38.6144 41.5573 41.1822C38.9671 43.7533 34.7701 43.7533 32.1831 41.1822C29.5929 38.6112 29.5929 34.4453 32.1831 31.8775C34.7701 29.3097 38.9671 29.3097 41.5573 31.8775Z" fill="white"/>
<path fill-rule="evenodd" clip-rule="evenodd" d="M41.3171 16.6959C43.9073 19.2669 43.9073 23.4328 41.3171 26.0006C38.7268 28.5717 34.5299 28.5717 31.9429 26.0006C29.3527 23.4296 29.3527 19.2637 31.9429 16.6959C34.5299 14.1281 38.7268 14.1281 41.3171 16.6959Z" fill="white"/>
<path fill-rule="evenodd" clip-rule="evenodd" d="M25.9543 31.9449C28.5445 34.516 28.5445 38.6818 25.9543 41.2497C23.364 43.8175 19.1671 43.8207 16.5801 41.2497C13.9899 38.6786 13.9899 34.5127 16.5801 31.9449C19.1671 29.3771 23.364 29.3771 25.9543 31.9449Z" fill="white"/>
<path fill-rule="evenodd" clip-rule="evenodd" d="M9.83844 16.6832C12.0132 16.9506 13.4641 19.6408 13.0843 22.6887C12.7013 25.7366 10.6304 27.9887 8.45569 27.7213C6.28094 27.4539 4.83003 24.7636 5.2098 21.7157C5.59281 18.6678 7.66369 16.4125 9.83844 16.6832Z" fill="white"/>
<path fill-rule="evenodd" clip-rule="evenodd" d="M16.7295 48.2476C16.9989 46.089 19.7092 44.6488 22.7798 45.0258C25.8504 45.4059 28.1193 47.4615 27.8499 49.6201C27.5805 51.7788 24.8702 53.219 21.7996 52.842C18.7289 52.465 16.4601 50.4063 16.7295 48.2476Z" fill="white"/>
<path fill-rule="evenodd" clip-rule="evenodd" d="M8.10834 30.302C10.2701 29.9379 12.4384 32.0998 12.9577 35.1283C13.4738 38.1569 12.143 40.9051 9.98123 41.2692C7.81946 41.6333 5.6512 39.4714 5.13186 36.4428C4.61576 33.4175 5.94658 30.666 8.10834 30.302Z" fill="white"/>
<path fill-rule="evenodd" clip-rule="evenodd" d="M30.5537 49.8649C30.1869 47.7191 32.3649 45.5669 35.4161 45.0514C38.4672 44.5392 41.236 45.8601 41.6028 48.0059C41.9695 50.1517 39.7915 52.3039 36.7404 52.8194C33.6925 53.3316 30.9205 52.0107 30.5537 49.8649Z" fill="white"/>
<path fill-rule="evenodd" clip-rule="evenodd" d="M2.61626 20.5461C3.6452 20.7555 4.19052 22.4953 3.83347 24.4317C3.47642 26.368 2.35658 27.7696 1.32763 27.5601C0.298686 27.3507 -0.246625 25.6109 0.110424 23.6746C0.467472 21.7382 1.58731 20.3367 2.61626 20.5461Z" fill="white"/>
<path fill-rule="evenodd" clip-rule="evenodd" d="M20.6569 55.384C20.8678 54.3626 22.6206 53.8214 24.5714 54.1758C26.5222 54.5302 27.9342 55.6417 27.7232 56.6631C27.5122 57.6844 25.7594 58.2257 23.8086 57.8712C21.8578 57.5168 20.4459 56.4053 20.6569 55.384Z" fill="white"/>
<path fill-rule="evenodd" clip-rule="evenodd" d="M1.35039 30.5178C2.38584 30.3438 3.52514 31.7711 3.89842 33.7042C4.2717 35.6373 3.73288 37.3449 2.69744 37.5189C1.662 37.6929 0.522692 36.2656 0.149414 34.3325C-0.223863 32.3993 0.314955 30.6918 1.35039 30.5178Z" fill="white"/>
<path fill-rule="evenodd" clip-rule="evenodd" d="M30.6544 56.6889C30.4791 55.6611 31.917 54.5303 33.8645 54.1598C35.8121 53.7893 37.5324 54.3241 37.7077 55.3518C37.883 56.3796 36.445 57.5105 34.4975 57.881C32.55 58.2515 30.8296 57.7167 30.6544 56.6889Z" fill="white"/>
<path fill-rule="evenodd" clip-rule="evenodd" d="M7.62797 44.7325C8.49787 43.8175 10.6564 44.4812 12.4546 46.2113C14.2528 47.9447 15.0059 50.0873 14.1392 51.0023C13.2693 51.9173 11.1108 51.2536 9.31259 49.5234C7.51436 47.7933 6.76132 45.6475 7.62797 44.7325Z" fill="white"/>
<path fill-rule="evenodd" clip-rule="evenodd" d="M44.3618 51.1023C43.4399 50.2388 44.1086 48.0963 45.8516 46.3114C47.5979 44.5265 49.7565 43.779 50.6783 44.6392C51.6002 45.5027 50.9315 47.6452 49.1884 49.4301C47.4454 51.215 45.2836 51.9625 44.3618 51.1023Z" fill="white"/>
<path fill-rule="evenodd" clip-rule="evenodd" d="M48.5781 41.253C46.4033 40.9888 44.9459 38.3018 45.3224 35.2539C45.699 32.206 47.7666 29.9475 49.9414 30.2117C52.1161 30.4759 53.5735 33.1629 53.197 36.2108C52.8205 39.2587 50.7528 41.5172 48.5781 41.253Z" fill="white"/>
<path fill-rule="evenodd" clip-rule="evenodd" d="M41.5736 9.74948C41.3074 11.9081 38.6003 13.3547 35.5297 12.981C32.4591 12.6073 30.1837 10.5549 30.4499 8.39629C30.716 6.23765 33.4231 4.79103 36.4937 5.16476C39.5643 5.5385 41.8397 7.59083 41.5736 9.74948Z" fill="white"/>
<path fill-rule="evenodd" clip-rule="evenodd" d="M50.2042 27.705C48.0457 28.0723 45.871 25.9168 45.3484 22.8883C44.8258 19.8597 46.1534 17.1083 48.3119 16.741C50.4704 16.3737 52.6452 18.5291 53.1677 21.5577C53.6903 24.583 52.366 27.3377 50.2042 27.705Z" fill="white"/>
<path fill-rule="evenodd" clip-rule="evenodd" d="M27.8466 8.05807C28.2167 10.2006 26.0451 12.3593 22.994 12.878C19.9429 13.3967 17.1709 12.079 16.8008 9.93642C16.4308 7.79388 18.6023 5.63523 21.6535 5.11651C24.7046 4.59779 27.4766 5.91231 27.8466 8.05807Z" fill="white"/>
<path fill-rule="evenodd" clip-rule="evenodd" d="M55.6639 37.5027C54.6349 37.2965 54.0863 35.5567 54.4369 33.6204C54.7875 31.684 55.9073 30.2793 56.9363 30.4887C57.9652 30.6949 58.5138 32.4347 58.1632 34.371C57.8127 36.3074 56.6928 37.7121 55.6639 37.5027Z" fill="white"/>
<path fill-rule="evenodd" clip-rule="evenodd" d="M37.6687 2.58736C37.461 3.60869 35.7082 4.15319 33.7574 3.80523C31.8066 3.45727 30.3914 2.34572 30.6024 1.32439C30.8101 0.303059 32.5629 -0.241436 34.5137 0.106526C36.4645 0.454487 37.8764 1.56603 37.6687 2.58736Z" fill="white"/>
<path fill-rule="evenodd" clip-rule="evenodd" d="M56.9817 27.4569C55.9462 27.6309 54.8037 26.2068 54.4271 24.2737C54.0506 22.3406 54.5862 20.633 55.6216 20.4558C56.6571 20.2818 57.7996 21.7059 58.1762 23.639C58.5495 25.5753 58.0171 27.2829 56.9817 27.4569Z" fill="white"/>
<path fill-rule="evenodd" clip-rule="evenodd" d="M27.6162 1.35034C27.7914 2.37811 26.3568 3.51221 24.4092 3.88594C22.4617 4.25968 20.7414 3.72807 20.5628 2.7003C20.3876 1.67252 21.8222 0.538426 23.7698 0.16469C25.7206 -0.205825 27.4409 0.322561 27.6162 1.35034Z" fill="white"/>
<path fill-rule="evenodd" clip-rule="evenodd" d="M44.959 7.68121C45.8289 6.7662 47.9874 7.4299 49.7856 9.16005C51.5838 10.8934 52.3369 13.036 51.4702 13.951C50.6003 14.866 48.4418 14.2023 46.6436 12.4721C44.8454 10.7388 44.0891 8.59622 44.959 7.68121Z" fill="white"/>
<path fill-rule="evenodd" clip-rule="evenodd" d="M7.03388 14.0476C6.11205 13.1841 6.7807 11.0416 8.52375 9.25668C10.27 7.47177 12.4286 6.7243 13.3504 7.58454C14.2722 8.44799 13.6036 10.5905 11.8605 12.3754C10.1142 14.1604 7.95247 14.9111 7.03388 14.0476Z" fill="white"/>
</svg>
