<svg width="121" height="52" viewBox="0 0 121 52" fill="none" xmlns="http://www.w3.org/2000/svg">
<g clip-path="url(#clip0_127_1516)">
<path d="M116.071 41.0291H116.954V47.3666H116.071V41.0291ZM116.594 46.5433H118.308C118.758 46.5433 119.087 46.4596 119.291 46.2863C119.499 46.1158 119.6 45.8732 119.6 45.5641V45.5497C119.6 45.3359 119.563 45.151 119.49 44.9951C119.415 44.842 119.3 44.7235 119.138 44.6398C118.977 44.5589 118.775 44.5156 118.524 44.5156H116.591V43.7125H118.524C118.85 43.7125 119.098 43.6345 119.265 43.4814C119.433 43.3255 119.516 43.1002 119.516 42.7969C119.516 42.4791 119.424 42.2423 119.237 42.0863C119.052 41.9303 118.772 41.8523 118.4 41.8523H116.588V41.0291H118.561C118.971 41.0291 119.314 41.0984 119.589 41.2399C119.866 41.3786 120.07 41.575 120.209 41.8321C120.345 42.0892 120.414 42.3925 120.414 42.7478C120.414 42.9644 120.373 43.1695 120.287 43.3601C120.203 43.5508 120.073 43.7125 119.903 43.8483C119.73 43.9841 119.516 44.0736 119.26 44.1198C119.516 44.1574 119.736 44.2498 119.92 44.3913C120.105 44.5358 120.249 44.7149 120.347 44.9286C120.448 45.1453 120.497 45.3764 120.497 45.6277V45.6421C120.497 45.9829 120.422 46.2862 120.27 46.5491C120.119 46.812 119.903 47.0142 119.62 47.1557C119.34 47.2972 119.012 47.3695 118.636 47.3695H116.591V46.5433H116.594ZM103.824 47.433C103.356 47.433 102.955 47.3406 102.623 47.1557C102.292 46.9708 102.038 46.7022 101.865 46.3498C101.689 45.9974 101.602 45.5728 101.602 45.0759V41.0291H102.491V45.1048C102.491 45.567 102.609 45.9252 102.84 46.1765C103.071 46.4307 103.4 46.5549 103.824 46.5549C104.251 46.5549 104.58 46.4278 104.813 46.1765C105.047 45.9223 105.165 45.567 105.165 45.1048V41.0291H106.054V45.0759C106.054 45.5728 105.967 45.9974 105.791 46.3498C105.618 46.7022 105.364 46.9708 105.03 47.1557C104.695 47.3406 104.294 47.433 103.824 47.433ZM87.5653 43.8223H91.0795V44.6687H87.5653V43.8223ZM87.0114 41.0291H87.9V47.3666H87.0114V41.0291ZM90.6092 41.0291H91.4979V47.3666H90.6092V41.0291ZM70.828 41.0291H75.2944V41.8754H70.828V41.0291ZM72.6169 41.549H73.5055V47.3695H72.6169V41.549ZM61.1567 47.3666H60.2681V41.0291H61.1567V47.3666Z" fill="#B1B2B3"/>
<path d="M111.013 20.0435L117.136 29.3274V19.954C117.136 19.3445 117.269 18.891 117.528 18.5877C117.788 18.2844 118.14 18.1284 118.584 18.1284C119.037 18.1284 119.401 18.2786 119.663 18.5819C119.926 18.8852 120.059 19.3445 120.059 19.954V32.3344C120.059 33.718 119.487 34.4055 118.345 34.4055C118.059 34.4055 117.802 34.3651 117.572 34.2813C117.344 34.2004 117.127 34.0675 116.931 33.8913C116.729 33.7122 116.547 33.5014 116.374 33.2616C116.201 33.0219 116.031 32.7763 115.858 32.5279L109.885 23.3625V32.5799C109.885 33.1807 109.747 33.6371 109.467 33.9433C109.184 34.2524 108.826 34.4055 108.391 34.4055C107.941 34.4055 107.577 34.2524 107.306 33.9404C107.032 33.6285 106.896 33.175 106.896 32.5799V20.4393C106.896 19.9222 106.954 19.5178 107.069 19.2261C107.205 18.9026 107.433 18.6397 107.747 18.4346C108.062 18.2324 108.402 18.1313 108.766 18.1313C109.054 18.1313 109.3 18.1775 109.502 18.27C109.706 18.3653 109.885 18.4895 110.041 18.6484C110.194 18.8072 110.353 19.0065 110.514 19.2607C110.673 19.5092 110.84 19.7691 111.013 20.0435ZM100.898 26.2251C100.898 25.0725 100.71 24.0731 100.341 23.2267C99.9687 22.3833 99.4378 21.7449 98.7483 21.3087C98.0587 20.8754 97.2652 20.6588 96.3708 20.6588C95.7361 20.6588 95.1475 20.7801 94.6079 21.017C94.0655 21.2596 93.601 21.6063 93.2115 22.0655C92.822 22.5248 92.5161 23.1112 92.2882 23.8218C92.066 24.5382 91.9506 25.3354 91.9506 26.2222C91.9506 27.1205 92.0632 27.9264 92.2882 28.6544C92.5161 29.3765 92.8335 29.9773 93.2432 30.4539C93.6529 30.9306 94.1261 31.2858 94.657 31.5198C95.1908 31.7596 95.7736 31.8751 96.4112 31.8751C97.2277 31.8751 97.975 31.67 98.6588 31.2627C99.3397 30.8554 99.8822 30.2257 100.289 29.3707C100.696 28.5244 100.898 27.47 100.898 26.2251ZM96.3708 18.1284C98.0039 18.1284 99.4032 18.4577 100.572 19.1221C101.74 19.7807 102.626 20.7252 103.226 21.9442C103.826 23.1661 104.126 24.5988 104.126 26.2453C104.126 27.4614 103.962 28.5706 103.633 29.5643C103.304 30.5608 102.814 31.4216 102.153 32.1524C101.495 32.8832 100.687 33.4407 99.7292 33.8278C98.7685 34.212 97.6749 34.4084 96.4372 34.4084C95.2081 34.4084 94.103 34.2091 93.1336 33.8105C92.1584 33.4147 91.3505 32.8543 90.6984 32.1322C90.0464 31.4101 89.5559 30.5406 89.2212 29.5209C88.8894 28.5042 88.722 27.4065 88.722 26.2251C88.722 25.0148 88.8952 23.9084 89.2414 22.8946C89.5905 21.8864 90.0897 21.0285 90.7504 20.318C91.4053 19.6103 92.2074 19.0672 93.1538 18.6946C94.0973 18.3162 95.1706 18.1284 96.3708 18.1284ZM85.1588 20.8581H77.9803V24.7288H84.5904C85.078 24.7288 85.4386 24.8386 85.6781 25.0552C85.9205 25.2718 86.0359 25.5607 86.0359 25.916C86.0359 26.2713 85.9176 26.5659 85.6839 26.7883C85.4473 27.0108 85.0838 27.1263 84.5875 27.1263H77.9774V31.6151H85.4011C85.9032 31.6151 86.2811 31.7336 86.5322 31.9647C86.7889 32.1957 86.9159 32.5077 86.9159 32.8919C86.9159 33.2616 86.7889 33.5678 86.5322 33.7989C86.2783 34.03 85.9032 34.1484 85.4011 34.1484H76.7425C76.0501 34.1484 75.5509 33.9953 75.248 33.6862C74.945 33.3772 74.7892 32.8803 74.7892 32.1929V20.3497C74.7892 19.8904 74.8585 19.5178 74.9941 19.229C75.1297 18.9401 75.3432 18.7264 75.6317 18.5935C75.9202 18.4606 76.2896 18.3942 76.7425 18.3942H85.1559C85.6637 18.3942 86.0417 18.5068 86.2869 18.7321C86.5322 18.9603 86.6562 19.2578 86.6562 19.6189C86.6562 19.9915 86.5322 20.2948 86.2869 20.5202C86.0445 20.7426 85.6666 20.8581 85.1588 20.8581ZM60.187 30.4655L68.2686 20.7888H61.3238C60.8362 20.7888 60.4698 20.6819 60.2245 20.4653C59.9764 20.2486 59.8552 19.9655 59.8552 19.616C59.8552 19.2521 59.9764 18.9574 60.2245 18.7292C60.4698 18.5068 60.8362 18.3913 61.3238 18.3913H70.2738C71.4308 18.3913 72.0107 18.9343 72.0107 20.0147C72.0107 20.5317 71.9155 20.9419 71.7222 21.251C71.5289 21.56 71.1394 22.0569 70.5537 22.7472L62.9973 31.7451H71.3241C71.8145 31.7451 72.1839 31.8491 72.4262 32.0542C72.6715 32.2564 72.7926 32.5424 72.7926 32.9092C72.7926 33.2876 72.6715 33.588 72.4262 33.8105C72.1839 34.0329 71.8145 34.1455 71.3241 34.1455H61.1074C60.415 34.1455 59.8927 33.9867 59.5436 33.6776C59.1916 33.3656 59.0156 32.9525 59.0156 32.4268C59.0156 32.2477 59.0445 32.0831 59.0993 31.9329C59.157 31.7827 59.2349 31.6383 59.3301 31.5083C59.4282 31.3754 59.5609 31.2079 59.7341 31.0057C59.9072 30.7977 60.0572 30.6157 60.187 30.4655Z" fill="#006EA1"/>
<path fill-rule="evenodd" clip-rule="evenodd" d="M23.7811 14.9075C26.0835 17.2126 26.0835 20.9475 23.7811 23.2497C21.4787 25.5548 17.748 25.5548 15.4485 23.2497C13.1461 20.9446 13.1461 17.2097 15.4485 14.9075C17.7509 12.6024 21.4815 12.6024 23.7811 14.9075Z" fill="#009EE3"/>
<path fill-rule="evenodd" clip-rule="evenodd" d="M37.4398 28.5792C39.7422 30.8843 39.7422 34.6192 37.4398 36.9214C35.1373 39.2264 31.4067 39.2264 29.1072 36.9214C26.8048 34.6163 26.8048 30.8814 29.1072 28.5792C31.4067 26.277 35.1373 26.277 37.4398 28.5792Z" fill="#009EE3"/>
<path fill-rule="evenodd" clip-rule="evenodd" d="M37.2264 14.9683C39.5288 17.2734 39.5288 21.0083 37.2264 23.3105C34.924 25.6156 31.1933 25.6156 28.8938 23.3105C26.5914 21.0054 26.5914 17.2705 28.8938 14.9683C31.1933 12.6662 34.924 12.6662 37.2264 14.9683Z" fill="#006EA1"/>
<path fill-rule="evenodd" clip-rule="evenodd" d="M23.5706 28.6402C25.873 30.9453 25.873 34.6802 23.5706 36.9824C21.2682 39.2846 17.5376 39.2875 15.238 36.9824C12.9356 34.6773 12.9356 30.9424 15.238 28.6402C17.5376 26.338 21.2682 26.338 23.5706 28.6402Z" fill="#006EA1"/>
<path fill-rule="evenodd" clip-rule="evenodd" d="M9.24517 14.9568C11.1783 15.1965 12.468 17.6085 12.1304 20.341C11.79 23.0736 9.94917 25.0927 8.01606 24.853C6.08295 24.6132 4.79325 22.2013 5.13082 19.4687C5.47128 16.7361 7.31206 14.7141 9.24517 14.9568Z" fill="#009EE3"/>
<path fill-rule="evenodd" clip-rule="evenodd" d="M15.3709 43.2563C15.6103 41.3209 18.0195 40.0297 20.749 40.3677C23.4784 40.7086 25.4952 42.5515 25.2557 44.4868C25.0162 46.4221 22.607 47.7133 19.8776 47.3754C17.1482 47.0374 15.1314 45.1916 15.3709 43.2563Z" fill="#006EA1"/>
<path fill-rule="evenodd" clip-rule="evenodd" d="M7.70742 27.1667C9.62899 26.8403 11.5563 28.7785 12.018 31.4938C12.4767 34.2091 11.2938 36.673 9.3722 36.9994C7.45063 37.3258 5.52329 35.3876 5.06165 32.6723C4.6029 29.96 5.78585 27.4931 7.70742 27.1667Z" fill="#009EE3"/>
<path fill-rule="evenodd" clip-rule="evenodd" d="M27.6589 44.7061C27.3328 42.7824 29.2688 40.8528 31.981 40.3906C34.6931 39.9313 37.1542 41.1157 37.4802 43.0394C37.8063 44.9632 35.8703 46.8928 33.1581 47.355C30.4489 47.8142 27.9849 46.6299 27.6589 44.7061Z" fill="#006EA1"/>
<path fill-rule="evenodd" clip-rule="evenodd" d="M2.82567 18.4204C3.74029 18.6082 4.22501 20.168 3.90763 21.904C3.59026 23.6401 2.59485 24.8966 1.68023 24.7088C0.765607 24.5211 0.280887 22.9613 0.598263 21.2252C0.915639 19.4892 1.91105 18.2327 2.82567 18.4204Z" fill="#009EE3"/>
<path fill-rule="evenodd" clip-rule="evenodd" d="M18.8618 49.6542C19.0494 48.7386 20.6074 48.2533 22.3414 48.571C24.0754 48.8888 25.3305 49.8853 25.143 50.801C24.9554 51.7167 23.3974 52.202 21.6634 51.8842C19.9294 51.5665 18.6743 50.5699 18.8618 49.6542Z" fill="#009EE3"/>
<path fill-rule="evenodd" clip-rule="evenodd" d="M1.70062 27.3605C2.62101 27.2045 3.63373 28.4842 3.96554 30.2173C4.29734 31.9505 3.81839 33.4814 2.898 33.6374C1.97761 33.7934 0.964886 32.5137 0.633084 30.7806C0.301282 29.0475 0.780231 27.5165 1.70062 27.3605Z" fill="#009EE3"/>
<path fill-rule="evenodd" clip-rule="evenodd" d="M27.7482 50.8243C27.5924 49.9029 28.8706 48.889 30.6017 48.5568C32.3329 48.2246 33.862 48.7041 34.0178 49.6256C34.1736 50.547 32.8955 51.5609 31.1643 51.8931C29.4332 52.2253 27.904 51.7458 27.7482 50.8243Z" fill="#009EE3"/>
<path fill-rule="evenodd" clip-rule="evenodd" d="M7.28063 40.1047C8.05388 39.2844 9.97256 39.8794 11.571 41.4306C13.1694 42.9846 13.8388 44.9055 13.0684 45.7259C12.2952 46.5462 10.3765 45.9512 8.77807 44.4C7.17965 42.8489 6.51028 40.9251 7.28063 40.1047Z" fill="#006EA1"/>
<path fill-rule="evenodd" clip-rule="evenodd" d="M39.9327 45.8155C39.1133 45.0413 39.7076 43.1204 41.257 41.5202C42.8093 39.9199 44.7279 39.2497 45.5474 40.021C46.3668 40.7951 45.7724 42.716 44.223 44.3163C42.6737 45.9166 40.7521 46.5867 39.9327 45.8155Z" fill="#006EA1"/>
<path fill-rule="evenodd" clip-rule="evenodd" d="M43.6804 36.9848C41.7473 36.748 40.4519 34.3389 40.7866 31.6063C41.1212 28.8738 42.9591 26.8489 44.8922 27.0857C46.8254 27.3226 48.1208 29.7317 47.7861 32.4642C47.4515 35.1968 45.6136 37.2217 43.6804 36.9848Z" fill="#009EE3"/>
<path fill-rule="evenodd" clip-rule="evenodd" d="M37.4544 8.74079C37.2178 10.6761 34.8115 11.9731 32.0821 11.638C29.3526 11.3029 27.3301 9.46293 27.5667 7.52759C27.8033 5.59225 30.2096 4.29529 32.939 4.63036C35.6684 4.96543 37.691 6.80545 37.4544 8.74079Z" fill="#006EA1"/>
<path fill-rule="evenodd" clip-rule="evenodd" d="M45.1259 24.8385C43.2072 25.1678 41.2741 23.2354 40.8096 20.5201C40.3451 17.8049 41.5252 15.338 43.4438 15.0087C45.3625 14.6794 47.2956 16.6119 47.7602 19.3271C48.2247 22.0395 47.0475 24.5092 45.1259 24.8385Z" fill="#009EE3"/>
<path fill-rule="evenodd" clip-rule="evenodd" d="M25.2524 7.22401C25.5813 9.14491 23.6511 11.0802 20.939 11.5453C18.2269 12.0104 15.7629 10.8289 15.434 8.90805C15.1051 6.98715 17.0353 5.05181 19.7474 4.58675C22.4595 4.12169 24.9235 5.30022 25.2524 7.22401Z" fill="#006EA1"/>
<path fill-rule="evenodd" clip-rule="evenodd" d="M49.9791 33.6229C49.0645 33.438 48.5769 31.8782 48.8885 30.1421C49.2001 28.4061 50.1955 27.1467 51.1102 27.3345C52.0248 27.5193 52.5124 29.0792 52.2008 30.8152C51.8892 32.5512 50.8938 33.8106 49.9791 33.6229Z" fill="#009EE3"/>
<path fill-rule="evenodd" clip-rule="evenodd" d="M33.9833 2.31937C33.7986 3.23505 32.2406 3.72321 30.5066 3.41125C28.7725 3.09928 27.5146 2.10273 27.7021 1.18705C27.8868 0.271372 29.4448 -0.216797 31.1788 0.0951689C32.9129 0.407135 34.1679 1.40369 33.9833 2.31937Z" fill="#009EE3"/>
<path fill-rule="evenodd" clip-rule="evenodd" d="M51.1507 24.6164C50.2303 24.7724 49.2147 23.4956 48.88 21.7625C48.5454 20.0294 49.0214 18.4984 49.9418 18.3396C50.8622 18.1836 51.8778 19.4603 52.2125 21.1935C52.5443 22.9295 52.0711 24.4604 51.1507 24.6164Z" fill="#009EE3"/>
<path fill-rule="evenodd" clip-rule="evenodd" d="M25.0476 1.21007C25.2034 2.13153 23.9282 3.14831 22.197 3.48338C20.4659 3.81845 18.9367 3.34184 18.778 2.42039C18.6222 1.49893 19.8975 0.482155 21.6286 0.14708C23.3627 -0.185105 24.8918 0.28862 25.0476 1.21007Z" fill="#009EE3"/>
<path fill-rule="evenodd" clip-rule="evenodd" d="M40.4635 6.88623C41.2368 6.06588 43.1555 6.66092 44.7539 8.21208C46.3523 9.76614 47.0217 11.687 46.2513 12.5074C45.4781 13.3277 43.5594 12.7327 41.961 11.1815C40.3626 9.62748 39.6903 7.70658 40.4635 6.88623Z" fill="#006EA1"/>
<path fill-rule="evenodd" clip-rule="evenodd" d="M6.7525 12.594C5.9331 11.8199 6.52746 9.89899 8.07683 8.29873C9.62908 6.69846 11.5478 6.02831 12.3672 6.79956C13.1866 7.57369 12.5922 9.49459 11.0429 11.0949C9.49059 12.6951 7.56903 13.3682 6.7525 12.594Z" fill="#006EA1"/>
</g>
<defs>
<clipPath id="clip0_127_1516">
<rect width="120" height="52" fill="white" transform="translate(0.5)"/>
</clipPath>
</defs>
</svg>
